<?xml version="1.0" encoding="utf-8"?>
<!-- Generator: Adobe Illustrator 22.0.0, SVG Export Plug-In . SVG Version: 6.00 Build 0)  -->
<svg version="1.1" id="dchbx_xA0_Image_1_" xmlns="http://www.w3.org/2000/svg" xmlns:xlink="http://www.w3.org/1999/xlink" x="0px"
	 y="0px" viewBox="0 0 6362 1220" style="enable-background:new 0 0 6362 1220;" xml:space="preserve">
<style type="text/css">
	.st0{fill:#FDFEFE;}
	.st1{fill:#017BC4;}
	.st2{fill:#E92C32;}
</style>
<g>
	<g>
		<path class="st0" d="M3183,1222c-1057.3,0-2114.7,0-3172,0c-2.3,0-4.7-0.1-7,0c-1.7,0.1-2.2-0.3-2-2.1c0.2-1.6,0-3.3,0-5
			C2,813,2,411,2,9c0-1.7,0.2-3.4,0-5C1.8,2.3,2.3,1.8,4,2c2.3,0.2,4.7,0,7,0c2114.7,0,4229.3,0,6344,0c2.3,0,4.7,0.1,7,0
			c1.7-0.1,2.2,0.3,2,2.1c-0.2,1.6,0,3.3,0,5c0,402,0,804,0,1206c0,1.7-0.2,3.4,0,5c0.2,1.7-0.3,2.2-2,2.1c-2.3-0.2-4.7,0-7,0
			C5297.7,1222,4240.3,1222,3183,1222z M1195.8,277c-0.4-1.4-1.2-2.4-2.8-2.4c-2.9-0.1-4.9-1.7-6.9-3.6
			c-7.2-6.9-14.5-13.6-21.9-20.3c-11.4-10.1-22.6-20.5-34.5-30c-10.1-8-20.3-15.8-30.9-23.3c-4.9-3.4-10-6.5-14.9-9.8
			c-5-3.4-9.9-6.4-15.6-8.3c-1.2-0.4-2.3-1.3-3.2-2.2c-2.9-2.9-6.2-4.9-10.2-5.9c-1.2-0.3-2.5-1-3.4-1.9c-2.8-3-6.3-4.7-10-6.3
			c-2.1-0.9-4.3-2-5.9-3.6c-3.5-3.4-7.4-5.5-12.1-6.5c-4.8-1-7.2-5.9-11.6-7.4c-0.9-0.3-2-0.3-2.9-0.8c-1.8-0.8-3.7-1.6-5.2-2.8
			c-3.1-2.6-6.8-3.9-10.6-5.2c-4.6-1.7-9.5-2.8-13.3-6.3c-2.1-1.9-5.1-3-8.2-3.2c-3.1-0.2-6-1.4-7.9-3.7c-3-3.6-7.4-5-11.4-5.6
			c-4.4-0.6-7.4-2.5-10.1-5.5c-1.9-2.1-4.1-3.3-7-3c-5.3,0.4-9.7-1.4-13.3-5.4c-1.6-1.8-3.8-2.5-6.2-2.8c-2.9-0.4-5.8-1.3-8.8-1.6
			c-2.5-0.2-4.4-1-6.1-2.8c-3.7-3.8-8.7-4.8-13.6-5.2c-3.8-0.2-7.1-1.2-10.4-2.9c-5.3-2.8-10.8-4.7-16.9-5.5
			c-4.2-0.5-8.4-1.8-12.3-3.3c-8.3-3.4-16.8-5.9-25.8-6.7c-3.6-0.3-7.6-0.7-10.5-2.6c-7.1-4.6-14.8-5.1-22.8-5.7
			c-5.2-0.4-10.5-1.3-15.2-3.9c-6.8-3.9-14.2-5.3-21.9-5.4c-3.3,0-6.7-0.2-10-0.3c-2-0.1-3.9-0.3-5.8-1.2c-10.3-5-21.3-7.2-32.7-6.7
			c-14.7,0.6-28.8-2.5-42.7-6.9c-5.5-1.8-11.2-4-17.3-1.4c-1.4,0.6-3.3,0.2-5,0.1c-8.6-0.2-17.2-0.2-25.8-1.2
			c-9.5-1.1-19.3-0.5-29-0.5c-175.6,0-351.3,0-526.9,0c-5.7,0-11.3,0-17-0.1c-2.4,0-4.5,0.3-6.7,1.4c-2.3,1.2-3.7,2.6-3.6,5.3
			c0.1,4,0.2,8,0.2,12c0,373.9,0,747.8,0,1121.8c0,2-0.1,4,0.1,6c0.3,5.8,3.7,8.9,9.7,8.9c6,0,12-0.3,18-0.3
			c88,0.1,176,0.3,263.9,0.3c87,0,174-0.2,260.9-0.1c6.4,0,12.4-2,18.7-1.8c6.7,0.2,13.3-0.1,20-0.2c1.3,0,2.5-0.7,3.8-0.9
			c7.2-1,14.3-2.2,21.5-2.7c8.6-0.7,17.3,0.7,25.7-2c10.7,0.6,21.1-2.3,31.7-2.2c2.3,0,4.6,0.1,6.8-1c7.6-3.7,15.7-4.6,24-5
			c7.6-0.4,15.2-1.1,22.8-1.9c1.6-0.2,3.1-1.1,4.6-1.8c6.1-2.8,12.3-4.5,19.1-4.7c7.6-0.2,15-1.6,21.8-5.6c4.9-2.9,10.4-4.2,16.2-4
			c6.2,0.3,11.9-0.8,16.3-5.7c1.7-1.9,3.9-2.3,6.3-2.3c1.7,0,3.3-0.2,5-0.2c6.1-0.1,11.7-1.3,16.8-5.1c2.9-2.1,6.5-4.2,9.9-4.3
			c6.7-0.2,12.2-2.7,17.8-5.7c2.9-1.6,6.2-2.1,9.3-3.2c12.2-4,23.9-9.3,36.3-12.9c4.9-1.4,9-5.1,14.6-5.4c2.4-0.1,5-1.7,6.9-3.8
			c2.1-2.3,4.6-3.3,7.7-3.9c4.4-0.9,9-1.8,12.3-5.8c2.1-2.6,5.4-3.7,8.9-3.7c2.4,0,4.8-0.3,6.4-2.2c3.6-4.2,8.3-6.3,13.4-8.1
			c2.2-0.7,4.3-1.8,6.1-3.3c2.9-2.4,6-4,9.6-4.8c4-0.9,5.8-5.5,9.8-6.6c0.9-0.3,1.8-1,2.7-1.1c2.1-0.2,3.9-1.2,5.2-2.7
			c2.9-3.4,6.7-5.2,10.8-6.7c1.8-0.7,3.7-1.7,5-3.1c2.7-2.7,6-4.1,9.2-5.7c2.3-1.2,4.5-2.7,6.8-4.1c6.4-4,13.3-7.1,19.4-11.8
			c3.1-2.4,6.8-3.9,9.4-7.1c1.3-1.6,2.9-2.6,4.8-3.4c3.4-1.3,6.6-3.1,8.1-6.9c0.6-1.6,2.3-2.2,3.9-2.9c3.4-1.5,5.9-4.2,8.8-6.3
			c5.7-4.1,10.2-9.6,15.8-13.5c7.1-4.9,12.3-12.2,19.9-16.3c4.4-5.8,12.5-7.7,15.7-14.9c0.2-0.5,1.1-0.7,1.7-0.9
			c3.6-1.4,5.9-4.2,7.3-7.7c1.1-2.8,3.1-4.2,6.1-4.1c1.3,0,2.7,0,4,0c6.5,2.8,11.4,7.7,16.2,12.8c11.7,12.3,24.5,23.3,37.7,34
			c2.6,2.1,5.6,3.7,7.9,6c4,4.1,8.7,7.1,13.3,10.4c11,7.9,22.3,15.5,32.7,24.1c5.9,4.9,12.5,8.6,18.9,12.7
			c12.3,7.8,24.7,15.5,37.8,21.8c3.9,4.5,10.2,4.6,14.7,8.1c4.2,3.2,8.9,5.6,13.9,7.5c1.5,0.6,3,1.4,4.5,2.1c4,1.8,5.7,7.2,10.2,7.7
			c4.9,0.6,8.7,3.1,12.9,4.9c2.4,1,4.8,2.8,7.3,3c4,0.4,6.8,2.3,9.4,5.1c3.1,3.3,6.8,5.4,11.4,5.1c3.5-0.2,6.5,1.1,9.5,2.6
			c8.8,4.6,18.7,6.5,27.4,11.4c1.7,0.9,3.7,1.6,5.6,1.9c12.2,1.9,22.7,9,34.9,10.7c1.6,0.2,3.1,1.2,4.5,2.1c5.2,3.3,11,4.4,16.9,5.3
			c5.3,0.8,10.3,1.8,14.6,5.4c2.3,1.9,5.2,2.9,8.3,2.7c8.6-0.6,16.4,2.3,23.6,6.4c4.5,2.6,9.1,3.6,14.2,3.4
			c6.4-0.3,12.3,0.6,18.3,3.6c6.7,3.5,14.1,5.2,22,4.5c7-0.7,13.8,1.3,20.5,3.1c10.9,2.9,21.7,5.4,33.1,5c9-0.3,17.7,2.9,26.7,2.3
			c7.1,3.3,15.3,0.4,22.4,3.6c13.3-0.6,26.5,2.2,39.7,2.1c8.7-0.1,17.3,0.2,26,0.2c41.7,0,83.3,0,125,0c3.3,0,6.8-0.4,9.9,0.5
			c3.6,1.1,7.2,1.1,10.8,1.1c30.3,0.1,60.7,0.1,91,0.1c2,0,4.1,0.2,6-0.2c7.9-1.5,12.3-5.4,11.1-12.4c-0.2-1.3,0-2.7,0-4
			c0-111.7,0-223.3,0-335c0-3.7-0.1-7.4,0.2-11c0.4-3.9-1.6-6.4-4.6-8.2c-2.5-1.5-5.3-2.8-8.4-2.6c-3.3,0.2-6.7,0-10,0
			c-39-0.1-78,0.1-117-0.3c-39.2-0.4-78.5,1.7-117.7-1.8c-3.9-0.3-8,0.5-11.7-1.7c-6.4,0.4-12.4-2.2-18.7-2.2
			c-5.4,0-10.6-1.2-15.7-2.4c-10.6-2.5-20.7-6.8-31.6-8c-1.2-0.1-2.5-0.9-3.5-1.7c-4.2-3.7-9.4-4.8-14.6-5.8
			c-4.1-0.8-7.6-2.2-10.4-5.3c-1.9-2.1-4.1-3-7-3.2c-3.2-0.3-6.6-1.1-9.3-3.1c-7.2-5.4-15.7-8.4-23.2-13.3
			c-14.1-9.3-28.2-18.4-40.6-30.1c-7.7-7.2-13.2-16.6-22-22.7c-1-0.7-1.5-2.1-2.1-3.3c-1.9-4-4.5-7.3-7.8-10.2c-2.3-2-4.5-4.1-5-7.2
			c-0.8-5-4.1-8.2-7.5-11.4c-2-1.9-3.2-3.9-3.6-6.8c-1-6.9-4-13.3-7.2-19.3c-2.6-4.8-3.7-9.8-4.6-14.9c-1.7-9.7-1.5-19.7-3.7-29.4
			c-0.3-1.3-0.4-2.8,0-4c3.1-8.6,0-17.9,3.4-26.5c-0.8-9.4,2.9-17.4,7-25.5c2-3.8,3.9-7.8,4.6-12c0.7-3.9,1.8-6.9,4.7-9.5
			c3-2.7,5-6,6-10.1c1.2-4.6,3.5-8.6,8.1-10.8c2.2-1.1,3.4-3,4.3-5.3c1.3-3.5,3.6-6.3,6.4-8.7c5.4-4.8,8.9-11.6,15.3-15.3
			c0.6-0.3,1.1-0.9,1.4-1.4c3.8-6.9,11.4-10,16.1-15.9c14.4-10,28.7-20.1,44.2-28.3c1.8-0.9,3.5-2.2,5.4-2.5c4.4-0.8,8-3.1,11.8-5.1
			c3.6-1.8,7.2-3.3,11-4.4c3.5-1,7-2.1,10.1-4.1c3.8-2.4,7.9-3.4,12.4-2.9c3.8,0.4,7.3-0.6,10.5-2.5c9.3-5.8,19.4-8.3,30.4-7.2
			c3.3,0.3,6.5-0.1,9.6-1.8c8.6-4.9,18-6.1,27.7-6.3c7-0.1,14-0.2,21-0.2c69.7,0,139.3,0,209,0c6.6,0,13.2,0.1,19.8-1.3
			c6.6-1.4,8.5-3.2,6.6-9.2c-1-3-1.2-5.8-1.2-8.8c0-111.3,0-222.7,0-334c0-2.6,0.2-5.3,0.6-7.9c0.7-4.5-0.5-8.2-4-10.1
			c-2.6-1.4-5.3-2.5-8.5-2.4c-6.7,0.2-13.3,0.1-20,0.1c-63.3,0-126.7,0-190,0c-4,0-8.3-0.7-11.9,0.4c-5.3,1.6-10.5,1.4-15.8,1.4
			c-11.3,0.2-22.7,0.2-34,0.4c-2.3,0-4.7-0.1-7,0.3c-11.2,1.7-22.4,2.4-33.6-0.1c-1.9-0.4-4.2-0.6-5.9,0c-5.9,2.3-12.2,2.9-18.1,4.7
			c-9.5,3-19.2,5.2-29.2,4.8c-7.4-0.3-14.6,1.3-21.7,2.4c-4.1,0.7-8.5,1.1-12.3,3.4c-3.2,1.9-6.9,2.1-10.6,2.4
			c-8.9,0.8-17.7,1.8-26.3,4.8c-5.9,2.1-12,3.9-18.1,4.7c-6.3,0.8-12.3,2.1-18.4,3.8c-5.7,1.7-11.4,3.4-17.2,4.5
			c-6.8,1.3-13.5,2.9-20.1,5.1c-5.3,1.7-10.6,3.9-16,4.9c-6,1.1-11.5,2.7-16.8,5.6c-2.6,1.4-5.4,2.2-8.4,2.9
			c-4.1,1-8.6,1.1-12.3,3.6c-4.7,3.2-9.8,5.4-15.5,6.1c-1.6,0.2-3.2,1-4.6,1.8c-5.7,3.4-11.5,6.3-18,8c-2.2,0.6-4.2,2-6.2,3
			c-1.8,0.9-3.5,2.2-5.3,2.6c-5.6,1.3-10.6,4-15.4,6.9c-4.9,2.9-10.6,3.7-15.5,6.6c-8.8,5.2-18.6,8.4-27.5,13.6
			c-9.4,5.5-19.1,10.6-28.4,16.3c-5.1,3.1-10.3,6.3-15.6,8.6c-5,2.2-9.5,4.4-13.1,8.4c-0.4,0.5-0.9,1-1.5,1.3
			c-9.7,4.5-17.5,11.8-26.5,17.4c-8.1,5.1-15.6,11.2-23.4,16.7c-7.8,5.6-14.7,12.3-23.7,16.1c-2,0.9-3.4,3.1-5.1,4.8
			c-11.8,11.8-23.6,23.5-35.4,35.3C1205.7,271.7,1201.4,275.4,1195.8,277z M3895.8,912.9C3895.8,912.9,3895.8,912.9,3895.8,912.9
			c0-82.3,0-164.7,0-247c0-2.3,0.2-4.7-0.2-7c-0.9-6.1-3.8-8.6-9.9-8.7c-1.3,0-2.7,0-4,0c-59,0-118,0-177-0.1c-1.3,0-2.7,0-4,0
			c-4.8,0.3-8,3.2-8.4,8c-0.2,2-0.2,4-0.2,6c0,71,0,142,0,213c0,4-0.1,7.9,1.5,11.8c0.9,2.3,0.6,5.2,0.5,7.9c-0.1,3.1-3.1,6.4-6,7.2
			c-3.3,0.9-6.1-0.4-8.3-3.9c-1.6-2.5-2-6-4.7-7.5c-6.7-3.6-10-10.4-15.3-15.4c-3.9-3.6-7.5-7.6-11.3-11.3c-2.4-2.3-4.1-5.2-6.1-7.8
			c-2.2-2.8-5.7-4.4-8.4-6.8c-3-2.6-5.4-6-8.6-8.3c-7-5.1-13.2-11-18.3-18.1c-0.7-1-1.8-2-2.9-2.6c-3.6-1.9-6.2-5-9-7.8
			c-11.6-11.5-23.1-23.1-34.6-34.7c-4.9-5-10-9.8-14.8-14.9c-4.7-5.1-11-8.4-14.9-14.4c-1.7-2.6-5.3-4-7.6-6.3
			c-16.8-16.6-33.6-33.3-50.3-50.1c-3.7-3.7-8.1-7-10.4-12c-0.5-1.1-1.6-2.2-2.8-2.8c-8.6-4.6-14.1-13-21.9-18.7
			c-4.5-3.3-8.7-7-13.8-9.5c-4-1.9-7.5-3.7-12.1-1.4c-1.9,1-4.6,0.3-6.9,0.3c-58.7,0-117.3,0-176,0c-3,0-5.9,0-8.9-0.7
			c-6.4-1.6-11.5,1.7-14,7.7c-1.6,3.8-1.8,7.6-1.8,11.6c0,160,0,320,0,480c0,4,0.1,8-0.1,12c-0.3,8,8,17.2,18.3,14.3
			c3.7-1,7.1-1.3,10.8-1.3c48,0,96,0,144,0c3.3,0,6.5,0,9.8,1.2c6.3,2.2,14.3-0.4,17.9-10.1c0.4-1.2,0.7-2.9,0.1-3.8
			c-1.9-3.5-1.3-7.2-1.3-10.8c0-73,0-146,0-219c0-3.6-0.2-7.2,1.2-10.8c1.1-2.6,0.8-5.8-0.5-8.7c-1.6-3.5-1-7.2-0.9-10.8
			c0.2-4.9,5.1-7.8,10-6.6c5.4,1.4,9.8,4.1,12.3,9.1c1.7,3.5,4.3,6,7.5,7.8c2.1,1.2,3.7,2.7,5.4,4.4c5.4,5.4,10.7,11,16.3,16.2
			c8.1,7.4,15.2,15.8,24,22.5c3.6,2.7,7.1,5.9,9.4,10.2c1,2,3,3.7,4.9,4.9c3,1.7,5.2,3.9,6.9,6.9c1.3,2.2,3.2,4.4,5.4,5.8
			c5.4,3.5,9.5,8.3,14,12.7c7.2,7,14.4,13.9,21.3,21.1c7.1,7.4,15.4,13.6,21.9,21.5c0.8,1,2.1,1.5,3.2,2.4c1.5,1.2,3.4,2.3,4.5,3.9
			c5.4,7.7,12,14.1,19.5,19.7c2.1,1.6,4.1,3.6,5.5,5.8c2.3,3.8,5.2,6.7,9.1,8.9c3.8,2.2,4.5,7.5,8.6,9.4c2.9,1.3,4.8,3.5,6.8,5.7
			c5.2,5.5,12,9.3,16.2,15.9c0.7,1.1,1.9,1.9,3.1,2.5c2.2,1,3.6,2.7,4.9,4.7c1.4,2.2,3.5,4,5.2,6c7.1,8.3,17,13.8,23.1,23.1
			c0.7,1,2.1,1.6,3.1,2.4c1.3,1,3,1.8,3.7,3.1c3.9,6.8,10.3,11.3,15.7,16.6c4.8,4.7,11.8,5.7,17.9,8c1.4,0.5,3.6,0.5,4.9-0.2
			c4.1-2.1,8.5-1.4,12.7-1.4c49.7,0,99.3,0,149,0c2.7,0,5.3-0.1,8,0c2.7,0.1,4.4-1.3,5.7-3.4c1.9-3.2,2.2-6.8,2.2-10.5
			C3895.8,1077.6,3895.8,995.3,3895.8,912.9z M5646.9,300c0,82.7,0,165.3,0,248c0,1.7,0.2,3.3,0,5c-0.3,3,1.1,5.2,3.4,6.8
			c3,2.1,6.1,3.6,10.1,3.4c6-0.3,12-0.2,18-0.2c55,0,110,0,165,0.1c1.7,0,3.3,0.1,5,0c6.7-0.7,10.7-5,10.8-11.7c0-2,0-4,0-6
			c0-54.3-0.1-108.7-0.1-163c0-6.3,1.8-8.4,7.9-9.1c2-0.2,4,0,6-0.1c3-0.1,6.3,0.6,8.9-0.5c4.6-1.9,9.1-1.4,13.7-1.4
			c66.3,0,132.7,0.1,199-0.1c7,0,13.8,1.2,20.7,2.1c4.8,0.6,7.9,4.9,7.8,9.9c0,2-0.2,3.9-1.2,5.8c-1.3,2.5-1.3,5.5-0.2,7.7
			c1.9,3.9,1.4,7.8,1.4,11.7c0.1,45.7,0,91.3,0,137c0,2.3-0.1,4.7,0,7c0,1,0.1,2.2,0.7,2.8c2.5,2.5,4.5,5.2,8.5,6.4
			c4.6,1.4,9.1,1.5,13.7,1.5c60,0,120,0,180,0c2,0,4-0.1,6,0c1.8,0.1,3.2-0.5,4.5-1.7c1.4-1.4,2.8-2.9,4.3-4.2
			c1.9-1.7,2.7-3.7,2.4-6.2c-0.2-1.3,0-2.7,0-4c0-164.3,0-328.6,0-493c0-1.7-0.1-3.3,0-5c0.2-3.5-1.5-6.4-3.4-9.1
			c-1.7-2.3-4.3-2.7-6.8-3.7c-3-1.2-5.8-1.1-8.8-1.1c-58.7,0-117.3,0-176-0.1c-6,0-11.6,2.8-17.7,2c-0.5-0.1-1.3,0.4-1.8,0.8
			c-3.3,2.8-6.7,5.6-5.8,10.8c0.2,1.3,0,2.7,0,4c0,52,0,104,0.1,156c0,2,0.1,4,0,6c-0.2,3.8-2.4,6.1-6.3,6.3c-3,0.2-6,0.1-9,0.1
			c-79.7,0-159.3,0-239,0c-2,0-4,0-6-0.1c-2.1-0.2-3.5-1.8-3.7-3.9c-0.1-1-0.1-2-0.1-3c0.1-29.3,0.1-58.7,0.2-88
			c0-25.3-0.3-50.7,0.2-76c0.2-8.2-5-12-10-14.3c-2.6-1.2-5.3-0.5-7.9-0.5c-56.3,0-112.7,0-169,0c-4,0-8,0-12-0.1
			c-4.3-0.1-7.4,2.3-10.4,5c-2.8,2.5-3.3,5.5-3.2,9c0.1,1.7,0,3.3,0,5C5646.9,136,5646.9,218,5646.9,300z M2309.6,301.1
			C2309.6,301.1,2309.6,301.1,2309.6,301.1c0,82.3,0.1,164.6-0.1,246.9c0,6.3,1.4,7.1,6.7,9.5c2.2,1,4.6,0.9,6.9,0.9
			c6,0,12-0.1,18-0.1c52.3,0,104.6,0,157,0c3.7,0,7.3,0.1,11-0.1c4.1-0.3,7.3-3.9,7.6-7.8c0.1-1.3-0.1-2.7-0.1-4c0-55,0-110-0.1-165
			c0-4.8,1.5-8.2,5-11.2c3-2.5,6.3-1.8,9.5-1.8c80.3,0,160.6,0,240.9,0c2,0,4-0.2,6,0.1c8.2,1.2,10.4,4.2,11.5,11.3
			c0.3,1.6,0,3.3,0,5c0,51.3,0,102.6,0,154c0,4-0.1,8,0,12c0.1,5.7,2.1,7.6,7.9,7.7c9.7,0,19.3-0.1,29-0.1c51.3,0,102.6,0,154,0.2
			c4.5,0,8.5-1.3,12.6-2.5c2.6-0.8,4.3-3.9,3.2-6.5c-1.6-3.5-1.4-7.1-1.4-10.7c0-158,0-315.9,0-473.9c0-3.3-0.5-6.6,1.2-9.8
			c1-1.8,0.3-3.8-0.5-5.7c-3.4-7.5-9.5-10.8-17.6-8.7c-2.7,0.7-5.3,0.7-7.9,0.7c-54,0-108,0-162,0c-2.6,0-5.2,0-7.8-0.8
			c-5.6-1.7-9.8,1.2-10.5,6.9c-0.3,2.3-0.2,4.7-0.2,7c0,49.7,0.1,99.3,0.1,149c0,3,0.2,6-0.1,9c-0.6,5.3-3.1,9.1-8.2,11.6
			c-3.2,1.6-6.4,1.4-9.7,1.4c-79.6,0-159.3,0-238.9,0.1c-1.3,0-2.7,0.1-4,0c-7.9-0.4-12-4.8-12-12.6c0-52.7,0.1-105.3,0.2-158
			c0-1.3,0.1-2.7,0-4c-0.3-5.8-3.6-9.2-9.2-9.4c-3.3-0.1-6.7-0.1-10-0.1c-52.7,0-105.3,0.1-158,0c-4.3,0-8.4-0.1-12.8-1.3
			c-5.6-1.5-10.6,0.8-14.5,5.7c-2.4,3-2.5,5.9-2.5,9.3C2309.6,137.1,2309.6,219.1,2309.6,301.1z M3356.9,558.4c87.7,0,175.3,0,263,0
			c3,0,6,0.1,9-0.2c7.3-0.9,9.6-3.7,9.6-11.1c0-30,0-60,0-90c0-6.7,0.1-13.3,0-20c-0.1-5.5-1.6-7.2-7.1-7.3
			c-8.3-0.2-16.7-0.2-25-0.2c-95.7,0-191.3,0-287,0c-6.7,0-13.3,0.1-20,0c-4.2,0-7.8-1.3-10.7-4.4c-1.1-1.2-2.4-2.4-2.3-4.3
			c0.5-8.3-2.5-16.3-1.9-24.7c0.5-7.3,0-14.7,0.1-22c0-2.6-1-5.6,0.9-7.7c3.1-3.4,5.7-7.2,10.7-8.5c3.2-0.9,6.3-1.6,9.7-1.6
			c90.7,0.1,181.3,0.1,272,0.1c5.6,0,11.3-0.8,16.7,1.7c0.8,0.4,2,0.2,3,0.2c4.1,0.1,6.4-1.7,6.9-5.6c0.3-2.6,0.3-5.3,0.3-8
			c0-28.3,0-56.7,0-85c0-3.7,0.2-7.3,0.2-11c0-5.7-1.9-7.5-7.9-7.6c-4.3-0.1-8.7,0.1-13,0.1c-93.3,0-186.7,0.1-280,0.1
			c-2.7,0-5.3,0.1-8-0.2c-5.8-0.6-10.9-4.4-10.9-9.7c-0.1-6.7-1.9-13-2.4-19.6c-0.6-8.4,2-16.4,2.2-24.7c0.2-6.1,4.9-10,11.1-10.7
			c2.6-0.3,5.3-0.2,8-0.2c6,0,12,0.1,18,0.1c95,0,190,0,285,0c5,0,10,0.2,15,0.1c5.3-0.2,8.4-3.6,8.6-8.9c0-1.3,0-2.7,0-4
			c0-33,0-66,0-99c0-4,0-8,0.1-12c0.2-4.7-2.8-8.1-5.1-11.7c-0.5-0.8-2.4-1.1-3.6-1.1c-4.3-0.1-8.7,0-13,0c-166.3,0-332.7,0-499,0
			c-6.3,0-12.7-0.1-19,0c-6.5,0.1-11.2,4.8-11.4,11.2c-0.1,5.7,0.1,11.3,0.1,17c0,159.3,0,318.7,0,478c0,1.3-0.1,2.7,0,4
			c0.2,4.6,3.5,7.9,8.3,8.2c3.3,0.2,6.7,0.1,10,0.1C3184.2,558.4,3270.6,558.4,3356.9,558.4z M3981.9,911.7
			C3981.9,911.7,3981.9,911.7,3981.9,911.7c0,82.7,0,165.3,0,248c0,1.7-0.3,3.4,0.1,5c1.9,7.2,4.2,10,10.5,9.5
			c5.3-0.4,10.7-0.3,16-0.3c52.7,0,105.3,0,158,0c3.3,0,6.7,0.1,10-0.1c3.6-0.2,7-3.2,7.6-6.7c0.3-2.3,0.3-4.7,0.3-7
			c0-29.3,0-58.7-0.1-88c0-5.7,0.1-11.3,0-17c-0.1-3.9,1.2-7.4,3.8-10c4.9-4.8,10.5-8.9,14.7-14.5c0.2-0.2,0.6-0.4,0.8-0.6
			c6.6-5.5,13.3-10.9,19.8-16.4c2.5-2.1,5-4.3,7.6-6.4c5.1-4.2,10.2-8.7,14.2-14c2.5-3.4,5.3-5.8,8.9-7.5c7.9-3.7,15.1-1.9,19.7,5.6
			c1.2,2,2.5,3.9,4.1,5.5c4.1,3.9,8.5,7.5,11.1,12.7c6,3.8,9.4,9.9,13.5,15.4c3.5,4.7,7.5,9.3,12.2,12.9c5.2,4.1,7.7,9.9,11.5,14.8
			c1.4,1.8,3.3,3.3,4.9,5c1.4,1.4,3.2,2.7,4,4.4c2.5,5.3,7.5,8.4,10.9,12.9c3.3,4.4,4.9,10.2,10.6,12.7c0.5,0.2,1,1,1.2,1.6
			c3.2,9.2,12.7,13.5,16.6,22.1c7.3,5.3,11.1,14.1,18.9,18.9c1.1,0.7,1.8,2,2.5,3c4.8,6.7,9.9,13.3,15.7,19.2c2.8,2.8,5.3,5.8,7.7,9
			c6,8.1,13.9,12.5,24.6,12.4c67-0.2,134-0.1,201-0.1c2,0,4,0.1,6,0c4.4-0.3,6.9-4.7,4.9-8.7c-0.6-1.2-1.5-2.2-2.4-3.2
			c-3.1-3.4-7.2-5.9-7.9-11.1c-0.2-1.1-1.4-2.5-2.5-3c-8.6-3.8-11-14.1-19.4-18.1c-0.3-0.1-0.5-0.5-0.6-0.8c-2-5.1-5.3-9.1-10-11.9
			c-0.8-0.5-1.6-1.4-1.9-2.2c-1.8-4.1-5.3-6.7-8.3-9.8c-1.6-1.7-3.3-3.2-4.5-5.3c-5.2-9.4-13.2-16.5-20-24.6
			c-4.9-5.8-8.6-12.7-14.8-17.4c-1-0.7-1.3-2.2-1.9-3.4c-1.8-3.6-3.9-6.9-7.8-8.7c-1.2-0.5-2.4-1.5-3-2.6
			c-3.1-5.9-7.9-10.2-12.2-15.1c-2.6-3-5.1-6.1-7.9-8.9c-2.3-2.4-5.2-4.4-6.9-7.2c-4-6.6-10.1-11.3-14.5-17.6
			c-3.5-5.1-8.3-9.3-12.2-14.3c-4-5.2-9.4-9.4-11.8-15.8c-0.2-0.6-0.9-1-1.4-1.5c-4.1-3.9-7.9-8-11.1-12.7c-3-4.3-7.8-7.2-9.9-12.3
			c-0.4-0.9-1.2-1.7-2.1-2.1c-5.1-2-7.1-6.7-10-10.7c-1.2-1.6-2-3.6-3.9-4.4c-4-1.7-6.1-5-7.7-8.7c-1.1-2.5-2.8-4.5-4.7-6.3
			c-2.2-2.1-4.4-4.1-6.3-6.5c-7.4-9.3-14.6-18.8-23.2-27.2c-6.2-6-8.1-16.8,1.9-22.9c3.5-2.1,6.1-5,9-7.7c9-8.4,17.7-17.1,27.3-24.7
			c4.7-3.7,8.5-8.5,13.6-11.5c4.1-2.5,7.3-5.7,10.6-9c4.7-4.7,9-10,14.3-14c10.7-8,19.3-18.2,29.7-26.5c9.8-7.8,18.7-16.9,28-25.5
			c0.5-0.5,1-0.9,1.5-1.3c8.2-5.7,15.6-12.3,22.6-19.3c7.3-7.2,15.8-13.1,22.1-21.3c0.6-0.8,1.5-1.4,2.3-1.8
			c3.2-1.4,5.2-4.1,7.6-6.4c2-1.8,3.6-4.1,5.9-5.3c6.2-3.4,9.8-9.9,16.2-13.1c0.8-0.4,1.4-1.4,1.9-2.3c2.6-4.3-0.1-9.1-5.1-9.1
			c-1.7,0-3.6-0.3-4.9,0.5c-3.5,1.9-7.1,1.4-10.7,1.4c-55.7,0-111.3,0-167,0c-2.3,0-4.7-0.1-7,0c-3.7,0.3-6.9-2.8-10.7-1.7
			c-3.6,1.1-5.3,4.9-8.9,6.3c-2.7,1-5.3,2.6-7.5,4.8c-8.1,8.3-16.3,16.5-25.4,23.9c-8.2,6.6-15.5,14.5-23.5,21.5
			c-12.9,11.4-24.6,24.2-37.7,35.6c-13.5,11.7-26.2,24.5-39.3,36.7c-3.8,3.6-8.9,5.8-11.2,11c-0.2,0.6-0.9,0.9-1.5,1.3
			c-11.8,8.7-21,20.2-32.4,29.4c-9.5,7.7-18.1,16.5-27.1,24.9c-0.5,0.5-1,1-1.5,1.3c-3.8,2-7.7,1.8-11.5,0.2c-1-0.4-2.1-1.9-2.3-3.1
			c-0.4-2.3-0.2-4.6-0.2-7c0-49,0-98,0.1-147c0-9,0.1-18,0-27c0-2.6-0.1-5.2-1.5-7.7c-1.2-2.3-2.7-3.6-5.4-3.5c-3.3,0.1-6.7,0-10,0
			c-52,0-104,0-156,0c-5.3,0-10.6,0.7-15.7-1.5c-2-0.9-4.8-1-6.8,0.3c-3.5,2.4-7.2,5-7,10.2c0.1,2,0,4,0,6
			C3981.9,748.4,3981.9,830.1,3981.9,911.7z M4359.3,558.3C4359.3,558.4,4359.3,558.4,4359.3,558.3c27.7,0.1,55.3,0.1,83,0.1
			c3.7,0,7.3-0.1,11-0.3c2.1-0.1,3.3-2,2.9-4.3c-0.3-1.3-0.5-2.7-1.3-3.6c-1.8-2.1-2.7-4.5-3.3-7.1c-1.1-4.6-3.3-8.6-7.1-11.7
			c-2.6-2.1-4.4-4.6-4.6-8.4c-0.2-4-2.7-7.4-5.7-10.2c-2.2-2.1-4.3-4.2-5.1-7.3c-1.6-6.6-5.2-12.1-8.9-17.6c-2-3-3.6-6.1-5-9.6
			c-1.8-4.6-4.3-9-6.8-13.2c-2.7-4.5-6.4-8.3-6.8-14c-0.1-1.8-1.5-3.7-2.5-5.4c-3.9-6.1-8.1-11.9-9.8-19.1c-0.4-1.7-2.3-3.3-3.7-4.6
			c-3.6-3.2-6.2-7.6-6.8-11.9c-0.6-4.9-2.8-8.1-6.2-10.8c-3-2.5-4.5-5.5-5.4-9.2c-1.2-5.2-3.3-10.1-7.7-13.6c-2.1-1.7-3-4.1-3.9-6.7
			c-1.3-3.7-2.5-7.7-5.5-10.5c-4.2-4-6.7-8.8-8.2-14.4c-0.8-3.1-2.6-6.1-4.7-8.6c-4-4.7-5.9-10.4-8.5-15.7c-1.2-2.3-2.2-4.7-3.4-7
			c-2.8-5.5-7.4-10.3-8.6-16.6c-1-5.1-3.4-9.2-7.2-12.7c-1.7-1.6-3.6-3.3-3.3-5.9c0.6-5-2.2-8.1-5.5-11.1c-3.5-3.2-6.1-6.8-6.6-11.8
			c-0.4-4.1-2.6-7.5-5.7-10.2c-3.1-2.7-5.3-6-6.3-9.9c-1-4.3-3.5-7.7-6.3-11.1c-2.8-3.5-5.9-7-6.1-12.1c-0.1-2.8-1.9-5.8-4.3-7.7
			c-3.9-3-5.5-7.3-7.1-11.6c-0.8-2.2-1.6-4.5-3-6.2c-3.7-4.4-5.7-9.7-8.4-14.6c-3.6-6.7-6.4-13.8-10.9-20c-1.9-2.6-3-5.9-4-9
			c-1.2-3.9-2.7-7.8-5.3-10.6c-3.6-3.8-5.3-8.3-6.7-13c-0.9-2.9-1.6-5.8-4.4-7.5c-3.5-2-4.9-5.4-5.8-8.9c-1.4-5.6-3.6-10.6-8.3-14.2
			c-2.4-1.9-3.8-4.3-4-7.7c-0.2-4.1-2.6-7.5-5.7-10.2c-2.6-2.2-4.7-4.9-5.5-8.1c-1.5-6.3-5.6-11.1-8.7-16.5
			c-3.9-6.8-8.7-9.6-16.2-8.5c-1.3,0.2-2.7,0-4,0c-56.7,0-113.3,0-170,0c-13.8,0-13.7,0-23,10.1c-1.9,2.1-3,4.1-3.4,7
			c-0.6,4.3-2.4,8.8-5.7,11.3c-4.1,3.1-5.8,7-7,11.5c-1,3.9-2.5,7.4-5.7,10.1c-3.3,2.9-5,6.7-5.7,11.2c-0.7,4.5-2.8,8.8-6.2,12.2
			c-1.9,1.9-2.8,4.2-3.8,6.7c-2.4,6.1-5.3,12.2-8.8,17.8c-2.3,3.7-4.4,7.4-6.3,11.2c-2.3,4.7-3.8,9.7-7.6,13.7
			c-2.4,2.5-3.7,6.3-4.7,9.8c-1.2,4.3-3.3,8-6.6,10.9c-2.9,2.5-4.5,5.8-5.4,9.3c-1.2,4.3-3.1,8-6.5,10.9c-3.1,2.7-5.2,6.1-5.6,10.2
			c-0.4,5-2.9,8.8-6.9,11.5c-3,2-4.7,4.7-5,8.1c-0.4,4.6-2.5,8.1-5.6,11.3c-1.1,1.2-2.1,2.6-2.8,4.1c-3.7,8.8-8.1,17.3-12.9,25.5
			c-0.5,0.8-0.5,1.9-0.9,2.8c-1.4,3.3-2.4,7-4.5,9.9c-4.6,6.2-7.5,13.3-10.9,20c-4.6,9.1-11.8,16.8-15,26.7c-0.3,0.9-1.2,1.6-2,2.2
			c-3.6,3.2-5.6,7.6-6.8,12c-1.3,4.8-3.6,8.5-7.1,11.7c-2,1.9-3,4.1-3.8,6.7c-1.3,4-2.6,8.3-6,11.3c-3.4,3-5.3,7-6.6,11
			c-1.7,5.2-3.8,9.8-8,13.4c-1,0.9-2.1,1.9-2.4,3.1c-2.4,7.5-4.7,15.1-10.4,20.9c-1.3,5.9-4.3,11.2-7.4,16.2
			c-6.7,10.6-10.5,22.7-18.1,32.9c-1.3,1.7-2.2,4-2.8,6.3c-1,4.2-3,8.2-5.9,11.3c-3.1,3.2-5.2,6.9-6.6,11c-1.4,4.2-3.3,7.9-6.7,10.7
			c-2.6,2.2-3.7,5.4-4.7,8.6c-0.8,2.9-1.5,5.9-3.8,7.9c-4.5,3.9-6.5,9.1-8,14.6c-0.8,3-2.2,5.5-3.4,8.2c-1,2.4-0.2,5.3,2.1,5.5
			c4.8,0.4,9.2,3.9,14.4,1.3c2.2-1.1,5.2-0.5,7.9-0.5c49,0,98,0,147,0c3.6,0,7.3-0.6,10.8,1.2c1,0.5,2.8,0.5,3.8,0
			c8.2-3.9,15.6-8.5,17.5-18.5c0.6-3.2,2-6.4,3.9-9c3.9-5.5,6.8-11.3,8.8-17.6c2.7-8.2,8.2-13.2,16.7-15.3c2.6-0.6,5.2-1,7.8-1
			c8,0,16,0,24,0c81.7,0,163.3,0,245-0.2c5.5,0,10.5,1.2,15.3,3.4c5.3,2.4,9.5,5.5,10.3,12.2c0.5,4.5,2.9,8.8,6.4,12.1
			c1.9,1.9,3,4.1,3.8,6.7c2.2,7.3,6.7,13.6,10.9,20c2,3,4.8,5.4,8.5,6.7c1.6,0.6,3.3,1.3,4.8,0.6c4.5-2.1,9.2-1.3,13.8-1.3
			C4302.7,558.3,4331,558.3,4359.3,558.3z M5130.4,371.1C5130.4,371.1,5130.4,371.1,5130.4,371.1c-0.1,58.7-0.1,117.3-0.1,176
			c0,1.7-0.2,3.3,0,5c0.1,1.3,0.4,2.7,1.2,3.7c3.3,4.2,7.7,6.9,13,5.4c3.3-1,6.5-1.3,9.8-1.3c53.3,0,106.7,0,160,0
			c2.3,0,4.9-0.4,6.9,0.6c4.5,2.1,8.5,0.4,12.5-0.8c7.3-2.3,8.2-3.7,8.2-11.4c0-0.7,0-1.3,0-2c0-116.6,0-233.3-0.1-349.9
			c0-1.3-0.1-2.7,0-4c0.8-8.5,6.4-13.4,13.9-14.4c2.6-0.4,5.3-0.1,8-0.1c64,0,128,0.1,192,0.1c3.7,0,7.4,0.1,11-0.3
			c6.8-0.8,9-3.5,9-10.5c0-0.3,0-0.7,0-1c0-37.3,0-74.7,0-112c0-1.7,0.3-3.4-0.1-5c-1.2-4.1-2.3-8-7.7-9.2c-3.2-0.7-6.3-1.6-9.7-1.6
			c-7,0-14,0-21,0c-198.6,0-397.3,0-595.9,0c-6.3,0-12.7,0-19,0c-2.6,0-5.2,0-7.9-0.8c-6.7-1.9-11.1,1.1-11.9,7.7
			c-0.3,2.3-0.2,4.7-0.2,7c0,39-0.1,78-0.1,117c0,1,0,2,0,3c0,2.6,1.5,4.3,3.6,5.5c2.7,1.5,5.8,2.7,8.6,1.5
			c4.2-1.9,8.5-1.3,12.8-1.3c26.7-0.1,53.3,0,80,0c34,0,68,0,102,0c4.6,0,9.2,0,13.7,1.8c2.7,1,4.3,2.6,5.8,5
			c2.1,3.4,1.8,7,1.8,10.6C5130.4,253.8,5130.4,312.4,5130.4,371.1z M2579.4,1170.8C2579.4,1170.7,2579.4,1170.7,2579.4,1170.8
			c80.3-0.1,160.6-0.1,241-0.1c5,0,10,0,15,0.2c3,0.1,5-1.1,7-3c2.5-2.4,2.4-5.2,2.4-8.3c-0.1-35.3-0.1-70.7-0.1-106c0-2-0.1-4,0-6
			c0.1-2.2-1-3.7-2.3-5.3c-3-3.7-7.3-3.7-11-2.5c-3.3,1.1-6.5,1.3-9.8,1.3c-96.7,0-193.3,0-290,0.1c-3.8,0-7.1-1-10.7-1.9
			c-2.2-0.6-3.3-1.8-4.5-3.6c-2.2-3.3-1.8-7-1.8-10.6c0-119.7,0.1-239.3,0.1-359c0-1.7,0.1-3.3-0.1-5c-0.4-3.7-2.7-5.9-6.6-6
			c-4.7-0.2-9.3-0.1-14-0.1c-51.7,0-103.3,0-155,0c-4.3,0-8.5,0.6-12.7-1.5c-1.9-0.9-4.5-0.5-6.8,0.5c-6.7,3-8.5,5.7-8.5,13.9
			c0,163.6,0,327.3,0,490.9c0,1.3,0,2.7,0,4c0,2.2,1.2,3.8,3,4.9c3.4,2.2,7.1,3,11.3,3C2410.1,1170.7,2494.8,1170.8,2579.4,1170.8z
			 M4774.4,556.9C4774.4,556.9,4774.4,556.8,4774.4,556.9c82.3,0,164.6,0,246.9,0c5.7,0,11.3,0.2,17,0.1c4.4-0.1,6.4-2.5,6.4-7.1
			c0-1.7,0.2-3.5-0.5-4.9c-1.5-3.2-1.1-6.5-1.1-9.8c0-24-0.1-48,0-72c0-6.6-0.7-13.2,1.3-19.8c0.8-2.4,0.3-5.3,0.2-8
			c-0.2-4-2.1-6.1-6.3-6.2c-4.3-0.1-8.6-0.2-12.9,1c-1.9,0.5-4.2,1.1-5.8,0.4c-4.2-1.7-8.6-1.1-12.8-1.1
			c-86.3-0.1-172.6-0.1-258.9,0c-4.6,0-9.3-0.8-13.8,1.2c-1.1,0.5-2.8,0.5-3.9,0c-4.5-1.8-9.2-1.2-13.8-1.5
			c-7.7-0.5-11.4-4.2-11.5-11.8c0-1.3,0-2.7,0-4c0-116.6,0-233.2,0-349.8c0-4,0.1-8,0-12c0-1.6-0.2-3.3-0.7-4.9
			c-1.4-4.7-4.6-7-8.9-5.2c-3.6,1.4-7.1,1.5-10.7,1.5c-53.3,0-106.6,0-159.9,0c-3.3,0-6.5,0.3-9.7-1.4c-2.1-1.2-4.5-0.3-6.4,1.5
			c-2.3,2.1-3.7,4.6-3.6,7.9c0.2,5.7,0.1,11.3,0.1,17c0,159.6,0,319.2,0,478.8c0,1.3-0.1,2.7,0,4c0.3,3.8,2.4,6.1,6.4,6.2
			c5.3,0.1,10.7-0.1,16-0.1C4609.8,556.9,4692.1,556.9,4774.4,556.9z M3134.9,915C3134.9,915,3134.9,915,3134.9,915
			c0-82,0-164,0-245.9c0-1.3,0-2.7,0-4c-0.3-9.4-4.1-14.1-13.1-17.2c-3.3-1.2-6.5-0.9-9.8-0.9c-59.3,0-118.6,0-178,0c-2,0-4,0-6,0
			c-3.5,0.1-6.2,1.9-8.8,4c-2,1.6-1.8,4-2.5,6.2c-1.4,4.2-1.6,8.4-1.6,12.7c0,162.3,0,324.6,0,486.9c0,1.7-0.2,3.4,0,5
			c0.8,5.2,2.2,10.2,6.7,13.8c3.6,2.8,7.6,3.4,12,3.4c55.3-0.1,110.6-0.1,166-0.1c4.3,0,8.7,0,13,0c5.1,0,9.8-1.8,13.9-4.4
			c5.4-3.4,8.5-8.1,8.4-15.5C3134.8,1077.7,3134.9,996.3,3134.9,915z"/>
		<path class="st1" d="M3895.8,912.9c0,82.3,0,164.7,0.1,247c0,3.7-0.3,7.3-2.2,10.5c-1.3,2.1-3,3.5-5.7,3.4c-2.7-0.1-5.3,0-8,0
			c-49.7,0-99.3,0-149,0c-4.3,0-8.6-0.7-12.7,1.4c-1.3,0.7-3.5,0.7-4.9,0.2c-6.1-2.3-13.1-3.3-17.9-8c-5.4-5.3-11.8-9.8-15.7-16.6
			c-0.8-1.3-2.4-2.1-3.7-3.1c-1-0.8-2.4-1.4-3.1-2.4c-6.1-9.3-16-14.8-23.1-23.1c-1.7-2-3.8-3.8-5.2-6c-1.3-2.1-2.6-3.7-4.9-4.7
			c-1.2-0.5-2.4-1.4-3.1-2.5c-4.2-6.6-11.1-10.3-16.2-15.9c-2-2.2-4-4.4-6.8-5.7c-4.2-1.9-4.8-7.2-8.6-9.4c-3.9-2.2-6.8-5.1-9.1-8.9
			c-1.3-2.2-3.4-4.2-5.5-5.8c-7.5-5.6-14.1-12-19.5-19.7c-1.1-1.6-2.9-2.6-4.5-3.9c-1-0.8-2.3-1.4-3.2-2.4
			c-6.6-7.9-14.8-14.1-21.9-21.5c-6.9-7.2-14.1-14.2-21.3-21.1c-4.5-4.4-8.6-9.2-14-12.7c-2.2-1.4-4.1-3.6-5.4-5.8
			c-1.8-3-3.9-5.1-6.9-6.9c-1.9-1.1-3.8-2.9-4.9-4.9c-2.3-4.3-5.8-7.4-9.4-10.2c-8.8-6.7-15.9-15.1-24-22.5
			c-5.7-5.2-10.9-10.8-16.3-16.2c-1.6-1.6-3.3-3.2-5.4-4.4c-3.2-1.8-5.8-4.3-7.5-7.8c-2.5-5-7-7.7-12.3-9.1c-4.9-1.3-9.7,1.6-10,6.6
			c-0.2,3.6-0.7,7.4,0.9,10.8c1.3,2.9,1.5,6.1,0.5,8.7c-1.5,3.6-1.2,7.2-1.2,10.8c0,73,0,146,0,219c0,3.6-0.6,7.3,1.3,10.8
			c0.5,1,0.3,2.7-0.1,3.8c-3.6,9.7-11.6,12.3-17.9,10.1c-3.3-1.2-6.5-1.2-9.8-1.2c-48,0-96,0-144,0c-3.6,0-7.1,0.2-10.8,1.3
			c-10.3,2.9-18.6-6.3-18.3-14.3c0.2-4,0.1-8,0.1-12c0-160,0-320,0-480c0-4,0.2-7.8,1.8-11.6c2.5-6,7.6-9.3,14-7.7
			c3,0.7,5.9,0.7,8.9,0.7c58.7,0,117.3,0,176,0c2.3,0,5.1,0.6,6.9-0.3c4.6-2.4,8.2-0.6,12.1,1.4c5.1,2.5,9.3,6.1,13.8,9.5
			c7.8,5.7,13.3,14,21.9,18.7c1.1,0.6,2.2,1.7,2.8,2.8c2.3,5,6.6,8.3,10.4,12c16.7,16.8,33.5,33.5,50.3,50.1
			c2.3,2.3,5.9,3.7,7.6,6.3c3.9,6,10.2,9.3,14.9,14.4c4.7,5.1,9.8,10,14.8,14.9c11.5,11.6,23,23.1,34.6,34.7c2.8,2.8,5.4,5.9,9,7.8
			c1.1,0.6,2.2,1.6,2.9,2.6c5,7.1,11.3,12.9,18.3,18.1c3.2,2.3,5.6,5.7,8.6,8.3c2.7,2.4,6.2,4.1,8.4,6.8c2,2.6,3.7,5.4,6.1,7.8
			c3.8,3.7,7.4,7.7,11.3,11.3c5.3,4.9,8.6,11.7,15.3,15.4c2.7,1.5,3.1,5,4.7,7.5c2.2,3.5,5,4.9,8.3,3.9c2.9-0.8,5.9-4.1,6-7.2
			c0.1-2.6,0.5-5.6-0.5-7.9c-1.6-3.9-1.5-7.8-1.5-11.8c0-71,0-142,0-213c0-2,0-4,0.2-6c0.4-4.8,3.5-7.7,8.4-8c1.3-0.1,2.7,0,4,0
			c59,0,118,0,177,0.1c1.3,0,2.7,0,4,0c6.1,0.1,9,2.6,9.9,8.7c0.3,2.3,0.2,4.7,0.2,7C3895.8,748.3,3895.8,830.6,3895.8,912.9
			C3895.8,912.9,3895.8,912.9,3895.8,912.9z"/>
		<path class="st1" d="M5646.9,300c0-82,0-164,0-246c0-1.7,0.1-3.3,0-5c-0.2-3.4,0.3-6.4,3.2-9c3.1-2.7,6.1-5.1,10.4-5
			c4,0.1,8,0.1,12,0.1c56.3,0,112.7,0,169,0c2.6,0,5.3-0.7,7.9,0.5c5,2.3,10.1,6,10,14.3c-0.5,25.3-0.2,50.7-0.2,76
			c0,29.3-0.1,58.7-0.2,88c0,1,0,2,0.1,3c0.2,2.2,1.6,3.8,3.7,3.9c2,0.2,4,0.1,6,0.1c79.7,0,159.3,0,239,0c3,0,6,0.1,9-0.1
			c3.9-0.3,6.1-2.5,6.3-6.3c0.1-2,0-4,0-6c0-52,0-104-0.1-156c0-1.3,0.2-2.7,0-4c-0.9-5.2,2.5-7.9,5.8-10.8c0.5-0.4,1.2-0.9,1.8-0.8
			c6.1,0.9,11.6-2,17.7-2c58.7,0.1,117.3,0.1,176,0.1c2.9,0,5.8-0.1,8.8,1.1c2.4,1,5.1,1.3,6.8,3.7c1.9,2.7,3.6,5.5,3.4,9.1
			c-0.1,1.7,0,3.3,0,5c0,164.3,0,328.6,0,493c0,1.3-0.1,2.7,0,4c0.3,2.5-0.6,4.5-2.4,6.2c-1.5,1.3-2.9,2.8-4.3,4.2
			c-1.2,1.2-2.7,1.8-4.5,1.7c-2-0.1-4,0-6,0c-60,0-120,0-180,0c-4.6,0-9.1-0.2-13.7-1.5c-4-1.2-6-3.9-8.5-6.4
			c-0.6-0.6-0.7-1.8-0.7-2.8c-0.1-2.3,0-4.7,0-7c0-45.7,0-91.3,0-137c0-3.9,0.6-7.8-1.4-11.7c-1.1-2.2-1.1-5.3,0.2-7.7
			c1-1.9,1.2-3.8,1.2-5.8c0.1-5-3-9.3-7.8-9.9c-6.9-0.9-13.6-2.1-20.7-2.1c-66.3,0.2-132.7,0.1-199,0.1c-4.6,0-9.2-0.4-13.7,1.4
			c-2.6,1.1-5.9,0.4-8.9,0.5c-2,0.1-4-0.1-6,0.1c-6,0.7-7.9,2.8-7.9,9.1c0,54.3,0.1,108.7,0.1,163c0,2,0,4,0,6
			c-0.1,6.7-4.1,11-10.8,11.7c-1.6,0.2-3.3,0-5,0c-55,0-110-0.1-165-0.1c-6,0-12-0.1-18,0.2c-3.9,0.2-7.1-1.3-10.1-3.4
			c-2.2-1.6-3.7-3.7-3.4-6.8c0.2-1.6,0-3.3,0-5C5646.9,465.3,5646.9,382.7,5646.9,300z"/>
		<path class="st1" d="M2309.6,301.1c0-82,0-164,0-245.9c0-3.3,0.1-6.3,2.5-9.3c3.9-4.9,9-7.2,14.5-5.7c4.3,1.2,8.5,1.3,12.8,1.3
			c52.7,0,105.3,0,158,0c3.3,0,6.7-0.1,10,0.1c5.7,0.2,9,3.6,9.2,9.4c0.1,1.3,0,2.7,0,4c-0.1,52.7-0.1,105.3-0.2,158
			c0,7.8,4.2,12.1,12,12.6c1.3,0.1,2.7,0,4,0c79.6,0,159.3,0,238.9-0.1c3.3,0,6.5,0.2,9.7-1.4c5-2.4,7.6-6.3,8.2-11.6
			c0.3-3,0.1-6,0.1-9c0-49.7-0.1-99.3-0.1-149c0-2.3,0-4.7,0.2-7c0.7-5.7,4.8-8.6,10.5-6.9c2.7,0.8,5.2,0.8,7.8,0.8
			c54,0,108,0.1,162,0c2.6,0,5.2,0,7.9-0.7c8.1-2.1,14.2,1.2,17.6,8.7c0.9,1.9,1.5,3.9,0.5,5.7c-1.7,3.2-1.2,6.5-1.2,9.8
			c0,158,0,315.9,0,473.9c0,3.6-0.2,7.2,1.4,10.7c1.1,2.5-0.6,5.7-3.2,6.5c-4.1,1.2-8.1,2.5-12.6,2.5c-51.3-0.2-102.6-0.2-154-0.2
			c-9.7,0-19.3,0.2-29,0.1c-5.8,0-7.8-1.9-7.9-7.7c-0.1-4,0-8,0-12c0-51.3,0-102.6,0-154c0-1.7,0.2-3.4,0-5
			c-1.1-7.1-3.3-10.1-11.5-11.3c-2-0.3-4-0.1-6-0.1c-80.3,0-160.6,0-240.9,0c-3.2,0-6.6-0.8-9.5,1.8c-3.6,3-5,6.4-5,11.2
			c0.2,55,0.1,110,0.1,165c0,1.3,0.1,2.7,0.1,4c-0.2,4-3.5,7.6-7.6,7.8c-3.6,0.3-7.3,0.1-11,0.1c-52.3,0-104.6,0-157,0
			c-6,0-12,0.1-18,0.1c-2.3,0-4.6,0.2-6.9-0.9c-5.2-2.4-6.7-3.2-6.7-9.5C2309.6,465.7,2309.6,383.4,2309.6,301.1
			C2309.6,301.1,2309.6,301.1,2309.6,301.1z"/>
		<path class="st1" d="M3356.9,558.4c-86.3,0-172.7,0-259,0c-3.3,0-6.7,0.1-10-0.1c-4.8-0.3-8-3.6-8.3-8.2c-0.1-1.3,0-2.7,0-4
			c0-159.3,0-318.7,0-478c0-5.7-0.2-11.3-0.1-17c0.1-6.5,4.8-11.1,11.4-11.2c6.3-0.1,12.7,0,19,0c166.3,0,332.7,0,499,0
			c4.3,0,8.7-0.1,13,0c1.3,0,3.1,0.3,3.6,1.1c2.2,3.6,5.2,7,5.1,11.7c-0.1,4-0.1,8-0.1,12c0,33,0,66,0,99c0,1.3,0.1,2.7,0,4
			c-0.2,5.3-3.3,8.7-8.6,8.9c-5,0.2-10-0.1-15-0.1c-95,0-190,0-285,0c-6,0-12-0.1-18-0.1c-2.7,0-5.3-0.1-8,0.2
			c-6.3,0.7-11,4.6-11.1,10.7c-0.2,8.3-2.8,16.3-2.2,24.7c0.4,6.6,2.3,12.9,2.4,19.6c0,5.4,5.1,9.1,10.9,9.7c2.6,0.3,5.3,0.2,8,0.2
			c93.3,0,186.7,0,280-0.1c4.3,0,8.7-0.1,13-0.1c6,0.1,7.9,1.9,7.9,7.6c0,3.7-0.2,7.3-0.2,11c0,28.3,0,56.7,0,85c0,2.7,0,5.3-0.3,8
			c-0.5,3.9-2.8,5.6-6.9,5.6c-1,0-2.1,0.2-3-0.2c-5.4-2.5-11.1-1.7-16.7-1.7c-90.7-0.1-181.3-0.1-272-0.1c-3.4,0-6.4,0.7-9.7,1.6
			c-5,1.3-7.6,5.1-10.7,8.5c-2,2.2-0.9,5.1-0.9,7.7c-0.1,7.3,0.4,14.7-0.1,22c-0.5,8.4,2.5,16.4,1.9,24.7c-0.1,1.8,1.2,3,2.3,4.3
			c2.9,3.1,6.6,4.4,10.7,4.4c6.7,0,13.3,0,20,0c95.7,0,191.3,0,287,0c8.3,0,16.7,0,25,0.2c5.5,0.2,7,1.8,7.1,7.3
			c0.1,6.7,0,13.3,0,20c0,30,0,60,0,90c0,7.4-2.3,10.2-9.6,11.1c-3,0.4-6,0.2-9,0.2C3532.2,558.4,3444.6,558.4,3356.9,558.4z"/>
		<path class="st1" d="M3981.9,911.7c0-81.7,0-163.3,0-245c0-2,0.1-4,0-6c-0.2-5.1,3.4-7.7,7-10.2c2-1.4,4.8-1.2,6.8-0.3
			c5.2,2.2,10.5,1.5,15.7,1.5c52,0,104,0,156,0c3.3,0,6.7,0.1,10,0c2.7-0.1,4.1,1.1,5.4,3.5c1.3,2.5,1.5,5.1,1.5,7.7c0,9,0,18,0,27
			c0,49-0.1,98-0.1,147c0,2.3-0.2,4.7,0.2,7c0.2,1.1,1.2,2.6,2.3,3.1c3.8,1.6,7.7,1.8,11.5-0.2c0.6-0.3,1.1-0.8,1.5-1.3
			c9-8.3,17.6-17.2,27.1-24.9c11.4-9.2,20.7-20.6,32.4-29.4c0.5-0.4,1.2-0.8,1.5-1.3c2.3-5.2,7.3-7.5,11.2-11
			c13.2-12.2,25.8-25,39.3-36.7c13.1-11.4,24.8-24.2,37.7-35.6c8-7.1,15.2-14.9,23.5-21.5c9.1-7.3,17.3-15.5,25.4-23.9
			c2.2-2.2,4.7-3.8,7.5-4.8c3.6-1.4,5.3-5.2,8.9-6.3c3.8-1.1,6.9,1.9,10.7,1.7c2.3-0.2,4.7,0,7,0c55.7,0,111.3,0,167,0
			c3.6,0,7.3,0.6,10.7-1.4c1.3-0.7,3.3-0.5,4.9-0.5c5,0,7.7,4.8,5.1,9.1c-0.5,0.8-1.1,1.8-1.9,2.3c-6.3,3.2-10,9.7-16.2,13.1
			c-2.3,1.2-3.9,3.5-5.9,5.3c-2.4,2.2-4.4,5-7.6,6.4c-0.9,0.4-1.8,1-2.3,1.8c-6.3,8.2-14.8,14.1-22.1,21.3c-7,7-14.5,13.6-22.6,19.3
			c-0.5,0.4-1,0.9-1.5,1.3c-9.3,8.5-18.1,17.6-28,25.5c-10.4,8.3-19,18.5-29.7,26.5c-5.3,4-9.5,9.3-14.3,14c-3.3,3.2-6.5,6.5-10.6,9
			c-5.1,3-8.9,7.8-13.6,11.5c-9.6,7.7-18.3,16.4-27.3,24.7c-2.9,2.7-5.5,5.6-9,7.7c-10,6-8,16.9-1.9,22.9
			c8.6,8.3,15.8,17.8,23.2,27.2c1.9,2.3,4.1,4.4,6.3,6.5c1.9,1.9,3.6,3.9,4.7,6.3c1.7,3.7,3.7,7,7.7,8.7c1.8,0.8,2.7,2.8,3.9,4.4
			c2.8,4,4.9,8.7,10,10.7c0.9,0.3,1.7,1.2,2.1,2.1c2.2,5.1,6.9,8,9.9,12.3c3.3,4.7,7,8.8,11.1,12.7c0.5,0.5,1.1,0.9,1.4,1.5
			c2.4,6.5,7.7,10.6,11.8,15.8c3.9,5,8.7,9.2,12.2,14.3c4.4,6.3,10.5,11,14.5,17.6c1.7,2.8,4.5,4.8,6.9,7.2c2.8,2.8,5.3,5.9,7.9,8.9
			c4.3,4.9,9.2,9.2,12.2,15.1c0.6,1.1,1.8,2.1,3,2.6c3.9,1.8,6,5.1,7.8,8.7c0.6,1.2,1,2.7,1.9,3.4c6.2,4.8,9.9,11.6,14.8,17.4
			c6.8,8.1,14.8,15.3,20,24.6c1.2,2.1,2.9,3.6,4.5,5.3c3,3.1,6.5,5.7,8.3,9.8c0.4,0.9,1.1,1.8,1.9,2.2c4.7,2.8,8,6.8,10,11.9
			c0.1,0.3,0.3,0.6,0.6,0.8c8.4,4,10.8,14.3,19.4,18.1c1.1,0.5,2.4,1.8,2.5,3c0.7,5.2,4.9,7.7,7.9,11.1c0.9,1,1.8,2,2.4,3.2
			c2,4-0.5,8.4-4.9,8.7c-2,0.1-4,0-6,0c-67,0-134-0.1-201,0.1c-10.7,0-18.6-4.3-24.6-12.4c-2.4-3.2-4.9-6.2-7.7-9
			c-5.8-5.9-10.9-12.4-15.7-19.2c-0.8-1.1-1.5-2.4-2.5-3c-7.7-4.9-11.5-13.7-18.9-18.9c-3.9-8.6-13.4-12.9-16.6-22.1
			c-0.2-0.6-0.7-1.3-1.2-1.6c-5.7-2.4-7.3-8.3-10.6-12.7c-3.4-4.5-8.4-7.5-10.9-12.9c-0.8-1.7-2.6-3-4-4.4c-1.6-1.7-3.5-3.2-4.9-5
			c-3.8-4.9-6.2-10.7-11.5-14.8c-4.6-3.6-8.6-8.2-12.2-12.9c-4.1-5.5-7.5-11.6-13.5-15.4c-2.6-5.2-7-8.8-11.1-12.7
			c-1.7-1.6-2.9-3.5-4.1-5.5c-4.6-7.5-11.8-9.3-19.7-5.6c-3.6,1.7-6.4,4.1-8.9,7.5c-3.9,5.3-9,9.8-14.2,14c-2.6,2.1-5.1,4.2-7.6,6.4
			c-6.6,5.5-13.2,11-19.8,16.4c-0.3,0.2-0.6,0.3-0.8,0.6c-4.2,5.5-9.8,9.6-14.7,14.5c-2.6,2.6-3.9,6.1-3.8,10c0.1,5.7,0,11.3,0,17
			c0,29.3,0,58.7,0.1,88c0,2.3,0.1,4.7-0.3,7c-0.5,3.6-3.9,6.5-7.6,6.7c-3.3,0.2-6.7,0.1-10,0.1c-52.7,0-105.3,0-158,0
			c-5.3,0-10.7-0.1-16,0.3c-6.2,0.5-8.5-2.3-10.5-9.5c-0.4-1.6-0.1-3.3-0.1-5C3981.8,1077,3981.8,994.4,3981.9,911.7
			C3981.9,911.7,3981.9,911.7,3981.9,911.7z"/>
		<path class="st1" d="M4359.3,558.3c-28.3,0-56.7,0-85,0c-4.6,0-9.3-0.8-13.8,1.3c-1.5,0.7-3.2,0-4.8-0.6c-3.6-1.3-6.4-3.7-8.5-6.7
			c-4.2-6.3-8.7-12.6-10.9-20c-0.8-2.7-1.8-4.8-3.8-6.7c-3.4-3.4-5.8-7.6-6.4-12.1c-0.8-6.7-5-9.8-10.3-12.2
			c-4.8-2.2-9.8-3.4-15.3-3.4c-81.7,0.2-163.3,0.1-245,0.2c-8,0-16-0.1-24,0c-2.6,0-5.2,0.4-7.8,1c-8.5,2-14.1,7.1-16.7,15.3
			c-2.1,6.3-5,12.1-8.8,17.6c-1.9,2.6-3.3,5.9-3.9,9c-1.9,10.1-9.3,14.6-17.5,18.5c-1.1,0.5-2.8,0.5-3.8,0
			c-3.5-1.8-7.2-1.2-10.8-1.2c-49,0-98,0-147,0c-2.7,0-5.7-0.6-7.9,0.5c-5.3,2.5-9.7-1-14.4-1.3c-2.3-0.2-3.1-3.1-2.1-5.5
			c1.2-2.7,2.6-5.3,3.4-8.2c1.4-5.4,3.5-10.7,8-14.6c2.4-2,3-5.1,3.8-7.9c0.9-3.2,2-6.4,4.7-8.6c3.5-2.9,5.3-6.6,6.7-10.7
			c1.4-4.1,3.5-7.8,6.6-11c3-3.1,4.9-7.1,5.9-11.3c0.6-2.4,1.5-4.6,2.8-6.3c7.6-10.1,11.4-22.3,18.1-32.9c3.1-5,6.1-10.3,7.4-16.2
			c5.7-5.8,8-13.4,10.4-20.9c0.4-1.2,1.4-2.3,2.4-3.1c4.2-3.6,6.3-8.2,8-13.4c1.3-4,3.1-8,6.6-11c3.4-3,4.7-7.3,6-11.3
			c0.9-2.6,1.8-4.9,3.8-6.7c3.5-3.2,5.8-6.9,7.1-11.7c1.2-4.4,3.2-8.7,6.8-12c0.7-0.7,1.7-1.4,2-2.2c3.2-9.9,10.4-17.6,15-26.7
			c3.4-6.8,6.3-13.9,10.9-20c2.1-2.8,3.1-6.5,4.5-9.9c0.4-0.9,0.4-2,0.9-2.8c4.8-8.3,9.2-16.7,12.9-25.5c0.6-1.5,1.6-2.9,2.8-4.1
			c3.1-3.2,5.2-6.7,5.6-11.3c0.3-3.4,2-6.1,5-8.1c4-2.7,6.5-6.5,6.9-11.5c0.4-4.2,2.5-7.5,5.6-10.2c3.4-2.9,5.3-6.6,6.5-10.9
			c1-3.5,2.6-6.8,5.4-9.3c3.3-2.9,5.4-6.5,6.6-10.9c1-3.4,2.3-7.2,4.7-9.8c3.8-4,5.2-9,7.6-13.7c1.9-3.8,4-7.6,6.3-11.2
			c3.5-5.5,6.4-11.6,8.8-17.8c1-2.5,1.9-4.8,3.8-6.7c3.4-3.4,5.5-7.7,6.2-12.2c0.7-4.5,2.4-8.3,5.7-11.2c3.2-2.8,4.7-6.2,5.7-10.1
			c1.2-4.5,2.9-8.4,7-11.5c3.3-2.5,5.1-7,5.7-11.3c0.4-2.8,1.5-4.9,3.4-7c9.3-10.1,9.2-10.1,23-10.1c56.7,0,113.3,0,170,0
			c1.3,0,2.7,0.2,4,0c7.5-1.1,12.3,1.7,16.2,8.5c3.1,5.4,7.2,10.2,8.7,16.5c0.8,3.2,2.9,5.9,5.5,8.1c3.1,2.7,5.5,6.1,5.7,10.2
			c0.2,3.4,1.6,5.8,4,7.7c4.7,3.7,6.9,8.6,8.3,14.2c0.9,3.6,2.3,6.9,5.8,8.9c2.8,1.6,3.5,4.6,4.4,7.5c1.4,4.7,3.1,9.1,6.7,13
			c2.6,2.8,4.1,6.7,5.3,10.6c1,3.1,2.1,6.4,4,9c4.5,6.2,7.3,13.3,10.9,20c2.6,5,4.7,10.2,8.4,14.6c1.4,1.7,2.2,4.1,3,6.2
			c1.6,4.3,3.2,8.6,7.1,11.6c2.4,1.9,4.1,4.8,4.3,7.7c0.2,5.2,3.3,8.7,6.1,12.1c2.8,3.4,5.2,6.8,6.3,11.1c1,4,3.1,7.2,6.3,9.9
			c3.1,2.7,5.3,6.1,5.7,10.2c0.5,5,3,8.6,6.6,11.8c3.3,3,6.1,6.1,5.5,11.1c-0.3,2.6,1.6,4.3,3.3,5.9c3.8,3.5,6.2,7.6,7.2,12.7
			c1.2,6.3,5.7,11.1,8.6,16.6c1.2,2.3,2.3,4.7,3.4,7c2.6,5.3,4.5,11,8.5,15.7c2.1,2.4,3.9,5.5,4.7,8.6c1.5,5.6,4,10.4,8.2,14.4
			c2.9,2.8,4.2,6.8,5.5,10.5c0.9,2.6,1.7,5,3.9,6.7c4.3,3.6,6.4,8.4,7.7,13.6c0.9,3.7,2.4,6.7,5.4,9.2c3.3,2.8,5.6,5.9,6.2,10.8
			c0.5,4.4,3.2,8.7,6.8,11.9c1.5,1.3,3.3,2.8,3.7,4.6c1.6,7.3,5.9,13.1,9.8,19.1c1.1,1.7,2.4,3.5,2.5,5.4c0.4,5.7,4.1,9.6,6.8,14
			c2.6,4.2,5.1,8.6,6.8,13.2c1.3,3.4,3,6.6,5,9.6c3.7,5.5,7.3,11,8.9,17.6c0.8,3,2.9,5.2,5.1,7.3c3,2.8,5.5,6.2,5.7,10.2
			c0.2,3.9,2.1,6.3,4.6,8.4c3.8,3.1,5.9,7.1,7.1,11.7c0.6,2.6,1.5,5,3.3,7.1c0.8,0.9,1.1,2.4,1.3,3.6c0.4,2.3-0.8,4.2-2.9,4.3
			c-3.7,0.2-7.3,0.3-11,0.3C4414.7,558.4,4387,558.4,4359.3,558.3C4359.3,558.4,4359.3,558.4,4359.3,558.3z M4068.3,374.4
			C4068.3,374.3,4068.3,374.3,4068.3,374.4c19.6-0.1,39.3-0.1,58.9-0.1c4.7,0,9.3,0,14-0.4c3.7-0.3,5.8-3.6,4.9-7.2
			c-0.2-0.9-0.6-1.9-1.1-2.7c-1.6-2.9-2.8-5.9-3.6-9.2c-1-4.2-2.8-8.1-6.4-10.9c-3.3-2.5-4.9-6.1-5.9-10c-0.8-3.1-1.6-6.4-4.5-8.6
			c-3.7-3-5.7-7.1-6.9-11.8c-1.1-4.4-2.7-8.8-6.7-11.8c-2.7-2-4.4-5.2-4.7-8.5c-0.6-5.6-3.4-9.9-6.4-14.3c-2.5-3.6-4.3-7.4-5.8-11.5
			c-0.5-1.2-0.7-2.6-1.4-3.6c-6.5-10-11.4-20.7-14.6-32.3c-1.5-5.5-4.5-7-9.6-4.9c-7.9,3.3-14.8,7.6-16.4,17
			c-0.8,4.8-3,8.7-6.7,11.9c-2.1,1.8-3.2,4-3.9,6.8c-1.5,6.2-4.6,11.6-9.2,16.1c-1.8,1.7-2.5,3.7-2.7,6.2c-0.4,4.1-2.4,7.6-5.4,10.3
			c-3.5,3.2-5.4,7.2-6.9,11.8c-1.3,3.9-2.9,7.8-5.9,11.3c-2.7,3-5.1,6.6-6.2,11c-1.1,4.4-3.5,8.6-6.1,12.4
			c-4.5,6.6-7.2,13.9-10.4,21.1c-2.7,6.1,0.7,11.1,7.6,11.7c3,0.3,6,0.2,9,0.2C4026.4,374.4,4047.3,374.4,4068.3,374.4z"/>
		<path class="st1" d="M1196.7,952.6c-1.3,0-2.7,0-4,0c-3,0-5,1.3-6.1,4.1c-1.4,3.5-3.7,6.2-7.3,7.7c-0.6,0.2-1.5,0.5-1.7,0.9
			c-3.2,7.2-11.3,9.1-15.7,14.9c-7.7,4.2-12.8,11.4-19.9,16.3c-5.7,3.9-10.2,9.4-15.8,13.5c-2.9,2.1-5.4,4.8-8.8,6.3
			c-1.6,0.7-3.3,1.3-3.9,2.9c-1.5,3.8-4.7,5.5-8.1,6.9c-1.9,0.8-3.5,1.8-4.8,3.4c-2.6,3.2-6.3,4.8-9.4,7.1
			c-6.1,4.6-13,7.8-19.4,11.8c-2.2,1.4-4.4,2.9-6.8,4.1c-3.2,1.7-6.6,3.1-9.2,5.7c-1.4,1.4-3.2,2.4-5,3.1c-4.1,1.5-7.9,3.3-10.8,6.7
			c-1.3,1.5-3.1,2.5-5.2,2.7c-0.9,0.1-1.8,0.8-2.7,1.1c-4,1.1-5.8,5.7-9.8,6.6c-3.7,0.8-6.8,2.4-9.6,4.8c-1.7,1.5-3.9,2.6-6.1,3.3
			c-5.1,1.7-9.8,3.8-13.4,8.1c-1.6,1.9-4.1,2.1-6.4,2.2c-3.5,0-6.8,1.2-8.9,3.7c-3.3,4-7.9,4.9-12.3,5.8c-3.2,0.6-5.7,1.6-7.7,3.9
			c-1.9,2.1-4.5,3.7-6.9,3.8c-5.6,0.3-9.7,4-14.6,5.4c-12.4,3.6-24.1,8.9-36.3,12.9c-3.1,1-6.4,1.6-9.3,3.2
			c-5.6,3-11.1,5.6-17.8,5.7c-3.3,0.1-7,2.2-9.9,4.3c-5.1,3.7-10.7,5-16.8,5.1c-1.7,0-3.3,0.3-5,0.2c-2.4-0.1-4.6,0.4-6.3,2.3
			c-4.4,4.9-10.1,6-16.3,5.7c-5.8-0.3-11.3,1.1-16.2,4c-6.8,4-14.2,5.4-21.8,5.6c-6.8,0.2-13,1.9-19.1,4.7c-1.5,0.7-3,1.6-4.6,1.8
			c-7.6,0.8-15.2,1.5-22.8,1.9c-8.3,0.5-16.4,1.4-24,5c-2.2,1.1-4.5,1-6.8,1c-10.6-0.1-21.1,2.8-31.7,2.2c-8.4,2.7-17.1,1.3-25.7,2
			c-7.2,0.6-14.4,1.8-21.5,2.7c-1.3,0.2-2.6,0.8-3.8,0.9c-6.7,0.2-13.3,0.5-20,0.2c-6.4-0.2-12.4,1.8-18.7,1.8
			c-87-0.1-174,0.1-260.9,0.1c-88,0-176-0.2-263.9-0.3c-6,0-12,0.3-18,0.3c-6,0-9.3-3.2-9.7-8.9c-0.1-2-0.1-4-0.1-6
			c0-373.9,0-747.8,0-1121.8c0-4-0.1-8-0.2-12c-0.1-2.7,1.3-4.1,3.6-5.3c2.2-1.2,4.4-1.4,6.7-1.4c5.7,0.1,11.3,0.1,17,0.1
			c175.6,0,351.3,0,526.9,0c9.7,0,19.4-0.7,29,0.5c8.6,1,17.2,1,25.8,1.2c1.7,0,3.5,0.5,5-0.1c6.1-2.6,11.8-0.3,17.3,1.4
			c13.9,4.5,28,7.6,42.7,6.9c11.5-0.5,22.4,1.7,32.7,6.7c1.9,0.9,3.8,1.2,5.8,1.2c3.3,0.1,6.7,0.3,10,0.3c7.7,0.1,15.1,1.5,21.9,5.4
			c4.6,2.6,10,3.5,15.2,3.9c8,0.6,15.7,1.1,22.8,5.7c2.9,1.8,6.9,2.2,10.5,2.6c9,0.8,17.4,3.3,25.8,6.7c3.9,1.6,8.1,2.9,12.3,3.3
			c6.1,0.7,11.6,2.6,16.9,5.5c3.3,1.7,6.6,2.7,10.4,2.9c4.9,0.3,9.9,1.3,13.6,5.2c1.7,1.8,3.7,2.6,6.1,2.8c2.9,0.3,5.8,1.3,8.8,1.6
			c2.4,0.3,4.5,1,6.2,2.8c3.6,3.9,8,5.8,13.3,5.4c2.9-0.2,5.1,1,7,3c2.7,3,5.7,4.9,10.1,5.5c4,0.6,8.3,2,11.4,5.6
			c1.9,2.3,4.9,3.5,7.9,3.7c3.2,0.2,6.1,1.3,8.2,3.2c3.9,3.5,8.8,4.7,13.3,6.3c3.8,1.4,7.4,2.6,10.6,5.2c1.5,1.2,3.4,2,5.2,2.8
			c0.9,0.4,1.9,0.4,2.9,0.8c4.5,1.5,6.8,6.4,11.6,7.4c4.7,1,8.6,3.2,12.1,6.5c1.6,1.6,3.8,2.6,5.9,3.6c3.7,1.6,7.2,3.3,10,6.3
			c0.8,0.9,2.2,1.6,3.4,1.9c4,1,7.3,3,10.2,5.9c0.9,0.9,2,1.8,3.2,2.2c5.7,1.9,10.6,4.9,15.6,8.3c4.9,3.3,10.1,6.4,14.9,9.8
			c10.6,7.4,20.8,15.2,30.9,23.3c11.9,9.5,23.1,19.8,34.5,30c7.4,6.6,14.7,13.4,21.9,20.3c2,1.9,4,3.5,6.9,3.6
			c1.5,0.1,2.3,1.1,2.8,2.4c0.3,2.1-0.2,3.9-1.8,5.4c-2.6,2.6-5.1,5.2-7.6,7.9c-4.1,4.3-8.1,8.6-11.9,13.2
			c-4.7,5.8-9.7,11.6-15.5,16.5c-1.4-0.2-2.7-0.9-3.2-2.2c-1.7-4.2-5.2-6.8-8.2-9.9c-1.6-1.6-3.5-3.2-4.7-5.2
			c-1.4-2.4-3-4.1-5.4-5.5c-2.2-1.3-4-3.5-5.9-5.3c-7.8-7.7-15.5-15.6-23.5-23.1c-4.6-4.3-9.1-8.9-14.5-12.1
			c-7.4-4.5-14-9.9-21.1-14.7c-10-6.9-18.8-15.7-29.8-21.2c-1.1-0.6-2-1.8-2.9-2.7c-2.1-2.1-4.4-3.9-7.1-5.4
			c-6-3.4-12.2-6.8-17.5-11.2c-8.7-7.3-18.5-12.8-28.6-17.7c-6.8-3.3-13.1-7.7-20.3-10.2c-1.8-0.6-3.4-2-5-3.2
			c-1.3-1-2.7-1.8-4.4-2.2c-4.5-1.3-8.7-3.3-12.3-6.3c-2.3-1.9-5-3.5-8.1-3.5c-4.5-0.1-8.4-1.4-11.8-4.4c-1-0.9-2.3-1.5-3.5-1.8
			c-10.3-2.7-19.5-8.2-29.4-11.6c-3.8-1.3-7.3-2.9-11-4.6c-3.8-1.8-8-3.3-12.2-3.9c-4.4-0.7-8.2-2.3-12.1-4.3
			c-5.1-2.5-10.3-4.6-16.1-4.2c-3.1,0.2-5.9-0.6-8.6-2.1c-8.5-4.8-17.7-7.3-27.4-7.9c-2.1-0.1-4-0.6-5.6-1.8
			c-5.3-4.3-11.4-5-17.8-4.5c-4.8,0.4-9.1-1.3-13.4-3.1c-2.1-0.9-4.3-1.8-6.3-2.9c-5.1-2.8-10.5-3.9-16.2-3.7c-4,0.2-8,0-12,0
			c-1.7,0-3.5,0.1-4.7-1.2c-5.7-5.5-13.4-5.6-20.3-6.7c-12.4-2-25-2-37.4-4.3c-5.5-1-11.2-1.3-16.6-2.4c-10.1-2-20.2-3.2-30.5-3.3
			c-5.3,0-10.7-0.3-16-0.1c-7.3,0.2-14.5-1.3-21.8-1.7c-13.3-0.6-26.7-0.4-40-0.4c-144.3,0-288.6,0-433,0c-5,0-10-0.2-15-0.1
			c-7.5,0.1-12.1,4.9-12.1,12.6c0,2.3-0.3,4.9,0.6,6.9c1.7,3.6,1.3,7.1,1.4,10.8c0.1,5,0,10,0,15c0,334.3,0,668.6,0,1002.9
			c0,5-0.3,10-0.2,15c0.1,6.5,3.4,9.8,9.8,9.9c6,0.1,12-0.2,18-0.2c152,0,304,0,455.9,0c7,0,14,0,21-0.1c2.3,0,4.8,0.2,6.9-0.7
			c2.9-1.2,5.8-1.1,8.8-1.3c3.9-0.2,8,0.7,11.7-1.7c8.6-0.1,16.9-3.4,25.7-2.1c0.3,0,0.7,0,1,0c13,0.3,26,0.5,38.6-2.5
			c10.3-2.5,20.8-3.2,31.1-5.2c4.8-0.9,9.7-1.7,14.6-2.4c10.4-1.5,20.7-3.6,30.9-6.3c3.2-0.8,6.4-1.5,9.7-2
			c7.8-1.2,15.7-2.2,22.9-5.9c2.7-1.4,5.6-1.8,8.6-2.2c6.5-0.9,13-1.8,18.8-5.5c4.2-2.6,9.1-4.1,14.1-4.1c4.2,0,7.9-1.2,11.1-3.8
			c3.5-2.8,7.7-4.1,11.9-4.3c6.4-0.3,11.2-4.1,16.5-6.5c5.4-2.5,11.9-1.6,16.7-5.9c0.5-0.4,1-0.9,1.6-1.2c2.4-1.1,4.7-2.1,7.4-2.7
			c6.5-1.3,12.7-3.5,18.2-7.6c1.3-1,2.6-2,4.4-2.2c10.5-1,18.6-8.4,28.5-11c10.7-6.5,21.7-12.6,33.2-17.6c1.2-0.5,2.2-1.5,3.1-2.4
			c3.2-3.5,6.8-6.2,11.7-7.1c1.9-0.3,3.9-1.3,5.4-2.5c6.2-5.1,14.5-6.8,20-12.9c12.7-7.1,24.4-15.8,36.4-24.1
			c10.7-7.3,20.2-16.1,30.6-23.6c7-5,13.4-10.7,20.1-16.2c5.9-4.9,10.5-11.2,17.1-15.2c4.3-7.3,10.9-12.6,16.9-18.2
			c6.3-5.9,10.6-12.6,12.2-21c1.6-1.2,3.4-2.1,4.7-3.5c1.3-1.4,1.7-4.1,3.2-4.8c4.9-2.3,7-6.5,9.1-11c0.6-1.4,2-2.6,3.3-3.7
			c5.5-4.5,9-10.2,10.8-17c0.2-0.9,1.1-1.6,1.6-2.4c1.3-0.1,2.8,0,3.9-0.4c9.3-3.7,12.2-6.5,17.5-16.5c2.2-4.1,3.8-8.5,6.3-12.4
			c4.5-6.9,8.8-13.9,11.7-21.6c0.8-2.1,1.9-4.4,3.5-5.9c4-3.6,5.4-8.3,6.1-13.2c0.7-4.8,2.8-9.1,5.9-12.3c3.7-3.9,5.4-8.5,5.9-13.3
			c0.7-6.7,3.6-11.9,7.7-16.8c1-1.2,2.3-2.8,2.4-4.2c0.3-4.3,2.3-8.2,2.3-12.7c0-6.4,2-12.4,5.9-17.5c2.3-3.1,3.5-6.7,3.7-10
			c0.4-6,2.4-11.8,2.2-17.7c-0.4-7.4,1.6-14.5,2.7-21.6c1.9-11.7,3.8-23.4,3.6-35.3c-0.2-11.6-0.3-23.3,0-34.9
			c0.3-8.4-1.8-16.4-2.9-24.5c-0.9-6.8-1.8-13.7-3-20.5c-1-5.8-1-11.8-2.1-17.7c-1.4-7.8-3.1-15.6-8.2-21.9c-1.6-2-2-4.1-2-6.5
			c0-1.7,0-3.3-0.2-5c-0.5-6.3-1.5-12.3-5.7-17.5c-3.8-4.7-6.1-10.1-7-16.1c-0.9-5.9-2.7-11.6-7.5-15.8c-1.4-1.2-1.3-3-1.9-4.5
			c-2.6-6.7-3.5-14.2-9.4-19.2c-0.2-0.2-0.3-0.6-0.4-0.9c-3.1-9.9-9.6-17.9-14.3-26.9c-1.5-2.9-3-5.9-4.6-8.8
			c-4.1-7.7-9.1-14.5-17.5-18c-1.2-5.8,1-11.2,4.3-15.3c4.1-5,8.3-10.1,12.6-15c3.2-3.7,7-6.8,9.5-11.2c1.5-2.7,4.5-4.7,7-6.9
			c1.2-1,2.5-0.1,3.7,0.3c2.9,5.3,6.9,9.7,11.3,13.7c1.4,1.3,2.8,2.9,3.6,4.7c4.1,8.6,12.8,14.2,15.5,23.9c0.5,1.7,2.7,2.8,4.1,4.3
			c1.5,1.7,3.3,3.4,4.3,5.4c2.5,5.1,4.7,10.2,8.9,14.2c0.8,0.8,0.9,2.4,1.4,3.6c1.3,3,2.1,6.5,4.1,9c5.4,6.6,7.4,14.7,11,22.1
			c1.9,3.8,2.9,8.1,4.9,11.8c3.8,7,6.7,14.3,8.9,21.9c1.1,3.8,2.8,7.4,4.5,11c2.9,5.9,5.8,12.1,6.2,18.6c0.6,8.9,3.6,16.7,8.7,23.8
			c2.6,3.7,3.6,7.6,3.5,12.1c-0.1,8.6,0.1,17.1,1.6,25.7c1.8,10.4,4.2,20.5,6.7,30.7c0.8,3.2,1.6,6.3,1.6,9.6
			c0,15.6-0.1,31.3,0.1,46.9c0.1,6.4-0.4,12.5-2.9,18.4c-0.8,1.9-1.1,3.8-1.1,5.8c0,3-0.5,5.9-1.8,8.6c-1,2-1.9,4.4-2,6.6
			c-0.4,9.9-3.6,19.6-2.4,29.6c0.8,6.7-1.4,12.4-5,17.7c-4,5.9-5.8,12.5-6.8,19.3c-1,6.9-2.3,13.5-5.7,19.8c-2.5,4.6-4.5,9.6-6,14.6
			c-1.7,6.1-4.2,11.8-6.8,17.5c-1,2.1-2.3,4.1-3.1,6.2c-3.6,9.2-6.7,18.6-12.4,26.8c-0.8,1.1-1.5,2.2-1.9,3.5
			c-2.4,6.9-4.8,13.8-10.9,18.5c-0.2,0.2-0.5,0.5-0.5,0.8c-1.9,8-7.3,13.8-11.9,20.2c-3.2,4.6-6,9.5-10.1,13.3c-1,0.9-2,1.9-2.4,3.1
			c-1.7,4.9-5.1,8.5-8.8,11.9c-3.3,3-6.1,6.1-6,11c0,0.6-1.4,1.3-2.1,1.9c-4.2,0.1-7.6,1.1-9.1,5.8c-1.2,3.4-3.7,6.1-6.4,8.6
			c-2.1,2-4.6,4-6,6.5c-1.7,3-4.1,4.8-6.8,6.8C1200.1,941.4,1196,945.8,1196.7,952.6z"/>
		<path class="st2" d="M1196.7,952.6c-0.6-6.7,3.4-11.2,8.1-14.8c2.6-2,5-3.8,6.8-6.8c1.4-2.5,3.9-4.4,6-6.5
			c2.7-2.5,5.2-5.2,6.4-8.6c1.5-4.6,5-5.7,9.1-5.8c1.3,4.8,2.9,9.1,8.1,11.7c6.3,3,8.3,11.1,14.9,14.1c1.1,0.5,2,1.9,2.4,3.1
			c0.6,1.6,1.4,3.2,3,3.8c4.3,1.7,6.8,5.3,9.7,8.4c8.1,8.9,17.7,16,26.6,24c3.4,3,7.3,5.6,10.6,8.8c2,1.9,5,1.2,7.1,3.3
			c3.7,3.7,6.8,8.3,12.6,9c3.5,4,8.5,6.4,12.2,10c5.6,5.3,12.7,8.1,18.6,13c3.3,2.7,8.2,3.2,11,6.6c3.2,3.8,8.3,3.8,11.9,6.9
			c4.6,4.1,9.9,7.6,16.3,8.5c0.9,0.1,2,0.7,2.5,1.5c2.6,3.4,6.4,4.6,10.2,5.7c4.1,1.1,6,5.2,9.7,6.8c3.9,1.7,8.5,2.5,11.7,5.2
			c4.2,3.5,8.7,5.6,14,6.8c1.9,0.4,4,1.3,5.3,2.6c2.7,2.8,6.4,3.5,9.7,4.7c5,1.8,9.9,3.6,14.3,6.7c4.7,3.2,10.9,2.4,15.7,5.4
			c0.5,0.3,1.4,0.3,1.8,0.7c4.3,4.3,10.1,4.7,15.5,5.6c4,0.7,7.8,1.6,10.9,4.3c3.1,2.8,6.8,4,10.9,3.9c4.5,0,8.7,1.2,11.7,4.7
			c2.5,2.8,5.5,3.4,8.9,3.4c6.4,0.1,12.5,1.6,17.7,5.4c3.9,2.9,8.2,4.2,12.9,4.2c6.5,0,12.5,1.5,18,4.8c4.1,2.5,8.4,3.8,13.2,3.5
			c2.6-0.1,5.2,0.4,7.8,1c4.9,1.1,9.3,3.4,14,4.6c5.1,1.2,10.1,3.4,15.6,2.5c11.5,3,23.4,3.3,34.8,6.9c5.1,1.6,10.8,2.8,16.5,2.8
			c12.9,0.1,25.7,3.2,38.7,2.3c5.4,1.9,11.3,0.7,16.6,2.3c6.4,1.9,13,1.8,19.4,3c7.4,1.4,15.3,0.9,22.9,0.5c8-0.4,15.8,1.7,23.7,1.7
			c56,0,112,0.1,168,0.1c1.7,0,3.3,0.1,5-0.1c10.5-0.8,16.9-7.6,17.1-18c0-1.7,0-3.3,0-5c0-80,0-160,0-240c0-5.3,0.1-10.7,0-16
			c-0.1-5.6-1.6-6.9-6.9-9.3c-5.6-2.5-11.8-1-17.4-3.6c-0.8-0.4-2.1-0.3-2.9,0.1c-4.4,2.3-9.1,1.5-13.7,1.5c-37,0.1-74-0.1-111,0.2
			c-9,0.1-17.7-2.6-26.7-2.1c-0.6,0-1.4-0.1-1.9-0.5c-2.7-1.7-5.8-1.2-8.7-1.3c-9.2-0.4-18.4,0-27.7-1.6c-11.7-2-23.8-1.9-35.7-2.3
			c-4.4-0.2-8.5-0.3-12-3.6c-1.5-1.5-4.3-1.6-6.3-2.6c-5.3-2.6-11.1-1.8-16.6-1.9c-3.8-0.1-7.5-0.9-10.1-3.5
			c-3.3-3.4-7.1-4.3-11.5-4.9c-2.9-0.4-5.7-1.5-8.7-1.7c-1.3-0.1-3-0.4-3.6-1.3c-3.5-4.8-9.3-4.6-14.1-6.5c-2.1-0.9-4.7-1.1-6.5-2.4
			c-4.3-3.2-8.7-5.8-14.2-6.4c-2.1-0.2-4.2-1.9-6.1-3.2c-3.8-2.8-7.8-4.9-12.3-6.3c-7.4-2.2-12.3-8.9-19.9-10.7
			c-0.3-0.1-0.6-0.4-0.7-0.7c-1.3-3.7-4.5-4.3-7.7-5.5c-2.4-0.9-5.3-1.9-6.4-4.5c-0.9-2.1-2.6-3.1-4.4-3.7c-3.4-1.1-5.6-3.4-7.9-5.9
			c-4.1-4.6-10.3-7.1-13.2-13c-0.5-1-2.1-1.5-3.2-2.3c-1.6-1.2-3.6-2.2-4.5-3.8c-2.9-5.4-7.6-9.2-11.7-13.5
			c-1.6-1.7-3.6-3.1-3.8-5.7c-0.2-3.1-2.2-5.1-4.6-6.1c-4.1-1.8-6.4-5.1-7.2-8.9c-0.7-3.3-2.4-5.3-4.5-7.4c-1.4-1.4-2.8-2.8-4.3-4.2
			c-2.2-2.1-3.8-4.5-3.7-7.8c0.2-4.6-1.6-8.3-5.9-10.6c-3.9-2.1-5.1-5.9-5.8-9.9c-0.3-2-0.3-4-0.3-6c-0.2-6.1-1.7-11.6-6.5-15.9
			c-3.7-3.2-5.2-7.5-5.2-12.4c0-26.7,0-53.3-0.1-80c0-3.9,0.8-7.2,3.9-9.8c2-1.7,3.4-3.9,4.8-6.2c3.2-5.2,3.4-10.7,3.2-16.3
			c-0.2-4.5,1.3-8.1,5.1-10.1c4.7-2.4,6.7-6,6.8-11.1c0-2.4,0.4-4.9,2.3-6.4c5.3-3.9,7.7-9.7,10.7-15.1c2.2-3.9,5.6-6.3,8.6-9.3
			c2.9-2.9,4.2-7.4,6.4-11.1c0.6-1.1,1.7-2.2,2.9-2.7c2.8-1.3,5-3.1,6.1-6.1c0.4-1.2,1.6-2.1,2.6-3c4.1-3.7,8.6-6.9,11.9-11.5
			c1.6-2.3,4.6-3.6,7-5.4c6.9-5.1,12.7-11.6,20.7-15.2c0.9-0.4,1.7-1.1,2.3-1.9c4.8-6,13.6-6.9,17.5-14c0.4-0.7,1.7-1.1,2.6-1.2
			c1.7-0.3,3.2-1,4.4-2.2c3.4-3.4,7.4-5.5,12.1-6.5c1.6-0.4,3.5-1,4.4-2.2c3.3-4.5,8.3-5,13-6.4c1.3-0.4,2.7-0.4,3.8-1
			c4.1-2.2,7.8-5.3,12.1-6.7c4.6-1.6,9.9-1.3,14.3-3.5c5.1-2.6,10.5-4,15.9-5.4c10.5-2.8,21.2-4.6,31.5-8.4c2.9-1.1,5.7-1.7,8.7-1.7
			c7.7,0,15-1.5,22.4-3.5c4.8-1.3,9.7-2.1,14.6-2.5c9-0.6,18-1,27-1c55.3-0.1,110.7,0,166,0c6.6,0,13.2,0.1,19.8-1.5
			c7.1-1.7,10.3-4.8,10.4-12c0-1.3,0-2.7,0-4c0-81,0-162,0.1-243c0-5.3,0-10.7-0.1-16c-0.2-8.7-4-13.7-12.3-15.5
			c-5.1-1.1-10.2-2.3-15.6-2c-8.3,0.4-16.7,0.1-25,0.1c-22,0-44-0.1-66,0c-22.2,0.2-44.5-1.1-66.7,1.8c-7.8,1-15.9-0.5-23.7,1.7
			c-17.6-0.4-35.1,2.9-52.8,2.2c-4-0.2-8,0.1-12,0.2c-1.7,0-3.4-0.2-5,0.2c-7.9,2.1-16.2,2.8-23.9,5.9c-2.5,1-5,1.6-7.7,1.7
			c-9.3,0.3-18.5-0.2-27.7,1.8c-3.8,0.8-7.7,0.2-11,3.5c-1.7,1.7-4.6,2.3-7.3,2.9c-6.6,1.5-13.2,1.6-19.8,1.8
			c-4.7,0.1-9.2,1.2-12.9,4.1c-4.2,3.3-8.8,4.4-14,4c-1.7-0.1-3.3,0-5,0.1c-5.1,0.1-9.7,1.3-13.8,4.4c-3.6,2.7-7.7,3.6-12.2,3.6
			c-7,0-13.6,1.4-19.6,5.4c-2.1,1.4-4.7,2.2-7.4,2.5c-7.8,1.1-15.6,2.3-22.6,6.5c-3.7,2.2-7.8,3.2-12.2,3.9c-3.4,0.5-7,1.4-10,3.9
			c-3.3,2.7-7.3,5.1-11.6,5.4c-5.3,0.4-9.3,2.5-13.5,5.4c-3.2,2.2-7.2,3.2-11,4.5c-1.9,0.6-4,0.6-5.3,2.4c-3.1,4-7.8,4.7-12.3,5.8
			c-1.9,0.5-4,0.2-5.5,2c-3.2,3.7-7.3,5.5-12,6.6c-2.2,0.5-4.5,1.7-6,3.4c-3.6,4-8.4,5-13.3,6.1c-1.6,0.4-3.3,0.4-4.5,1.7
			c-3.2,3.6-7.2,5.7-11.9,6.7c-1.9,0.4-4,1.3-5.3,2.7c-5.5,6-14.7,6.3-19.7,12.9c-4.6,1.4-8.1,4.3-11.4,7.8c-0.9,0.9-2.2,2-3.3,2.1
			c-3.4,0.2-5.4,2.4-7.4,4.7c-2.2,2.6-5.2,4.1-8.2,5.5c-6,2.9-11.6,6.2-16.3,11.1c-1.6,1.7-3.6,2.9-5.7,3.9c-1.8,0.8-3.7,1.7-5.1,3
			c-8.3,8.1-18.6,13.7-26.5,22.3c-2,2.2-5.8,2.4-7.1,5.3c-1.9,4.3-5.5,6.5-9.3,8.5c-0.8,0.4-1.7,1.1-2.1,1.9
			c-1.8,3.4-4.8,5.3-7.9,7.3c-2.4,1.6-4.7,4-6,6.5c-2,3.8-5.4,5.7-8.7,7.9c-3.7,2.4-4.2,7.6-8.2,9.8c-0.6,0.3-1.2,0.5-1.8,0.9
			c-5.1,2.9-7.5,7.3-7.5,13.1c-1.2-0.4-2.5-1.3-3.7-0.3c-2.5,2.2-5.5,4.1-7,6.9c-2.5,4.4-6.2,7.5-9.5,11.2c-4.3,4.9-8.5,10-12.6,15
			c-3.3,4-5.5,9.4-4.3,15.3c-0.7,0.1-1.3,0.4-2,0.4c-4.2,0.1-6.5,1.9-7.5,6.3c-0.8,3.4-2.8,6.8-5.8,9c-3.6,2.7-5.8,6.2-6.7,10.6
			c-0.8,4-2.5,7.3-6.7,9.2c-2.7,1.2-4.4,3.9-4.4,7.3c-0.1,6.5-3,11.4-9,14.3c-1.9,0.9-2.9,2.6-2.8,4.9c0.3,7.8-2.9,14.1-8.4,19.5
			c-2.5,2.5-3.9,5.1-3.7,8.8c0.3,5.1-1.7,9.7-4.6,13.8c-3.4,4.9-6.2,10.5-6.9,16.3c-1.7,12.8-6.3,24.8-9.3,37.3
			c-3.8,15.4-6.4,31-6.8,46.7c-0.6,27-0.2,54-0.1,80.9c0,2-0.4,4.2,0.2,6c3,8.9,1,18.4,3.4,27.5c1.4,5.3,2.3,10.8,3.8,16.2
			c3.2,11.4,7.1,22.5,8.8,34.4c0.5,3.3,1.5,6.9,3.9,10c4.1,5.3,6.7,11.6,7.5,18.1c0.6,5.3,2.2,9.6,6.1,13.1c2.9,2.6,3.8,5.8,4.6,9.6
			c1.7,8.6,2,8.6,8.2,15.1c3.1,3.2,5.4,6.9,5.2,11.4c-0.2,3.9,2,6.1,4.7,8.2c1.3,1,2.9,1.7,4.1,2.7c1.8,1.5,3.5,3.4,3.1,5.9
			c-0.7,5.1,2.4,8.3,6,10.6c3.4,2.2,5.2,4.9,6,8.6c0.6,3,2,5.6,4.4,7.5c-0.6,0.8-1.4,1.5-1.6,2.4c-1.8,6.9-5.3,12.6-10.8,17
			c-1.3,1-2.6,2.2-3.3,3.7c-2,4.5-4.2,8.7-9.1,11c-1.5,0.7-1.9,3.4-3.2,4.8c-1.3,1.4-3.1,2.4-4.7,3.5c-0.6-0.8-1.5-1.5-1.7-2.4
			c-1.2-4.7-4.2-8.1-7.8-11.2c-4-3.4-4.3-8.8-7.1-12.8c-2.8-4-7.5-6.6-9.2-11.6c-0.2-0.6-1-1.2-0.9-1.7c0.1-3.9-2.6-6-4.9-8.3
			c-3.7-3.6-6.3-8-7.1-12.8c-0.6-4.1-2.5-6.8-5.3-9.1c-3.6-2.9-5.3-6.6-6.4-10.9c-0.6-2.2-1.5-4.3-2.3-6.5c-0.6-1.6-1.3-3.2-2.9-3.9
			c-6.3-2.7-7.1-8.6-7.3-14.1c-0.2-4.8-1.8-8.2-5.3-11.1c-5-4.1-6.6-9.7-6.8-15.9c-0.1-1.3-0.2-2.7-0.1-4c0.2-4.6-1.3-8.6-4.7-11.5
			c-4.2-3.5-6-7.8-5.3-13.2c0.7-6.1-1.5-11.8-2.4-17.6c-0.8-4.6-1.8-9.5-5.1-13.6c-1.7-2.1-2.3-5.6-2.3-8.4
			c0.1-9.3-3.2-18.3-2.2-27.7c0.1-0.7,0.1-1.4-0.1-2c-2.4-5-1.4-10.4-1.9-15.7c-0.5-5.6-1.7-11.1-1.7-16.7
			c0.2-20.2-1.7-40.5,1.5-60.6c1.2-7.5-0.6-15.3,2.1-22.6c-0.7-9.7,2-19.1,2.1-28.6c0.1-4.8,0.6-9.3,3.8-13c2.5-2.9,3.5-6.5,3.9-9.9
			c0.8-6.5,3.2-12.9,2.2-19.6c-0.4-3.1,0.7-5.9,3.2-8c5.3-4.4,6.9-10.2,7-16.7c0.1-7.2,2.2-13.7,8.2-18.3c2.8-2.2,3.8-5,3.9-8.6
			c0.1-6.5,2-12.3,7.5-16.6c3-2.3,4.8-5.2,4.6-9.4c-0.1-3.7,1.8-7,4.5-9.7c1.6-1.6,3.3-3.3,4.9-4.9c1.1-1.2,2.2-2.5,2.3-4.3
			c0.3-5.3,3.1-9.3,6.8-12.8c1.4-1.4,2.8-2.8,3.5-4.7c2.7-6.8,7.5-12.4,11.5-18.4c4-6,7.8-12.1,12.9-17.5c3.8-3.9,5.3-9.7,5.1-15.5
			c5.8-4.9,10.8-10.7,15.5-16.5c3.8-4.6,7.8-8.9,11.9-13.2c2.5-2.7,5-5.3,7.6-7.9c1.6-1.5,2-3.3,1.8-5.4c5.6-1.6,9.9-5.3,13.9-9.3
			c11.8-11.8,23.6-23.5,35.4-35.3c1.7-1.6,3.1-3.9,5.1-4.8c9-3.8,16-10.6,23.7-16.1c7.8-5.6,15.3-11.7,23.4-16.7
			c9-5.6,16.8-12.9,26.5-17.4c0.6-0.3,1.1-0.8,1.5-1.3c3.6-4,8.1-6.2,13.1-8.4c5.3-2.3,10.5-5.5,15.6-8.6c9.3-5.7,19-10.8,28.4-16.3
			c8.9-5.2,18.7-8.3,27.5-13.6c4.9-2.9,10.6-3.7,15.5-6.6c4.8-2.9,9.8-5.6,15.4-6.9c1.9-0.4,3.6-1.7,5.3-2.6c2.1-1,4-2.5,6.2-3
			c6.5-1.6,12.3-4.6,18-8c1.4-0.8,3-1.6,4.6-1.8c5.7-0.7,10.8-2.9,15.5-6.1c3.7-2.5,8.2-2.6,12.3-3.6c2.9-0.7,5.8-1.5,8.4-2.9
			c5.3-2.9,10.9-4.5,16.8-5.6c5.5-1,10.7-3.1,16-4.9c6.6-2.2,13.3-3.8,20.1-5.1c5.8-1.1,11.5-2.9,17.2-4.5c6-1.8,12.1-3.1,18.4-3.8
			c6.1-0.8,12.2-2.6,18.1-4.7c8.5-3,17.4-4,26.3-4.8c3.7-0.3,7.3-0.5,10.6-2.4c3.8-2.3,8.3-2.7,12.3-3.4c7.2-1.2,14.3-2.7,21.7-2.4
			c10,0.4,19.7-1.8,29.2-4.8c5.9-1.9,12.2-2.4,18.1-4.7c1.7-0.7,4-0.5,5.9,0c11.2,2.5,22.4,1.8,33.6,0.1c2.3-0.3,4.7-0.3,7-0.3
			c11.3-0.1,22.7-0.2,34-0.4c5.3-0.1,10.5,0.2,15.8-1.4c3.7-1.1,7.9-0.4,11.9-0.4c63.3,0,126.7,0,190,0c6.7,0,13.3,0.1,20-0.1
			c3.2-0.1,5.9,1,8.5,2.4c3.5,1.9,4.7,5.7,4,10.1c-0.4,2.6-0.6,5.3-0.6,7.9c0,111.3,0,222.7,0,334c0,3,0.2,5.8,1.2,8.8
			c1.9,6,0,7.8-6.6,9.2c-6.6,1.4-13.2,1.3-19.8,1.3c-69.7,0-139.3,0-209,0c-7,0-14,0.1-21,0.2c-9.7,0.1-19.1,1.4-27.7,6.3
			c-3.1,1.8-6.4,2.2-9.6,1.8c-11-1.1-21,1.4-30.4,7.2c-3.1,2-6.6,3-10.5,2.5c-4.4-0.5-8.6,0.5-12.4,2.9c-3.1,2-6.6,3.1-10.1,4.1
			c-3.8,1.1-7.5,2.6-11,4.4c-3.8,1.9-7.5,4.3-11.8,5.1c-1.9,0.3-3.6,1.6-5.4,2.5c-15.5,8.2-29.8,18.3-44.2,28.3
			c-4.8,5.9-12.3,9-16.1,15.9c-0.3,0.6-0.8,1.1-1.4,1.4c-6.5,3.7-9.9,10.5-15.3,15.3c-2.8,2.5-5.1,5.3-6.4,8.7
			c-0.9,2.2-2.1,4.2-4.3,5.3c-4.6,2.2-6.9,6.2-8.1,10.8c-1.1,4-3,7.4-6,10.1c-2.9,2.6-4.1,5.6-4.7,9.5c-0.7,4.1-2.6,8.2-4.6,12
			c-4.2,8-7.8,16.1-7,25.5c-3.4,8.5-0.3,17.9-3.4,26.5c-0.4,1.2-0.3,2.7,0,4c2.2,9.7,2,19.7,3.7,29.4c0.9,5.1,2,10.1,4.6,14.9
			c3.2,6,6.3,12.4,7.2,19.3c0.4,2.9,1.7,4.9,3.6,6.8c3.4,3.2,6.7,6.5,7.5,11.4c0.5,3.1,2.8,5.3,5,7.2c3.3,2.9,6,6.2,7.8,10.2
			c0.6,1.2,1.1,2.6,2.1,3.3c8.8,6.1,14.3,15.5,22,22.7c12.4,11.6,26.5,20.8,40.6,30.1c7.5,4.9,16.1,7.9,23.2,13.3
			c2.7,2,6,2.8,9.3,3.1c2.9,0.3,5.1,1.2,7,3.2c2.8,3,6.4,4.4,10.4,5.3c5.1,1.1,10.4,2.1,14.6,5.8c0.9,0.8,2.3,1.6,3.5,1.7
			c10.9,1.2,21,5.5,31.6,8c5.1,1.2,10.3,2.4,15.7,2.4c6.3,0,12.3,2.6,18.7,2.2c3.7,2.2,7.8,1.3,11.7,1.7
			c39.2,3.5,78.5,1.4,117.7,1.8c39,0.4,78,0.2,117,0.3c3.3,0,6.7,0.2,10,0c3.2-0.2,5.9,1.1,8.4,2.6c3,1.8,4.9,4.3,4.6,8.2
			c-0.3,3.6-0.2,7.3-0.2,11c0,111.7,0,223.3,0,335c0,1.3-0.2,2.7,0,4c1.2,7.1-3.2,10.9-11.1,12.4c-1.9,0.4-4,0.2-6,0.2
			c-30.3,0-60.7,0-91-0.1c-3.6,0-7.2,0-10.8-1.1c-3.1-0.9-6.6-0.5-9.9-0.5c-41.7,0-83.3,0-125,0c-8.7,0-17.3-0.2-26-0.2
			c-13.3,0.1-26.4-2.8-39.7-2.1c-7.1-3.3-15.3-0.3-22.4-3.6c-9,0.7-17.7-2.6-26.7-2.3c-11.4,0.4-22.2-2.1-33.1-5
			c-6.7-1.8-13.5-3.7-20.5-3.1c-7.9,0.8-15.3-1-22-4.5c-5.9-3-11.9-4-18.3-3.6c-5.1,0.3-9.7-0.8-14.2-3.4c-7.2-4.2-15-7-23.6-6.4
			c-3.2,0.2-6.1-0.9-8.3-2.7c-4.3-3.6-9.3-4.6-14.6-5.4c-5.9-0.9-11.7-2.1-16.9-5.3c-1.4-0.9-2.9-1.9-4.5-2.1
			c-12.2-1.6-22.8-8.8-34.9-10.7c-1.9-0.3-3.9-0.9-5.6-1.9c-8.7-4.8-18.6-6.8-27.4-11.4c-2.9-1.5-6-2.8-9.5-2.6
			c-4.6,0.3-8.3-1.8-11.4-5.1c-2.6-2.7-5.4-4.6-9.4-5.1c-2.5-0.3-4.9-2-7.3-3c-4.2-1.8-8-4.4-12.9-4.9c-4.5-0.5-6.2-5.8-10.2-7.7
			c-1.5-0.7-3-1.5-4.5-2.1c-5-1.9-9.7-4.2-13.9-7.5c-4.5-3.5-10.8-3.6-14.7-8.1c-13.1-6.4-25.5-14.1-37.8-21.8
			c-6.4-4-13-7.7-18.9-12.7c-10.4-8.6-21.7-16.2-32.7-24.1c-4.6-3.3-9.3-6.3-13.3-10.4c-2.3-2.3-5.3-3.9-7.9-6
			c-13.2-10.7-26-21.6-37.7-34C1208.1,960.3,1203.2,955.4,1196.7,952.6z"/>
		<path class="st1" d="M5130.4,371.1c0-58.7,0-117.3,0-176c0-3.6,0.3-7.2-1.8-10.6c-1.5-2.4-3-3.9-5.8-5c-4.5-1.7-9.1-1.8-13.7-1.8
			c-34,0-68,0-102,0c-26.7,0-53.3,0-80,0c-4.3,0-8.5-0.5-12.8,1.3c-2.8,1.2-5.9,0.1-8.6-1.5c-2.2-1.2-3.6-2.9-3.6-5.5c0-1,0-2,0-3
			c0-39,0.1-78,0.1-117c0-2.3-0.1-4.7,0.2-7c0.8-6.6,5.2-9.5,11.9-7.7c2.7,0.7,5.2,0.7,7.9,0.8c6.3,0.1,12.7,0,19,0
			c198.6,0,397.3,0,595.9,0c7,0,14,0,21,0c3.3,0,6.5,0.9,9.7,1.6c5.4,1.2,6.5,5.1,7.7,9.2c0.4,1.5,0.1,3.3,0.1,5
			c0,37.3,0,74.7,0,112c0,0.3,0,0.7,0,1c-0.1,6.9-2.3,9.7-9,10.5c-3.6,0.4-7.3,0.3-11,0.3c-64,0-128,0-192-0.1c-2.7,0-5.4-0.3-8,0.1
			c-7.5,1-13.1,5.9-13.9,14.4c-0.1,1.3,0,2.7,0,4c0,116.6,0,233.3,0.1,349.9c0,0.7,0,1.3,0,2c0,7.7-0.9,9.1-8.2,11.4
			c-4,1.3-8,3-12.5,0.8c-1.9-0.9-4.6-0.6-6.9-0.6c-53.3,0-106.7,0-160,0c-3.3,0-6.5,0.3-9.8,1.3c-5.3,1.5-9.7-1.1-13-5.4
			c-0.7-1-1-2.4-1.2-3.7c-0.2-1.6,0-3.3,0-5C5130.3,488.4,5130.3,429.8,5130.4,371.1C5130.4,371.1,5130.4,371.1,5130.4,371.1z"/>
		<path class="st1" d="M2579.4,1170.8c-84.7,0-169.3,0-254,0.1c-4.2,0-7.9-0.8-11.3-3c-1.7-1.1-2.9-2.7-3-4.9c0-1.3,0-2.7,0-4
			c0-163.6,0-327.3,0-490.9c0-8.2,1.8-10.9,8.5-13.9c2.3-1,4.9-1.5,6.8-0.5c4.2,2,8.5,1.5,12.7,1.5c51.7,0,103.3,0,155,0
			c4.7,0,9.3-0.1,14,0.1c3.9,0.1,6.2,2.3,6.6,6c0.2,1.7,0.1,3.3,0.1,5c0,119.7-0.1,239.3-0.1,359c0,3.6-0.4,7.3,1.8,10.6
			c1.1,1.7,2.3,3,4.5,3.6c3.5,0.9,6.9,1.9,10.7,1.9c96.7-0.1,193.3-0.1,290-0.1c3.3,0,6.5-0.3,9.8-1.3c3.7-1.2,7.9-1.2,11,2.5
			c1.3,1.6,2.4,3.2,2.3,5.3c-0.1,2,0,4,0,6c0,35.3,0,70.7,0.1,106c0,3,0.1,5.9-2.4,8.3c-2,1.9-4.1,3.2-7,3c-5-0.2-10-0.2-15-0.2
			C2740.1,1170.7,2659.8,1170.7,2579.4,1170.8C2579.4,1170.7,2579.4,1170.7,2579.4,1170.8z"/>
		<path class="st1" d="M4774.4,556.9c-82.3,0-164.6,0-246.9,0c-5.3,0-10.7,0.2-16,0.1c-4-0.1-6.1-2.4-6.4-6.2c-0.1-1.3,0-2.7,0-4
			c0-159.6,0-319.2,0-478.8c0-5.7,0-11.3-0.1-17c-0.1-3.3,1.2-5.7,3.6-7.9c1.9-1.7,4.2-2.6,6.4-1.5c3.2,1.7,6.4,1.4,9.7,1.4
			c53.3,0,106.6,0,159.9,0c3.6,0,7.1-0.1,10.7-1.5c4.4-1.8,7.5,0.5,8.9,5.2c0.5,1.6,0.6,3.3,0.7,4.9c0.1,4,0,8,0,12
			c0,116.6,0,233.2,0,349.8c0,1.3,0,2.7,0,4c0.1,7.6,3.8,11.4,11.5,11.8c4.6,0.3,9.3-0.3,13.8,1.5c1.1,0.5,2.8,0.5,3.9,0
			c4.5-1.9,9.2-1.2,13.8-1.2c86.3,0,172.6,0,258.9,0c4.3,0,8.6-0.6,12.8,1.1c1.6,0.7,4,0.1,5.8-0.4c4.3-1.2,8.6-1.1,12.9-1
			c4.1,0.1,6.1,2.2,6.3,6.2c0.1,2.7,0.6,5.5-0.2,8c-2.1,6.5-1.3,13.2-1.3,19.8c-0.1,24-0.1,48,0,72c0,3.3-0.4,6.6,1.1,9.8
			c0.7,1.4,0.5,3.3,0.5,4.9c0,4.6-2,7-6.4,7.1c-5.7,0.1-11.3-0.1-17-0.1C4939,556.8,4856.7,556.8,4774.4,556.9
			C4774.4,556.8,4774.4,556.9,4774.4,556.9z"/>
		<path class="st1" d="M3134.9,915c0,81.3-0.1,162.6,0.2,243.9c0,7.4-3,12.1-8.4,15.5c-4.1,2.6-8.8,4.4-13.9,4.4c-4.3,0-8.7,0-13,0
			c-55.3,0-110.6,0-166,0.1c-4.5,0-8.4-0.6-12-3.4c-4.5-3.5-5.9-8.5-6.7-13.8c-0.3-1.6,0-3.3,0-5c0-162.3,0-324.6,0-486.9
			c0-4.3,0.2-8.5,1.6-12.7c0.7-2.1,0.5-4.5,2.5-6.2c2.6-2.1,5.3-4,8.8-4c2,0,4,0,6,0c59.3,0,118.6,0,178,0c3.3,0,6.5-0.3,9.8,0.9
			c9,3.1,12.8,7.7,13.1,17.2c0,1.3,0,2.7,0,4C3134.9,751.1,3134.9,833.1,3134.9,915C3134.9,915,3134.9,915,3134.9,915z"/>
		<path class="st0" d="M4068.3,374.4c-21,0-41.9,0-62.9,0c-3,0-6,0-9-0.2c-6.9-0.6-10.3-5.6-7.6-11.7c3.2-7.2,5.9-14.5,10.4-21.1
			c2.6-3.8,5-8,6.1-12.4c1.1-4.4,3.6-8,6.2-11c3-3.4,4.6-7.3,5.9-11.3c1.5-4.6,3.4-8.5,6.9-11.8c3-2.8,5.1-6.2,5.4-10.3
			c0.2-2.5,0.9-4.5,2.7-6.2c4.6-4.5,7.6-9.9,9.2-16.1c0.7-2.7,1.8-5,3.9-6.8c3.7-3.2,5.9-7.1,6.7-11.9c1.6-9.4,8.5-13.7,16.4-17
			c5.1-2.1,8.1-0.7,9.6,4.9c3.1,11.6,8.1,22.3,14.6,32.3c0.7,1.1,0.9,2.4,1.4,3.6c1.5,4,3.3,7.9,5.8,11.5c3,4.3,5.9,8.7,6.4,14.3
			c0.3,3.3,2,6.5,4.7,8.5c4,3,5.6,7.4,6.7,11.8c1.2,4.7,3.1,8.8,6.9,11.8c2.8,2.3,3.6,5.5,4.5,8.6c1.1,4,2.6,7.5,5.9,10
			c3.7,2.8,5.4,6.7,6.4,10.9c0.8,3.3,2.1,6.3,3.6,9.2c0.5,0.9,0.9,1.8,1.1,2.7c0.9,3.6-1.2,6.9-4.9,7.2c-4.6,0.3-9.3,0.4-14,0.4
			C4107.6,374.3,4088,374.3,4068.3,374.4C4068.3,374.3,4068.3,374.3,4068.3,374.4z"/>
		<path class="st0" d="M1159,320c0.2,5.8-1.4,11.6-5.1,15.5c-5.2,5.3-8.9,11.4-12.9,17.5c-4,6-8.8,11.6-11.5,18.4
			c-0.8,2-2.1,3.4-3.5,4.7c-3.7,3.5-6.5,7.5-6.8,12.8c-0.1,1.8-1.1,3.1-2.3,4.3c-1.6,1.7-3.3,3.3-4.9,4.9c-2.7,2.7-4.6,6-4.5,9.7
			c0.2,4.2-1.6,7-4.6,9.4c-5.4,4.2-7.3,10.1-7.5,16.6c-0.1,3.6-1.1,6.4-3.9,8.6c-5.9,4.7-8,11.1-8.2,18.3c-0.1,6.5-1.7,12.4-7,16.7
			c-2.5,2.1-3.6,4.9-3.2,8c0.9,6.8-1.4,13.1-2.2,19.6c-0.4,3.4-1.4,7.1-3.9,9.9c-3.2,3.7-3.7,8.3-3.8,13c-0.2,9.6-2.9,19-2.1,28.6
			c-2.7,7.4-0.9,15.2-2.1,22.6c-3.2,20.2-1.2,40.4-1.5,60.6c-0.1,5.6,1.2,11.1,1.7,16.7c0.5,5.2-0.5,10.6,1.9,15.7
			c0.3,0.6,0.2,1.3,0.1,2c-1,9.3,2.4,18.3,2.2,27.7c0,2.8,0.6,6.4,2.3,8.4c3.4,4.1,4.4,9.1,5.1,13.6c1,5.8,3.2,11.5,2.4,17.6
			c-0.7,5.4,1.1,9.7,5.3,13.2c3.5,2.9,4.9,7,4.7,11.5c-0.1,1.3,0.1,2.7,0.1,4c0.2,6.2,1.8,11.8,6.8,15.9c3.5,2.9,5.1,6.4,5.3,11.1
			c0.3,5.5,1,11.3,7.3,14.1c1.6,0.7,2.3,2.3,2.9,3.9c0.7,2.2,1.7,4.3,2.3,6.5c1.1,4.3,2.8,8,6.4,10.9c2.8,2.3,4.7,5,5.3,9.1
			c0.7,4.8,3.4,9.3,7.1,12.8c2.4,2.3,5.1,4.4,4.9,8.3c0,0.6,0.7,1.1,0.9,1.7c1.7,5,6.4,7.6,9.2,11.6c2.7,4,3.1,9.4,7.1,12.8
			c3.5,3.1,6.6,6.5,7.8,11.2c0.2,0.9,1.1,1.6,1.7,2.4c-1.6,8.5-5.9,15.1-12.2,21c-6,5.7-12.6,10.9-16.9,18.2
			c-6.6,4-11.2,10.3-17.1,15.2c-6.6,5.5-13.1,11.2-20.1,16.2c-10.5,7.5-20,16.3-30.6,23.6c-12,8.2-23.6,16.9-36.4,24.1
			c-5.5,6.1-13.8,7.8-20,12.9c-1.5,1.2-3.5,2.1-5.4,2.5c-4.9,0.9-8.4,3.6-11.7,7.1c-0.9,1-1.9,1.9-3.1,2.4
			c-11.5,5.1-22.5,11.1-33.2,17.6c-9.9,2.6-18,10-28.5,11c-1.8,0.2-3,1.2-4.4,2.2c-5.4,4-11.7,6.3-18.2,7.6c-2.7,0.5-5,1.6-7.4,2.7
			c-0.6,0.3-1.1,0.7-1.6,1.2c-4.7,4.3-11.3,3.4-16.7,5.9c-5.3,2.5-10.1,6.3-16.5,6.5c-4.3,0.2-8.4,1.5-11.9,4.3
			c-3.2,2.6-6.9,3.8-11.1,3.8c-5.1,0-9.9,1.5-14.1,4.1c-5.8,3.7-12.3,4.6-18.8,5.5c-3,0.4-5.9,0.8-8.6,2.2
			c-7.2,3.7-15.1,4.6-22.9,5.9c-3.3,0.5-6.5,1.2-9.7,2c-10.2,2.7-20.5,4.8-30.9,6.3c-4.9,0.7-9.8,1.4-14.6,2.4
			c-10.3,2-20.8,2.7-31.1,5.2c-12.6,3-25.7,2.8-38.6,2.5c-0.3,0-0.7,0-1,0c-8.7-1.3-17.1,2-25.7,2.1c-3.6,2.3-7.7,1.5-11.7,1.7
			c-3,0.1-5.9,0.1-8.8,1.3c-2,0.8-4.6,0.7-6.9,0.7c-7,0.1-14,0.1-21,0.1c-152,0-304,0-455.9,0c-6,0-12,0.3-18,0.2
			c-6.4-0.1-9.7-3.5-9.8-9.9c-0.1-5,0.2-10,0.2-15c0-334.3,0-668.6,0-1002.9c0-5,0.1-10,0-15c0-3.6,0.3-7.2-1.4-10.8
			c-0.9-2-0.6-4.6-0.6-6.9c0-7.7,4.6-12.5,12.1-12.6c5-0.1,10,0.1,15,0.1c144.3,0,288.6,0,433,0c13.3,0,26.7-0.1,40,0.4
			c7.2,0.3,14.4,1.8,21.8,1.7c5.3-0.1,10.7,0.1,16,0.1c10.3,0.1,20.4,1.3,30.5,3.3c5.4,1.1,11.1,1.4,16.6,2.4
			c12.4,2.3,25,2.4,37.4,4.3c7,1.1,14.6,1.2,20.3,6.7c1.3,1.2,3.1,1.1,4.7,1.2c4,0.1,8,0.2,12,0c5.8-0.2,11.2,0.9,16.2,3.7
			c2,1.1,4.2,2.1,6.3,2.9c4.3,1.7,8.6,3.4,13.4,3.1c6.4-0.5,12.5,0.2,17.8,4.5c1.5,1.3,3.5,1.7,5.6,1.8c9.7,0.6,18.9,3.1,27.4,7.9
			c2.7,1.5,5.5,2.3,8.6,2.1c5.8-0.4,11.1,1.7,16.1,4.2c3.9,1.9,7.7,3.6,12.1,4.3c4.2,0.6,8.3,2.1,12.2,3.9c3.6,1.7,7.2,3.3,11,4.6
			c10,3.4,19.1,9,29.4,11.6c1.3,0.3,2.6,0.9,3.5,1.8c3.4,3,7.3,4.3,11.8,4.4c3,0.1,5.7,1.6,8.1,3.5c3.6,3,7.8,5,12.3,6.3
			c1.7,0.5,3,1.2,4.4,2.2c1.6,1.2,3.2,2.6,5,3.2c7.2,2.5,13.5,6.9,20.3,10.2c10.2,4.9,19.9,10.3,28.6,17.7
			c5.3,4.4,11.5,7.8,17.5,11.2c2.6,1.5,5,3.3,7.1,5.4c0.9,0.9,1.8,2.1,2.9,2.7c11,5.5,19.8,14.3,29.8,21.2
			c7,4.9,13.7,10.3,21.1,14.7c5.3,3.2,9.9,7.7,14.5,12.1c8,7.6,15.7,15.4,23.5,23.1c1.9,1.9,3.7,4,5.9,5.3c2.4,1.4,4,3.2,5.4,5.5
			c1.1,2,3,3.5,4.7,5.2c3,3,6.5,5.7,8.2,9.9C1156.3,319,1157.5,319.8,1159,320z M469.8,618.6C469.8,618.6,469.8,618.6,469.8,618.6
			c0,78,0,155.9,0,233.9c0,2.7,0,5.3,0,8c0,1.8,1,2.9,2.5,3.9c2.7,1.7,5.7,1.7,8.7,1.7c18,0,36,0,54,0c17.7,0,35.3,0.1,53,0.1
			c5.3,0,10.5-0.3,15.6-2.1c11.6-4,23.6-6,35.9-5.9c4.8,0,9.1-0.9,13.3-3.3c5.5-3.1,11.5-4.9,18-5c5.7-0.1,11.1-1.9,15.7-5.4
			c1.6-1.2,3.1-2.2,5.3-2.5c7.2-1.2,14.4-2.3,20.1-7.7c1.1-1.1,3-1.3,4.5-1.9c0.3-0.1,0.7-0.1,1-0.1c5-0.6,9.3-2.8,13.6-5.4
			c7.6-4.5,16.5-6.7,23.8-12c3.8-0.4,6.5-3,9.6-4.8c2.9-1.6,5.6-3.5,8.4-5.3c5.3-3.4,11-6.3,15.7-10.3c9-7.8,19-14.4,27.4-22.9
			c3.6-3.7,8.2-6.5,11-11.1c0.5-0.8,1.4-1.5,2.1-2.1c7.1-5.5,11.9-13.4,18.9-18.9c0.5-0.4,1.2-1,1.2-1.5c0.1-5.6,5-8.5,7.7-12.4
			c2.3-3.4,2.9-7.4,5.2-10.6c4.9-6.7,8.1-14.2,10.9-21.9c3.1-8.7,6.5-17.2,9.8-25.8c0.5-1.2,1-2.4,1.3-3.7
			c2.9-10.9,2.4-22.3,3.8-33.4c1.3-10.5,0.3-21.3,0.3-31.9c0-1.6,0.1-3.5-0.6-4.9c-1.8-3.5-1.3-7.2-1.3-10.8
			c0.1-6.7-1.3-13.1-3.6-19.3c-4.3-11.4-8.4-22.9-13-34.1c-1.1-2.7-1.1-5.9-3.5-8.1c-4.1-3.6-6-8.7-7.7-13.7c-0.7-2-1.7-3.6-3.1-5
			c-6.2-6-8.9-14.8-16-20.2c-0.7-0.5-0.9-1.7-1.1-2.7c-0.4-3.1-2.5-4.5-5-5.7c-3.3-1.6-6.3-3.5-8-7c-1-2-2.8-3.7-5.1-4.6
			c-2.6-1.1-4.3-3.1-6.1-5.1c-5.3-6-12.7-9.6-18-15.7c-1.2-1.4-3.4-2.1-5.1-3.1c-1.4-0.8-3.1-1.5-4.2-2.6c-3.7-4-8.2-6.6-13.1-8.8
			c-2.1-1-4-2.3-5.7-3.9c-1.7-1.5-3.7-2.9-5.8-3.8c-7.4-2.9-12.6-9.7-20.8-11.3c-1.4-0.3-2.6-1.9-3.8-3.1c-3-3-6.4-4.7-10.7-4.5
			c-3.2,0.2-5.7-1.6-8.4-2.9c-3-1.4-5.8-3.1-9.1-3.8c-6.8-1.5-13.1-4.3-19.6-6.6c-3.7-1.3-7.6-2.2-11.4-3.3
			c-6-1.8-12.6-1.4-17.9-5.3c-7.6-0.7-14.6-4.5-22.3-4.4c-7.3,0.1-14.3-1.9-21.4-3.5c-11.3-2.5-22.6-4.6-34.4-4.5
			c-27.7,0.2-55.3,0.1-83,0.1c-7,0-14,0-21,0.1c-1.7,0-3.4,0.1-4.9,0.5c-2.9,0.7-5.9,4.4-5,6.6c2.4,5.8,1.2,11.9,1.2,17.8
			C469.8,466.7,469.8,542.7,469.8,618.6z"/>
		<path class="st0" d="M1232.8,321.9c-0.1-5.8,2.4-10.2,7.5-13.1c0.6-0.3,1.2-0.6,1.8-0.9c4-2.2,4.5-7.4,8.2-9.8
			c3.3-2.2,6.7-4,8.7-7.9c1.3-2.5,3.6-4.9,6-6.5c3.1-2,6.1-3.9,7.9-7.3c0.4-0.8,1.3-1.4,2.1-1.9c3.8-2.1,7.4-4.2,9.3-8.5
			c1.3-2.9,5-3.1,7.1-5.3c7.9-8.5,18.3-14.1,26.5-22.3c1.4-1.3,3.3-2.2,5.1-3c2.1-1,4.1-2.1,5.7-3.9c4.6-4.9,10.3-8.2,16.3-11.1
			c3-1.4,5.9-2.9,8.2-5.5c1.9-2.3,4-4.4,7.4-4.7c1.2-0.1,2.4-1.1,3.3-2.1c3.2-3.4,6.8-6.3,11.4-7.8c5-6.6,14.2-6.9,19.7-12.9
			c1.3-1.4,3.4-2.3,5.3-2.7c4.7-1,8.7-3.1,11.9-6.7c1.2-1.4,2.9-1.3,4.5-1.7c4.8-1.1,9.6-2.1,13.3-6.1c1.5-1.6,3.8-2.9,6-3.4
			c4.7-1.1,8.8-2.9,12-6.6c1.5-1.7,3.5-1.5,5.5-2c4.4-1.1,9.2-1.8,12.3-5.8c1.3-1.7,3.4-1.8,5.3-2.4c3.7-1.3,7.8-2.3,11-4.5
			c4.2-2.9,8.2-5,13.5-5.4c4.3-0.3,8.3-2.7,11.6-5.4c3-2.5,6.6-3.4,10-3.9c4.4-0.6,8.5-1.6,12.2-3.9c7-4.2,14.8-5.4,22.6-6.5
			c2.8-0.4,5.3-1.1,7.4-2.5c6-4,12.6-5.4,19.6-5.4c4.5,0,8.6-0.9,12.2-3.6c4.1-3.1,8.8-4.4,13.8-4.4c1.7,0,3.3-0.2,5-0.1
			c5.2,0.3,9.8-0.7,14-4c3.7-2.9,8.2-3.9,12.9-4.1c6.6-0.2,13.2-0.3,19.8-1.8c2.7-0.6,5.6-1.2,7.3-2.9c3.3-3.3,7.2-2.7,11-3.5
			c9.2-2,18.5-1.5,27.7-1.8c2.7-0.1,5.2-0.7,7.7-1.7c7.7-3.1,15.9-3.9,23.9-5.9c1.6-0.4,3.3-0.2,5-0.2c4-0.1,8-0.3,12-0.2
			c17.7,0.7,35.1-2.6,52.8-2.2c7.8-2.2,15.9-0.7,23.7-1.7c22.2-2.9,44.5-1.6,66.7-1.8c22-0.2,44,0,66,0c8.3,0,16.7,0.3,25-0.1
			c5.4-0.3,10.5,0.9,15.6,2c8.3,1.8,12.1,6.8,12.3,15.5c0.1,5.3,0.1,10.7,0.1,16c0,81,0,162-0.1,243c0,1.3,0,2.7,0,4
			c-0.1,7.1-3.3,10.3-10.4,12c-6.6,1.6-13.2,1.5-19.8,1.5c-55.3,0-110.7,0-166,0c-9,0-18,0.4-27,1c-4.9,0.3-9.9,1.2-14.6,2.5
			c-7.4,1.9-14.7,3.5-22.4,3.5c-3,0-5.9,0.6-8.7,1.7c-10.2,3.8-21,5.6-31.5,8.4c-5.4,1.4-10.8,2.8-15.9,5.4
			c-4.4,2.2-9.7,1.9-14.3,3.5c-4.3,1.5-8,4.5-12.1,6.7c-1.1,0.6-2.6,0.6-3.8,1c-4.7,1.4-9.7,1.9-13,6.4c-0.9,1.2-2.8,1.9-4.4,2.2
			c-4.7,1.1-8.7,3.1-12.1,6.5c-1.2,1.2-2.7,1.9-4.4,2.2c-0.9,0.2-2.2,0.5-2.6,1.2c-3.9,7.1-12.8,8-17.5,14c-0.6,0.8-1.4,1.5-2.3,1.9
			c-8,3.5-13.8,10.1-20.7,15.2c-2.4,1.8-5.4,3.1-7,5.4c-3.3,4.6-7.8,7.9-11.9,11.5c-1,0.9-2.1,1.9-2.6,3c-1.2,3-3.3,4.8-6.1,6.1
			c-1.1,0.5-2.2,1.6-2.9,2.7c-2.2,3.7-3.5,8.2-6.4,11.1c-3,3-6.4,5.4-8.6,9.3c-3,5.4-5.4,11.3-10.7,15.1c-2,1.4-2.3,4-2.3,6.4
			c-0.1,5-2,8.6-6.8,11.1c-3.8,1.9-5.3,5.6-5.1,10.1c0.2,5.6,0,11.1-3.2,16.3c-1.4,2.3-2.8,4.5-4.8,6.2c-3.1,2.6-3.9,5.9-3.9,9.8
			c0.1,26.7,0.1,53.3,0.1,80c0,5,1.5,9.2,5.2,12.4c4.8,4.3,6.4,9.8,6.5,15.9c0.1,2,0,4,0.3,6c0.7,4,1.9,7.9,5.8,9.9
			c4.3,2.3,6.1,6,5.9,10.6c-0.1,3.4,1.4,5.7,3.7,7.8c1.4,1.4,2.9,2.8,4.3,4.2c2.1,2.1,3.8,4.1,4.5,7.4c0.8,3.8,3.1,7.1,7.2,8.9
			c2.3,1,4.3,3,4.6,6.1c0.2,2.6,2.2,4,3.8,5.7c4.1,4.3,8.8,8.1,11.7,13.5c0.9,1.6,2.9,2.6,4.5,3.8c1,0.8,2.7,1.2,3.2,2.3
			c2.9,5.9,9.1,8.4,13.2,13c2.2,2.5,4.5,4.8,7.9,5.9c1.8,0.6,3.5,1.6,4.4,3.7c1.1,2.6,4,3.6,6.4,4.5c3.1,1.1,6.4,1.8,7.7,5.5
			c0.1,0.3,0.4,0.6,0.7,0.7c7.6,1.7,12.5,8.5,19.9,10.7c4.5,1.3,8.5,3.4,12.3,6.3c1.8,1.4,3.9,3,6.1,3.2c5.5,0.6,9.9,3.2,14.2,6.4
			c1.8,1.3,4.3,1.5,6.5,2.4c4.8,2,10.5,1.7,14.1,6.5c0.6,0.9,2.4,1.2,3.6,1.3c3,0.2,5.8,1.3,8.7,1.7c4.4,0.6,8.2,1.5,11.5,4.9
			c2.5,2.6,6.2,3.4,10.1,3.5c5.6,0.2,11.3-0.7,16.6,1.9c2.1,1,4.8,1.1,6.3,2.6c3.5,3.4,7.6,3.5,12,3.6c11.9,0.5,24,0.3,35.7,2.3
			c9.3,1.6,18.5,1.2,27.7,1.6c3,0.1,6-0.4,8.7,1.3c0.5,0.3,1.3,0.5,1.9,0.5c9-0.5,17.7,2.2,26.7,2.1c37-0.3,74-0.1,111-0.2
			c4.6,0,9.3,0.9,13.7-1.5c0.8-0.4,2.1-0.5,2.9-0.1c5.5,2.5,11.8,1.1,17.4,3.6c5.3,2.3,6.8,3.7,6.9,9.3c0,5.3,0,10.7,0,16
			c0,80,0,160,0,240c0,1.7,0,3.3,0,5c-0.2,10.4-6.6,17.2-17.1,18c-1.7,0.1-3.3,0.1-5,0.1c-56,0-112-0.1-168-0.1
			c-8,0-15.7-2.1-23.7-1.7c-7.6,0.4-15.5,0.9-22.9-0.5c-6.4-1.2-13-1.1-19.4-3c-5.3-1.6-11.2-0.4-16.6-2.3
			c-13,0.8-25.8-2.3-38.7-2.3c-5.7,0-11.3-1.2-16.5-2.8c-11.4-3.6-23.4-3.9-34.8-6.9c-5.4,0.9-10.5-1.3-15.6-2.5
			c-4.7-1.1-9.1-3.5-14-4.6c-2.6-0.6-5.2-1.1-7.8-1c-4.8,0.3-9.1-1-13.2-3.5c-5.5-3.3-11.5-4.8-18-4.8c-4.6,0-9-1.3-12.9-4.2
			c-5.2-3.9-11.3-5.3-17.7-5.4c-3.4-0.1-6.4-0.7-8.9-3.4c-3-3.4-7.2-4.7-11.7-4.7c-4.2,0-7.8-1.2-10.9-3.9
			c-3.1-2.7-6.9-3.7-10.9-4.3c-5.5-0.9-11.2-1.3-15.5-5.6c-0.4-0.4-1.3-0.4-1.8-0.7c-4.8-3.1-11-2.2-15.7-5.4
			c-4.4-3.1-9.3-4.9-14.3-6.7c-3.3-1.2-7-1.9-9.7-4.7c-1.3-1.3-3.4-2.2-5.3-2.6c-5.2-1.2-9.7-3.3-14-6.8c-3.1-2.6-7.8-3.5-11.7-5.2
			c-3.7-1.6-5.6-5.7-9.7-6.8c-3.8-1.1-7.6-2.3-10.2-5.7c-0.6-0.7-1.6-1.3-2.5-1.5c-6.5-0.9-11.7-4.5-16.3-8.5
			c-3.6-3.2-8.7-3.1-11.9-6.9c-2.8-3.4-7.7-3.9-11-6.6c-5.8-4.9-13-7.7-18.6-13c-3.8-3.6-8.7-6-12.2-10c-5.8-0.8-8.9-5.4-12.6-9
			c-2.1-2.1-5.2-1.4-7.1-3.3c-3.3-3.2-7.2-5.8-10.6-8.8c-8.9-8-18.5-15.1-26.6-24c-2.9-3.2-5.4-6.7-9.7-8.4c-1.6-0.6-2.3-2.2-3-3.8
			c-0.5-1.2-1.4-2.6-2.4-3.1c-6.6-3-8.6-11.1-14.9-14.1c-5.2-2.5-6.8-6.8-8.1-11.7c0.7-0.6,2.1-1.3,2.1-1.9c-0.1-4.9,2.7-8,6-11
			c3.7-3.4,7.1-6.9,8.8-11.9c0.4-1.2,1.4-2.2,2.4-3.1c4.2-3.9,6.9-8.8,10.1-13.3c4.6-6.5,10.1-12.2,11.9-20.2
			c0.1-0.3,0.3-0.6,0.5-0.8c6.1-4.7,8.5-11.6,10.9-18.5c0.4-1.2,1.2-2.4,1.9-3.5c5.7-8.2,8.8-17.6,12.4-26.8
			c0.8-2.1,2.2-4.1,3.1-6.2c2.6-5.7,5.1-11.4,6.8-17.5c1.4-5,3.5-10,6-14.6c3.4-6.3,4.7-12.9,5.7-19.8c1-6.8,2.7-13.4,6.8-19.3
			c3.6-5.3,5.7-11,5-17.7c-1.1-10,2.1-19.7,2.4-29.6c0.1-2.2,1-4.5,2-6.6c1.4-2.8,1.8-5.6,1.8-8.6c0-2,0.3-3.9,1.1-5.8
			c2.5-5.9,3-12,2.9-18.4c-0.2-15.6-0.1-31.3-0.1-46.9c0-3.3-0.8-6.4-1.6-9.6c-2.5-10.1-4.9-20.3-6.7-30.7
			c-1.5-8.6-1.7-17.1-1.6-25.7c0.1-4.5-0.9-8.4-3.5-12.1c-5.1-7.1-8.1-14.8-8.7-23.8c-0.4-6.6-3.4-12.7-6.2-18.6
			c-1.7-3.6-3.4-7.1-4.5-11c-2.3-7.6-5.1-14.9-8.9-21.9c-2-3.7-3.1-8-4.9-11.8c-3.6-7.4-5.6-15.5-11-22.1c-2-2.5-2.8-5.9-4.1-9
			c-0.5-1.2-0.6-2.8-1.4-3.6c-4.2-4-6.4-9.2-8.9-14.2c-1-2-2.8-3.7-4.3-5.4c-1.3-1.5-3.6-2.6-4.1-4.3c-2.7-9.6-11.4-15.2-15.5-23.9
			c-0.8-1.7-2.2-3.4-3.6-4.7C1239.7,331.5,1235.6,327.2,1232.8,321.9z"/>
		<path class="st0" d="M1191.1,860.2c-2.4-2-3.8-4.5-4.4-7.5c-0.8-3.7-2.7-6.4-6-8.6c-3.6-2.3-6.7-5.5-6-10.6
			c0.3-2.6-1.4-4.4-3.1-5.9c-1.2-1.1-2.8-1.8-4.1-2.7c-2.7-2-4.9-4.2-4.7-8.2c0.2-4.6-2.1-8.2-5.2-11.4c-6.3-6.5-6.5-6.5-8.2-15.1
			c-0.7-3.8-1.7-7-4.6-9.6c-3.9-3.5-5.5-7.8-6.1-13.1c-0.8-6.6-3.4-12.9-7.5-18.1c-2.4-3.1-3.4-6.7-3.9-10
			c-1.6-11.8-5.5-23-8.8-34.4c-1.5-5.4-2.5-10.9-3.8-16.2c-2.4-9.1-0.4-18.5-3.4-27.5c-0.6-1.8-0.2-4-0.2-6c0-27-0.4-54,0.1-80.9
			c0.3-15.8,3-31.3,6.8-46.7c3.1-12.4,7.6-24.4,9.3-37.3c0.8-5.8,3.5-11.3,6.9-16.3c2.9-4.2,4.9-8.7,4.6-13.8
			c-0.2-3.6,1.2-6.3,3.7-8.8c5.4-5.3,8.7-11.6,8.4-19.5c-0.1-2.3,0.9-4,2.8-4.9c6-3,8.9-7.8,9-14.3c0.1-3.4,1.7-6,4.4-7.3
			c4.2-1.9,5.9-5.2,6.7-9.2c0.9-4.4,3.1-8,6.7-10.6c3.1-2.3,5.1-5.6,5.8-9c1-4.4,3.3-6.2,7.5-6.3c0.7,0,1.3-0.3,2-0.4
			c8.4,3.5,13.4,10.3,17.5,18c1.5,2.9,3,5.9,4.6,8.8c4.7,9,11.2,17.1,14.3,26.9c0.1,0.3,0.1,0.7,0.4,0.9c6,5,6.9,12.5,9.4,19.2
			c0.6,1.5,0.5,3.3,1.9,4.5c4.8,4.2,6.6,9.8,7.5,15.8c0.9,6,3.2,11.5,7,16.1c4.2,5.2,5.2,11.2,5.7,17.5c0.1,1.7,0.2,3.3,0.2,5
			c0,2.4,0.4,4.5,2,6.5c5.1,6.4,6.7,14.1,8.2,21.9c1.1,5.9,1.1,11.9,2.1,17.7c1.2,6.8,2.1,13.7,3,20.5c1.1,8.1,3.2,16.2,2.9,24.5
			c-0.4,11.6-0.2,23.3,0,34.9c0.2,12-1.7,23.6-3.6,35.3c-1.1,7.1-3.1,14.2-2.7,21.6c0.3,6-1.8,11.7-2.2,17.7c-0.2,3.3-1.4,7-3.7,10
			c-3.9,5.1-5.9,11.1-5.9,17.5c0,4.4-1.9,8.4-2.3,12.7c-0.1,1.5-1.3,3-2.4,4.2c-4.1,4.9-7,10.1-7.7,16.8c-0.5,4.8-2.2,9.4-5.9,13.3
			c-3.1,3.2-5.1,7.5-5.9,12.3c-0.7,4.9-2.1,9.6-6.1,13.2c-1.6,1.5-2.7,3.8-3.5,5.9c-2.9,7.8-7.2,14.7-11.7,21.6
			c-2.5,3.9-4.2,8.3-6.3,12.4c-5.3,10-8.2,12.8-17.5,16.5C1193.8,860.3,1192.4,860.1,1191.1,860.2z"/>
		<path class="st1" d="M469.8,618.6c0-76,0-151.9-0.1-227.9c0-5.9,1.2-11.9-1.2-17.8c-0.9-2.2,2.1-5.8,5-6.6
			c1.6-0.4,3.3-0.4,4.9-0.5c7-0.1,14-0.1,21-0.1c27.7,0,55.3,0.2,83-0.1c11.7-0.1,23.1,2,34.4,4.5c7.1,1.6,14.1,3.6,21.4,3.5
			c7.8-0.1,14.7,3.7,22.3,4.4c5.3,3.9,12,3.5,17.9,5.3c3.8,1.1,7.6,2,11.4,3.3c6.5,2.3,12.9,5.1,19.6,6.6c3.3,0.7,6.1,2.4,9.1,3.8
			c2.7,1.3,5.2,3,8.4,2.9c4.3-0.2,7.7,1.5,10.7,4.5c1.2,1.2,2.4,2.8,3.8,3.1c8.2,1.5,13.4,8.4,20.8,11.3c2.1,0.8,4,2.3,5.8,3.8
			c1.8,1.5,3.6,2.9,5.7,3.9c4.8,2.2,9.4,4.8,13.1,8.8c1.1,1.2,2.7,1.8,4.2,2.6c1.7,1,3.8,1.6,5.1,3.1c5.3,6.1,12.7,9.7,18,15.7
			c1.8,2,3.5,4,6.1,5.1c2.2,0.9,4.1,2.6,5.1,4.6c1.8,3.6,4.7,5.4,8,7c2.5,1.2,4.6,2.6,5,5.7c0.1,0.9,0.4,2.2,1.1,2.7
			c7.1,5.4,9.7,14.2,16,20.2c1.4,1.4,2.4,3,3.1,5c1.7,5,3.6,10,7.7,13.7c2.5,2.2,2.4,5.4,3.5,8.1c4.6,11.3,8.7,22.7,13,34.1
			c2.3,6.2,3.7,12.6,3.6,19.3c0,3.6-0.5,7.3,1.3,10.8c0.7,1.4,0.6,3.2,0.6,4.9c0,10.7,1.1,21.5-0.3,31.9
			c-1.4,11.1-0.9,22.5-3.8,33.4c-0.3,1.3-0.9,2.5-1.3,3.7c-3.3,8.6-6.7,17.1-9.8,25.8c-2.7,7.8-6,15.2-10.9,21.9
			c-2.3,3.2-2.9,7.2-5.2,10.6c-2.7,4-7.5,6.8-7.7,12.4c0,0.5-0.7,1.1-1.2,1.5c-7,5.6-11.7,13.5-18.9,18.9c-0.8,0.6-1.6,1.3-2.1,2.1
			c-2.8,4.6-7.4,7.4-11,11.1c-8.4,8.6-18.4,15.1-27.4,22.9c-4.7,4.1-10.4,6.9-15.7,10.3c-2.8,1.8-5.5,3.6-8.4,5.3
			c-3.1,1.8-5.8,4.4-9.6,4.8c-7.2,5.4-16.1,7.5-23.8,12c-4.4,2.6-8.6,4.8-13.6,5.4c-0.3,0-0.7,0-1,0.1c-1.5,0.6-3.4,0.9-4.5,1.9
			c-5.7,5.4-12.9,6.5-20.1,7.7c-2.1,0.4-3.6,1.3-5.3,2.5c-4.6,3.5-10,5.3-15.7,5.4c-6.5,0.1-12.5,1.8-18,5
			c-4.2,2.4-8.5,3.3-13.3,3.3c-12.3,0-24.3,2-35.9,5.9c-5.2,1.8-10.3,2.1-15.6,2.1c-17.7,0-35.3-0.1-53-0.1c-18,0-36,0-54,0
			c-3,0-5.9,0.1-8.7-1.7c-1.6-1-2.5-2-2.5-3.9c0-2.7,0-5.3,0-8C469.8,774.5,469.8,696.6,469.8,618.6
			C469.8,618.6,469.8,618.6,469.8,618.6z M533.2,617C533.2,617,533.2,617,533.2,617c0,59.3,0,118.6,0,177.9c0,4.7,0,9.3-0.1,14
			c-0.1,2.8,1,4.9,2.7,7.2c4.2,5.4,9.6,5.4,15.3,4.1c1.9-0.4,3.7-1.3,5.7-1.4c13.9-0.1,27.8,0.4,41.7-1.8c8.1-1.2,16.3-3.2,24.7-2.6
			c1.5,0.1,3.1-1.1,4.7-1.5c7.3-2.1,14.5-4.6,21.9-5.9c5.6-1,10.9-2.5,16-5c3.3-1.6,6.6-2.9,10.2-3.6c4.4-0.9,8.9-2.2,12.2-6
			c1.9-2.2,4.8-3.6,8-3.4c3.6,0.2,6.3-1.4,9-3.5c2.4-1.8,5.1-3.1,7.9-4.2c4.7-1.9,8.8-4.6,12.2-8.4c1.3-1.5,2.9-3.1,4.6-3.7
			c9.1-3.3,17.1-8.2,24.2-14.9c1.4-1.3,3.4-2,5.1-3.1c1.7-1,3.6-1.9,4.9-3.3c7.3-7.7,15.6-14.4,21.9-23.1c2.4-3.4,4.7-7.2,7.8-10.2
			c4.6-4.4,7.7-9.7,10-15.7c1.5-3.9,3.2-8,6.6-10.9c2.9-2.5,3.5-6.2,4.8-9.6c2.3-6.1,3.6-12.5,7.5-18.1c3-4.3,4.3-9.6,4.2-15.1
			c-0.1-6.6,1.2-13.3-1.7-19.7c-0.6-1.4-0.2-3.3-0.2-5c0-5,0-10,0-15c0-3.6,0.5-7.1,1.2-10.7c2-9.6,1.3-19.6-5.1-27.4
			c-3.9-4.8-5.2-9.9-5.9-15.2c-0.7-5.7-2.9-10.1-6.7-13.9c-1.4-1.4-3-2.6-3.5-4.7c-1.6-6.6-5-12.2-10-16.8c-0.7-0.7-1.4-1.5-1.8-2.3
			c-3.5-7-8.8-12.4-14.2-17.7c-5.5-5.4-10.6-11.1-16.5-16c-7.3-6.1-15.1-11.7-22.9-17.2c-4.6-3.3-9.9-5.4-14-9.4
			c-6.9-1.4-12.5-5.4-18.3-9.2c-1.1-0.7-2.4-1.1-3.6-1.7c-4.8-2.1-9.7-4.1-14.5-6.4c-1.9-0.9-3.6-1.6-5.7-1.4
			c-3.8,0.3-7-0.4-9.9-3.5c-3.3-3.5-7.7-5-12.7-4.6c-1.7,0.1-3.3,0.1-5,0c-5-0.3-9.8-1.2-13.6-5c-3.8-3.7-8.4-5.1-13.6-4.9
			c-4.3,0.2-8.7,0-13,0.1c-3.4,0.1-6.5-0.6-9.6-2c-8.5-3.9-17.4-6.1-26.8-6c-6,0-12-0.1-18-0.2c-4.3-0.1-8.5,0.2-12.8-1.2
			c-4.3-1.4-8.5,0.7-12.4,2.4c-3.4,1.5-5.6,5.3-4.5,8.1c2.2,5.5,1.6,11.1,1.6,16.7C533.2,495.7,533.2,556.3,533.2,617z"/>
		<path class="st0" d="M533.2,617c0-60.6,0-121.3,0-181.9c0-5.6,0.7-11.2-1.6-16.7c-1.1-2.8,1-6.6,4.5-8.1c3.9-1.7,8.2-3.8,12.4-2.4
			c4.3,1.4,8.5,1.1,12.8,1.2c6,0.1,12,0.3,18,0.2c9.4-0.1,18.3,2.1,26.8,6c3.1,1.4,6.2,2.1,9.6,2c4.3-0.1,8.7,0,13-0.1
			c5.2-0.2,9.9,1.2,13.6,4.9c3.8,3.7,8.6,4.7,13.6,5c1.7,0.1,3.3,0.1,5,0c4.9-0.3,9.4,1.1,12.7,4.6c2.8,3.1,6,3.8,9.9,3.5
			c2.1-0.2,3.8,0.5,5.7,1.4c4.8,2.3,9.6,4.3,14.5,6.4c1.2,0.5,2.5,1,3.6,1.7c5.7,3.8,11.3,7.8,18.3,9.2c4.1,4,9.4,6.2,14,9.4
			c7.8,5.6,15.6,11.1,22.9,17.2c5.9,4.9,11,10.7,16.5,16c5.4,5.4,10.8,10.8,14.2,17.7c0.4,0.9,1.1,1.7,1.8,2.3
			c5.1,4.6,8.4,10.2,10,16.8c0.5,2.1,2.1,3.3,3.5,4.7c3.9,3.9,6,8.3,6.7,13.9c0.7,5.3,2.1,10.5,5.9,15.2c6.4,7.8,7.1,17.8,5.1,27.4
			c-0.7,3.6-1.2,7.1-1.2,10.7c-0.1,5,0,10,0,15c0,1.7-0.5,3.6,0.2,5c2.8,6.4,1.6,13.1,1.7,19.7c0.1,5.4-1.2,10.8-4.2,15.1
			c-3.9,5.6-5.2,12-7.5,18.1c-1.3,3.4-1.9,7.1-4.8,9.6c-3.4,3-5.1,7-6.6,10.9c-2.3,6-5.4,11.2-10,15.7c-3.1,3-5.3,6.8-7.8,10.2
			c-6.3,8.8-14.6,15.4-21.9,23.1c-1.3,1.4-3.2,2.2-4.9,3.3c-1.7,1-3.7,1.7-5.1,3.1c-7.1,6.7-15.1,11.6-24.2,14.9
			c-1.8,0.6-3.3,2.2-4.6,3.7c-3.4,3.8-7.5,6.4-12.2,8.4c-2.7,1.1-5.5,2.5-7.9,4.2c-2.8,2.1-5.5,3.6-9,3.5c-3.2-0.1-6.1,1.3-8,3.4
			c-3.3,3.8-7.8,5.1-12.2,6c-3.7,0.7-7,2-10.2,3.6c-5,2.5-10.3,4-16,5c-7.4,1.4-14.6,3.9-21.9,5.9c-1.6,0.4-3.1,1.6-4.7,1.5
			c-8.4-0.6-16.6,1.4-24.7,2.6c-13.9,2.1-27.8,1.6-41.7,1.8c-2.1,0-3.8,0.9-5.7,1.4c-5.7,1.3-11.1,1.3-15.3-4.1
			c-1.7-2.3-2.8-4.3-2.7-7.2c0.2-4.7,0.1-9.3,0.1-14C533.2,735.6,533.2,676.3,533.2,617C533.2,617,533.2,617,533.2,617z"/>
	</g>
</g>
</svg>
