<svg
  width="53"
  height="40"
  viewBox="0 0 53 40"
  fill="none"
  xmlns="http://www.w3.org/2000/svg">
  <path
    d="M0.850006 0.84314V39.1727C0.850006 39.1727 10.2975 39.1727 13.3333 39.1727C24.0382 39.1727 33.293 30.9681 33.293 20.0591C33.3044 8.94541 23.9589 0.84314 13.3333 0.84314C10.2975 0.84314 0.850006 0.84314 0.850006 0.84314Z"
    stroke="#007BC4"
    stroke-width="1.64223"
    stroke-miterlimit="10"/>
  <path
    d="M12.3365 12.2409V27.9227C12.3365 27.9227 13.8091 27.9227 14.115 27.9227C14.8513 27.9227 21.6594 26.8431 21.6594 19.8091C21.6594 14.5704 16.6524 12.2409 14.115 12.2409C13.5939 12.2409 12.3365 12.2409 12.3365 12.2409Z"
    stroke="#007BC4"
    stroke-width="1.64223"
    stroke-miterlimit="10"/>
  <path
    d="M38.9344 20.0249C38.9344 24.3658 42.5253 27.8772 46.9659 27.8772H51.9614V39.1727H46.728C36.0345 39.1727 27.3573 30.6272 27.3573 20.0818C27.3573 9.5363 36.0231 0.990845 46.728 0.990845H51.9614V12.1727H46.9659C42.5367 12.1727 38.9344 15.684 38.9344 20.0249Z"
    stroke="#E72B2D"
    stroke-width="1.64223"
    stroke-miterlimit="10"/>
</svg>
