<svg
  width="100"
  height="100"
  fill="none"
  xmlns="http://www.w3.org/2000/svg">
  <path
    fill="#fff"
    d="M0 0h100v100H0z"/>
  <path
    d="M11 29a1 1 0 0 1 1-1h27.105a1 1 0 0 1 1 1v7.095a1 1 0 0 1-1 1H12a1 1 0 0 1-1-1V29Z"
    fill="#0050B3"/>
  <path
    d="M11 46.281a1 1 0 0 1 1-1h19.829a1 1 0 0 1 1 1v7.095a1 1 0 0 1-1 1H12a1 1 0 0 1-1-1v-7.095Z"
    fill="#00224D"/>
  <path
    d="M11 63.562a1 1 0 0 1 1-1h27.105a1 1 0 0 1 1 1v7.096a1 1 0 0 1-1 1H12a1 1 0 0 1-1-1v-7.096Z"
    fill="#0050B3"/>
  <path
    fill-rule="evenodd"
    clip-rule="evenodd"
    d="m69.21 47.403 8.852 23.606a1 1 0 0 0 .936.649h8.779a1 1 0 0 0 .936-1.352L74.667 32.851 69.21 47.403Zm2.755-17.025c-.02.038-.038.077-.053.119L67.522 42.2a.998.998 0 0 0-.036.12l4.479-11.943Z"
    fill="#0050B3"/>
  <path
    d="M61.69 28.649a1 1 0 0 1 .937-.649h8.778a1 1 0 0 1 .936 1.351L56.72 71.01a1 1 0 0 1-.936.649h-8.779a1 1 0 0 1-.936-1.352L61.69 28.65Z"
    fill="#00224D"/>
</svg>
