<svg
  width="86"
  height="86"
  fill="none"
  xmlns="http://www.w3.org/2000/svg">
  <rect
    width="86"
    height="86"
    rx="5"
    fill="#fff"/>
      <path
        d="M70 53.198c-.801.087-1.194.677-1.586 1.256a1.672 1.672 0 0 1-1.297.875.603.603 0 0 1-.66-.33 1.143 1.143 0 0 0-.277-.351.663.663 0 0 0-.703-.176.663.663 0 0 0-.443.578c-.04.203-.016.418-.047.623-.032.205-.055.453-.32.401-.136-.027-.253-.218-.348-.357a1.187 1.187 0 0 1-.077-.364.898.898 0 0 1-1.146.253c-.25-.097-.348.104-.338.338.012.185.057.369.069.554a.48.48 0 0 1-.408.556c-.62.13-1.237.267-1.857.39a.292.292 0 0 1-.217-.118.888.888 0 0 1-.108-.254c-.098-.245-.091-.595-.5-.541a.91.91 0 0 0-.613.24.924.924 0 0 0-.295.594 7.495 7.495 0 0 1-.095 1.143c-.09.457-.311.512-.637.19-.13-.13-.217-.306-.356-.424a1.539 1.539 0 0 0-.393-.184 1.559 1.559 0 0 0-.11.424c0 .234.159.516.074.688a7.036 7.036 0 0 1-.813 1.203c-.116.148-.274.093-.297-.134a3.657 3.657 0 0 0-.077-.585 1.498 1.498 0 0 0-.245-.565c-.16-.192-.324-.33-.194-.621.068-.152-.03-.3-.232-.285a.905.905 0 0 1-.894-.538c-.133-.228-.293-.24-.456-.016-.37.508-.474.52-.973.093-.172.46-.507.84-.94 1.065-.455.276-.644.25-1.01-.162-.317-.357-.318-.358-.69-.05-.186.156-.378.307-.555.468a1.01 1.01 0 0 0-.399.748 1.018 1.018 0 0 0 .307.79c.142.163.25.354.317.56.07.266-.096.397-.359.319a5.37 5.37 0 0 0-.553-.197 1.066 1.066 0 0 0-.553.025c-.169.066-.271.066-.336-.092a1.34 1.34 0 0 0-1.295-.769 2.061 2.061 0 0 1-.638-.139.569.569 0 0 1-.276-.35c-.02-.086.13-.212.21-.315.08-.103.183-.153.21-.246.15-.528.259-.604.78-.49l.137.029c-.04-.412-.172-.514-.548-.41-.198.055-.391.133-.677.234l.148-.596c.103-.32.178-.649.224-.982a2.17 2.17 0 0 0-.184-.677l-.148-.013c-.09.171-.157.354-.199.543a1.138 1.138 0 0 1-.289.837 1.12 1.12 0 0 1-.8.369c-.929.134-.957.172-.628 1.073a1.198 1.198 0 0 1-.058.949c-.343.748-.697 1.494-1.038 2.242a.65.65 0 0 1-.057.126 1.291 1.291 0 0 0-.173 1.512c.144.272-.017.528-.22.75a94.832 94.832 0 0 0-1.547 1.735.327.327 0 0 1-.451.079.328.328 0 0 1-.109-.128.902.902 0 0 1-.067-.468c.042-.477-.033-.543-.492-.376-.173.063-.34.146-.508.224-.232.102-.348.028-.395-.214a1.711 1.711 0 0 0-.08-.408c-.04-.093-.153-.218-.232-.215a.375.375 0 0 0-.291.186c-.132.37-.221.756-.329 1.134-.137.476-.26.958-.428 1.422a.484.484 0 0 1-.364.234c-.077 0-.178-.18-.246-.294a5.444 5.444 0 0 0-.367-.646c-.156-.188-.306-.09-.387.117a.661.661 0 0 0-.033.135c-.127.877-.703.82-1.263.481a2.316 2.316 0 0 0-.369-.255.44.44 0 0 0-.372.027 2.831 2.831 0 0 0-.64.767c-.077.27-.096.553-.055.83.041.28.06.564.058.847-.018.14-.218.307-.369.351-.09.029-.267-.13-.365-.234a2.127 2.127 0 0 1-.53-1.645.57.57 0 0 0-.146-.426c-.066-.055-.281.02-.4.09a.462.462 0 0 1-.65-.077.41.41 0 0 0-.33-.106c-.699.172-1.346.51-1.89.986a4.541 4.541 0 0 0-1.23 1.75.626.626 0 0 0 .105.477c.135.213.338.38.491.585a.586.586 0 0 1-.334.973c-.18.04-.362.072-.546.093a.986.986 0 0 0-.828.412 1.004 1.004 0 0 0-.13.921c.07.417-.001.846-.203 1.216-.201.371-.521.662-.908.826a1.594 1.594 0 0 0-.988 1.003c-.261.757-.485 1.527-.726 2.29-.086.338-.193.67-.318.995a.55.55 0 0 1-.532.4.539.539 0 0 1-.23-.054 6.036 6.036 0 0 1-.928-.375 1.17 1.17 0 0 1-.67-1.133 2.628 2.628 0 0 0-1.035-2.152 3.351 3.351 0 0 1-.96-1.157 3.38 3.38 0 0 1-.36-1.464c-.148-5.355-.955-10.648-1.387-15.983-.424-5.24-.955-10.468-1.439-15.703a1.457 1.457 0 0 1 .236-1.18 1.438 1.438 0 0 1 1.041-.591.623.623 0 0 1 .724.402c.094.234.195.468.283.71.077.207.158.397.434.351.257-.045.273-.24.29-.448.034-.485.06-.973.123-1.456.082-.661.413-.856 1.044-.632.173.06.329.178.504.224.135.036.378.053.416-.014a.685.685 0 0 0 .048-.493c-.05-.156-.208-.274-.31-.415-.13-.178-.254-.36-.373-.547a.88.88 0 0 1-.145-1.03.879.879 0 0 1 .237-.282c.265-.306.531-.612.795-.92.37-.468.885-.797 1.463-.937.36-.104.671-.34.872-.66.2-.32.277-.703.216-1.076a1.481 1.481 0 0 1 .171-.941c.16-.286.41-.51.71-.636a1.106 1.106 0 0 0 .668-1.087.976.976 0 0 0-.157-.523 1.835 1.835 0 0 1-.095-2.008c.066-.173.166-.333.241-.503a.846.846 0 0 0-.217-1.072.528.528 0 0 1-.173-.65 7.02 7.02 0 0 1 1.895-3.233c.568-.56.894-1.323.908-2.124.11-.807.232-1.613.339-2.42a4.103 4.103 0 0 1 .687-1.735c2.492-3.762 4.98-7.528 7.464-11.295A1.383 1.383 0 0 1 38.2 5.13c.341.062.646.253.853.534.206.28.298.63.257.978 0 .37.007.741.02 1.112a1.586 1.586 0 0 0 .555 1.17c.307.283.645.527 1.008.728a.922.922 0 0 0 .718.008 7.93 7.93 0 0 1 2.863-.76.83.83 0 0 0 .493-.27 1.455 1.455 0 0 1 1.35-.457c.117.015.233.05.341.067.606.096.682.057.903-.514a.734.734 0 0 1 .727-.489 3.574 3.574 0 0 1 2.813 1.025l3.23 3.26c.342.35.66.72 1.025 1.04a2.125 2.125 0 0 1 .716 1.495c.232 2.559.475 5.117.73 7.675.341 3.53.687 7.06 1.036 10.59v.035a6.491 6.491 0 0 0-.055 1.644 4.541 4.541 0 0 1-.067 1.618c-.038.228-.05.46-.034.691a.896.896 0 0 0 .319.695.88.88 0 0 0 .736.19.577.577 0 0 1 .67.334 2.063 2.063 0 0 0 1.667.982c.446.067.893.128 1.339.19.332.045.564.176.58.566 0 .195.08.387.101.585a.663.663 0 0 1-.32.716c-.231.132-.245.282-.115.511.194.33.348.684.515 1.029.224.49.271 1.044.134 1.566a1.69 1.69 0 0 0-.014.844c.148.44.353.857.612 1.241a.955.955 0 0 0 .682.468.944.944 0 0 0 .789-.246 1.259 1.259 0 0 1 1.679.152c.414.435.79.904 1.125 1.404a.825.825 0 0 1 .033.637.93.93 0 0 0 .204.906c.267.276.435.634.477 1.018 0 .542-.232.758-.755.634-.272-.064-.564-.208-.66.217-.092.4.1.648.538.724.09.015.182.031.274.04 1.031.097 1.393.4 1.706 1.492"
        fill="#647F3A"/>
</svg>
