<svg xmlns="http://www.w3.org/2000/svg" width="6.749in" height="2.093in" viewBox="0 0 485.903 150.676"><defs><clipPath id="a"><path fill="none" d="M0 0h485.902v150.676H0z"/></clipPath></defs><g clip-path="url(#a)"><path d="M334.106 10.968V1.207a1.171 1.171 0 00-.352-.855A1.169 1.169 0 00332.9 0h-46.489a1.167 1.167 0 00-.856.352 1.167 1.167 0 00-.352.855v68.022a1.2 1.2 0 001.208 1.208H332.9a1.2 1.2 0 001.207-1.208v-9.76a1.2 1.2 0 00-1.207-1.208h-33a.444.444 0 01-.5-.5v-16.3a.444.444 0 01.5-.5h21.634a1.2 1.2 0 001.208-1.208v-9.76a1.2 1.2 0 00-1.208-1.208h-21.64a.444.444 0 01-.5-.5v-15.6a.445.445 0 01.5-.5h33a1.2 1.2 0 001.207-1.207M261.557.805L246.363 24.25q-.3.6-.6 0L230.666.805a1.58 1.58 0 00-1.409-.8h-11.773a1.167 1.167 0 00-.856.352 1.167 1.167 0 00-.352.855v68.017a1.2 1.2 0 001.208 1.208h11.773a1.2 1.2 0 001.207-1.208V24.955c0-.268.066-.419.2-.453s.267.05.4.251l10.666 16.7a1.574 1.574 0 001.409.8h5.937a1.575 1.575 0 001.408-.8l10.667-16.7q.2-.3.4-.3c.134 0 .2.135.2.4v44.376a1.2 1.2 0 001.208 1.208h11.773a1.2 1.2 0 001.207-1.208V1.207a1.171 1.171 0 00-.352-.855 1.169 1.169 0 00-.848-.352h-11.773a1.578 1.578 0 00-1.409.805" fill="#708e41"/><path d="M462.351 70.437h7.249a1.155 1.155 0 001.329-1.088L485.8 10.74a.906.906 0 00-.06-.967 1.114 1.114 0 00-.907-.363l-7.009-.121a1.243 1.243 0 00-1.329 1.088l-10.272 45.8c-.081.242-.162.363-.241.363s-.163-.121-.242-.363l-10.393-45.8a1.244 1.244 0 00-1.329-1.088H447c-.725 0-1.087.284-1.087.846l.12.484 14.985 58.73a1.243 1.243 0 001.329 1.088m-40.358-6.647a9.725 9.725 0 01-7.492-3.142 11.8 11.8 0 01-2.9-8.338V27.416a12.033 12.033 0 012.9-8.4 9.649 9.649 0 017.492-3.2 9.841 9.841 0 017.553 3.2 11.889 11.889 0 012.961 8.4V52.31a11.663 11.663 0 01-2.961 8.338 9.921 9.921 0 01-7.553 3.142m0 7.613q8.7 0 13.9-5.075t5.2-13.414V26.933a18.16 18.16 0 00-5.2-13.414q-5.2-5.195-13.9-5.2-8.582 0-13.776 5.2t-5.2 13.414v25.981q0 8.338 5.136 13.414t13.84 5.072m-47.491-8.1a9.638 9.638 0 01-7.492-3.2 11.851 11.851 0 01-2.9-8.277V27.416a12.033 12.033 0 012.9-8.4 9.647 9.647 0 017.492-3.2 9.333 9.333 0 017.311 3.2 12.2 12.2 0 012.84 8.4v24.411a12.013 12.013 0 01-2.84 8.277 9.324 9.324 0 01-7.311 3.2M384.649 10.5v3.746q0 .363-.181.423c-.121.042-.263-.06-.423-.3a12.994 12.994 0 00-5.257-4.532 15.821 15.821 0 00-6.828-1.51q-7.613 0-12.024 5.015t-4.41 13.474v25.5q0 8.338 4.41 13.414t12.024 5.07a15.291 15.291 0 006.828-1.571 13.416 13.416 0 005.257-4.592c.16-.16.3-.2.423-.121a.408.408 0 01.181.363V68.5q0 9.667-3.867 14.32t-13.535 4.411a1.067 1.067 0 00-1.208 1.208v5.2a1.2 1.2 0 001.208 1.329q14.017.6 20-6.1t5.982-19.637V10.5a1.07 1.07 0 00-1.208-1.209h-6.164a1.069 1.069 0 00-1.208 1.209M344.1 70.241a5.569 5.569 0 003.913-9.44 5.571 5.571 0 00-7.875 7.875 5.264 5.264 0 003.962 1.565" fill="#4a7ea6"/></g><g clip-path="url(#a)"><path d="M202.889 8.685q-7.977 0-11.481 9.184a.661.661 0 01-.423.242c-.12 0-.181-.121-.181-.363V10.5a1.069 1.069 0 00-1.204-1.211h-6.163a1.068 1.068 0 00-1.209 1.208v58.731a1.068 1.068 0 001.209 1.208h6.163a1.068 1.068 0 001.208-1.208V32.975a18.807 18.807 0 012.78-10.454q2.778-4.287 7.129-4.531a6.526 6.526 0 011.451-.121 8.076 8.076 0 013.625.725q1.328.363 1.45-.725l1.45-6.284a1.3 1.3 0 00-.6-1.571 9.788 9.788 0 00-5.2-1.329m-49.755 7.13a9.787 9.787 0 017.613 3.2 12.038 12.038 0 012.9 8.4v8.1a.428.428 0 01-.483.484h-19.823a.427.427 0 01-.483-.484v-8.1a12.19 12.19 0 012.84-8.4 9.459 9.459 0 017.432-3.2m18.972 26.1V26.811q0-8.215-5.136-13.353t-13.836-5.136q-8.583 0-13.716 5.136t-5.136 13.353v26.1q0 8.338 5.136 13.414t13.716 5.075q7.854 0 12.749-4.169a17.3 17.3 0 005.861-11.3 1.009 1.009 0 00-.242-.967 1.16 1.16 0 00-.846-.362l-6.042-.242a1.351 1.351 0 00-1.329 1.088 11.066 11.066 0 01-3.565 6.1 9.714 9.714 0 01-6.586 2.357 9.453 9.453 0 01-7.432-3.2 12 12 0 01-2.84-8.278v-8.818a.428.428 0 01.483-.484H170.9a1.068 1.068 0 001.208-1.208M105.19 70.436h7.25a1.155 1.155 0 001.33-1.087l14.864-58.61a.908.908 0 00-.061-.967 1.115 1.115 0 00-.906-.362l-7.009-.121a1.242 1.242 0 00-1.329 1.088l-10.272 45.8c-.081.241-.163.362-.242.362s-.162-.121-.242-.362l-10.392-45.8a1.244 1.244 0 00-1.329-1.088h-7.009q-1.088 0-1.088.846l.121.483 14.985 58.731a1.242 1.242 0 001.329 1.087M64.981 63.79a9.724 9.724 0 01-7.492-3.142 11.8 11.8 0 01-2.9-8.338V27.416a12.033 12.033 0 012.9-8.4 9.644 9.644 0 017.492-3.2 9.838 9.838 0 017.553 3.2 11.889 11.889 0 012.961 8.4V52.31a11.664 11.664 0 01-2.961 8.338 9.921 9.921 0 01-7.553 3.142m0 7.613q8.7 0 13.9-5.075t5.2-13.414V26.932a18.158 18.158 0 00-5.2-13.413q-5.2-5.195-13.9-5.2-8.581 0-13.776 5.2t-5.2 13.413v25.982q0 8.338 5.135 13.414T64.981 71.4m-46.129 0q8.579 0 13.837-4.773a15.55 15.55 0 005.256-12.024v-1.33a1.069 1.069 0 00-1.208-1.208l-6.163-.121a1.069 1.069 0 00-1.209 1.209V54a9.514 9.514 0 01-2.96 6.949 10.228 10.228 0 01-7.553 2.961 9.453 9.453 0 01-7.432-3.2 12.18 12.18 0 01-2.84-8.4V27.416a12.19 12.19 0 012.84-8.4 9.459 9.459 0 017.432-3.2 10.235 10.235 0 017.553 2.96 9.517 9.517 0 012.96 6.949v.846a1.068 1.068 0 001.209 1.208l6.163-.241a1.069 1.069 0 001.208-1.209V25.12a15.646 15.646 0 00-2.356-8.4 17.026 17.026 0 00-6.707-6.1 21.192 21.192 0 00-10.03-2.3q-8.46 0-13.655 5.136T0 26.811v26.1q0 8.338 5.136 13.414T18.852 71.4" fill="#4a7ea6"/><path d="M50.143 126.927c-.69.074-1.028.578-1.366 1.073a1.433 1.433 0 01-1.117.748.523.523 0 01-.568-.282.978.978 0 00-.239-.3.571.571 0 00-.987.344c-.034.173-.014.357-.041.532s-.047.387-.275.343c-.117-.023-.218-.187-.3-.305a1.01 1.01 0 01-.066-.311.774.774 0 01-.987.216c-.216-.083-.3.089-.291.289.01.158.049.315.059.473a.408.408 0 01-.351.475c-.534.112-1.066.229-1.6.333a.253.253 0 01-.187-.1.757.757 0 01-.093-.217c-.084-.21-.078-.509-.43-.463a.788.788 0 00-.782.713 6.355 6.355 0 01-.082.977c-.077.391-.268.438-.549.162-.112-.11-.187-.261-.306-.362a1.333 1.333 0 00-.339-.157 1.32 1.32 0 00-.095.362c0 .2.137.441.064.588a6.01 6.01 0 01-.7 1.028c-.1.127-.236.08-.256-.114a3.107 3.107 0 00-.066-.5 1.276 1.276 0 00-.211-.483c-.138-.164-.279-.282-.167-.531.058-.13-.026-.256-.2-.243a.784.784 0 01-.77-.46c-.115-.195-.252-.206-.393-.014-.319.434-.408.444-.838.08a1.694 1.694 0 01-.81.91c-.391.236-.554.214-.87-.139-.272-.305-.273-.306-.593-.042-.161.133-.326.262-.479.4a.864.864 0 00-.079 1.314 1.393 1.393 0 01.273.479c.06.227-.083.339-.309.272a4.657 4.657 0 00-.476-.168.925.925 0 00-.477.021c-.145.057-.233.057-.289-.078a1.161 1.161 0 00-1.115-.657 1.785 1.785 0 01-.55-.119.489.489 0 01-.238-.3c-.016-.073.113-.181.182-.269s.157-.13.18-.21c.129-.451.223-.516.672-.418l.118.024c-.035-.352-.148-.439-.472-.35-.171.047-.337.113-.583.2l.127-.51a4.892 4.892 0 00.193-.839 1.844 1.844 0 00-.158-.579l-.128-.011a1.892 1.892 0 00-.171.464.964.964 0 01-.938 1.031c-.8.115-.824.147-.541.917a1.017 1.017 0 01-.05.811c-.295.64-.6 1.277-.894 1.916a.557.557 0 01-.049.108 1.1 1.1 0 00-.149 1.292c.124.233-.015.452-.19.642a81.31 81.31 0 00-1.332 1.482.281.281 0 01-.482-.042.765.765 0 01-.058-.4c.036-.407-.028-.464-.424-.321-.149.054-.293.125-.437.191-.2.088-.3.024-.34-.182a1.459 1.459 0 00-.069-.349c-.035-.08-.132-.186-.2-.184a.325.325 0 00-.251.159c-.113.317-.19.646-.283.969-.118.407-.224.819-.369 1.216a.415.415 0 01-.313.2c-.066 0-.153-.155-.212-.252a4.651 4.651 0 00-.316-.552c-.134-.16-.264-.077-.333.1a.563.563 0 00-.029.116c-.109.749-.605.7-1.088.411a1.992 1.992 0 00-.317-.218.383.383 0 00-.321.023 2.426 2.426 0 00-.551.655 1.667 1.667 0 00-.047.71 4.7 4.7 0 01.05.724c-.016.119-.188.262-.318.3-.077.024-.23-.111-.315-.2a1.813 1.813 0 01-.456-1.406.485.485 0 00-.126-.364c-.057-.047-.242.017-.344.076a.4.4 0 01-.561-.065.352.352 0 00-.283-.091 3.882 3.882 0 00-2.687 2.339.53.53 0 00.09.407c.116.182.291.325.423.5a.5.5 0 01-.288.832 4.562 4.562 0 01-.47.079.854.854 0 00-.826 1.14 1.6 1.6 0 01-.956 1.745 1.374 1.374 0 00-.851.857c-.225.647-.418 1.305-.625 1.958a7.725 7.725 0 01-.274.85.468.468 0 01-.656.295 5.215 5.215 0 01-.8-.32.993.993 0 01-.577-.968 2.232 2.232 0 00-.891-1.84 2.87 2.87 0 01-1.138-2.24c-.127-4.577-.822-9.1-1.194-13.66-.365-4.478-.822-8.947-1.239-13.421a1.235 1.235 0 011.1-1.514.54.54 0 01.623.344c.081.2.168.4.244.607.066.177.136.339.374.3.221-.039.235-.206.249-.383.03-.415.053-.832.106-1.245.071-.565.356-.731.9-.54.149.052.283.152.434.192.116.03.325.045.358-.012a.581.581 0 00.041-.422c-.042-.133-.179-.234-.267-.354q-.167-.229-.321-.468a.752.752 0 01.079-1.121c.229-.262.458-.523.685-.787a2.3 2.3 0 011.26-.8 1.32 1.32 0 00.937-1.484 1.257 1.257 0 01.759-1.348.939.939 0 00.575-.929.829.829 0 00-.135-.447 1.56 1.56 0 01-.082-1.716c.057-.148.143-.285.208-.43a.718.718 0 00-.187-.916.451.451 0 01-.149-.555 5.991 5.991 0 011.632-2.764 2.607 2.607 0 00.782-1.815c.094-.69.2-1.379.292-2.069a3.491 3.491 0 01.592-1.482q3.219-4.824 6.428-9.654a1.2 1.2 0 011.571-.535 1.171 1.171 0 01.956 1.292c0 .317.006.634.018.951a1.348 1.348 0 00.478 1 4.489 4.489 0 00.868.622.8.8 0 00.618.007 6.872 6.872 0 012.466-.65.716.716 0 00.425-.23 1.254 1.254 0 011.163-.391c.1.013.2.042.293.057.522.082.587.049.778-.439a.628.628 0 01.626-.418 3.1 3.1 0 012.423.876l2.781 2.786c.295.3.569.616.883.889a1.817 1.817 0 01.617 1.278q.3 3.28.628 6.559.442 4.525.893 9.051v.03a5.508 5.508 0 00-.047 1.405 3.853 3.853 0 01-.058 1.383 2.5 2.5 0 00-.029.591.761.761 0 00.908.756.5.5 0 01.577.286 1.771 1.771 0 001.436.839c.384.057.769.109 1.153.162.286.039.486.151.5.484 0 .167.068.331.087.5a.563.563 0 01-.275.612c-.2.113-.212.241-.1.437.167.282.3.584.444.879a1.985 1.985 0 01.115 1.339 1.435 1.435 0 00-.012.721 4.415 4.415 0 00.527 1.061.819.819 0 001.267.189 1.09 1.09 0 011.446.13 9.071 9.071 0 01.969 1.2.7.7 0 01.029.545.789.789 0 00.175.774 1.473 1.473 0 01.411.87c0 .463-.2.648-.65.542-.234-.055-.486-.178-.569.185-.079.342.087.554.464.619.078.013.157.027.236.034.888.083 1.2.342 1.469 1.276" fill="#708e41"/><path d="M345.229 121.729v-2.521a.311.311 0 00-.312-.312h-12.006a.311.311 0 00-.312.312v17.567a.311.311 0 00.312.312h12.006a.311.311 0 00.312-.312v-2.52a.311.311 0 00-.312-.312h-8.524a.115.115 0 01-.13-.13V129.6a.115.115 0 01.13-.13h5.587a.311.311 0 00.312-.312v-2.518a.311.311 0 00-.312-.311h-5.587a.115.115 0 01-.13-.13v-4.028a.115.115 0 01.13-.13h8.524a.311.311 0 00.312-.312m-20.608-2.521l.026 10.915c0 .069-.017.108-.052.117s-.069-.013-.1-.065l-6.7-11.071a.374.374 0 00-.364-.208h-2.937a.311.311 0 00-.311.312v17.567a.311.311 0 00.311.312h3.041a.311.311 0 00.312-.312l-.052-10.966c0-.069.017-.108.052-.117s.069.013.1.065l6.73 11.122a.372.372 0 00.364.208h2.937a.311.311 0 00.311-.312v-17.567a.311.311 0 00-.311-.312h-3.041a.311.311 0 00-.312.312m-18.268 17.879h3.041a.311.311 0 00.311-.312v-17.567a.311.311 0 00-.311-.312h-3.041a.311.311 0 00-.312.312v17.567a.311.311 0 00.312.312m-14.318-5.9l2.287-7.718a.122.122 0 01.077-.091c.035-.008.061.022.078.091l2.339 7.718c.035.1 0 .156-.1.156h-4.573c-.087 0-.122-.052-.1-.156m6.834 5.9h3.3c.191 0 .286-.078.286-.234a.3.3 0 00-.026-.13l-5.613-17.567a.327.327 0 00-.338-.26h-4.09a.326.326 0 00-.338.26l-5.613 17.567a.283.283 0 00.026.273.288.288 0 00.233.091h3.3a.326.326 0 00.338-.26l.753-2.546c.035-.069.078-.1.13-.1h6.393c.052 0 .095.035.13.1l.779 2.546a.326.326 0 00.338.26m-19.75-17.987l-3.924 6.055c-.052.1-.1.1-.155 0l-3.9-6.055a.409.409 0 00-.364-.208h-3.041a.311.311 0 00-.312.312v17.567a.311.311 0 00.312.312h3.041a.311.311 0 00.312-.312v-11.43c0-.069.017-.108.052-.117s.069.013.1.065L274 129.6a.407.407 0 00.364.208h1.536a.407.407 0 00.364-.208l2.754-4.314c.035-.052.07-.078.1-.078s.052.035.052.1v11.46a.311.311 0 00.312.312h3.041a.311.311 0 00.312-.312v-17.56a.311.311 0 00-.312-.312h-3.041a.409.409 0 00-.364.208m-31.651 2.937h3.4a2.459 2.459 0 011.78.663 2.257 2.257 0 01.689 1.7 2.217 2.217 0 01-.689 1.689 2.488 2.488 0 01-1.78.649h-3.4a.115.115 0 01-.13-.13v-4.443a.115.115 0 01.13-.13m6.185 15.046h3.2c.19 0 .286-.069.286-.208a.418.418 0 00-.052-.156l-3.534-7.354a.124.124 0 01.078-.182 4.7 4.7 0 002.468-1.78 5.138 5.138 0 00.884-3.027 5.874 5.874 0 00-.689-2.885 4.745 4.745 0 00-1.949-1.923 6.1 6.1 0 00-2.923-.676h-7.432a.311.311 0 00-.312.312v17.567a.311.311 0 00.312.312h3.04a.311.311 0 00.312-.312v-7.094a.115.115 0 01.13-.13h2.417a.168.168 0 01.156.1l3.248 7.2a.367.367 0 00.364.234m-20.945-2.858a3.034 3.034 0 01-2.3-.91 3.346 3.346 0 01-.871-2.417v-5.717a3.4 3.4 0 01.871-2.43 3.017 3.017 0 012.3-.922 3.052 3.052 0 012.326.922 3.4 3.4 0 01.87 2.43v5.719a3.324 3.324 0 01-.883 2.417 3.08 3.08 0 01-2.313.91m0 3.144a7.58 7.58 0 003.6-.819 5.86 5.86 0 002.4-2.325 6.874 6.874 0 00.857-3.457v-5.561a6.675 6.675 0 00-.857-3.4 5.914 5.914 0 00-2.4-2.3 8.269 8.269 0 00-7.172 0 5.914 5.914 0 00-2.4 2.3 6.665 6.665 0 00-.858 3.4v5.561a6.792 6.792 0 00.858 3.444 5.974 5.974 0 002.4 2.325 7.419 7.419 0 003.573.832m-9.693-15.644v-2.521a.311.311 0 00-.312-.312h-11.98a.311.311 0 00-.312.312v17.567a.311.311 0 00.312.312h3.04a.311.311 0 00.312-.312V129.6a.115.115 0 01.13-.13h5.587a.311.311 0 00.312-.312v-2.518a.311.311 0 00-.312-.311h-5.587a.115.115 0 01-.13-.13v-4.028a.115.115 0 01.13-.13h8.5a.311.311 0 00.312-.312m-22.946 0v-2.521a.311.311 0 00-.312-.312h-12.012a.311.311 0 00-.312.312v17.567a.311.311 0 00.312.312h12.006a.311.311 0 00.312-.312v-2.52a.311.311 0 00-.312-.312h-8.524a.115.115 0 01-.13-.13V129.6a.115.115 0 01.13-.13h5.587a.311.311 0 00.312-.312v-2.518a.311.311 0 00-.312-.311h-5.587a.115.115 0 01-.13-.13v-4.028a.115.115 0 01.13-.13h8.524a.311.311 0 00.312-.312m-23.44 15.566a7.712 7.712 0 003.521-.767 5.5 5.5 0 002.352-2.221 6.8 6.8 0 00.831-3.431v-3.43a.311.311 0 00-.312-.312h-6.34a.311.311 0 00-.312.312v2.391a.311.311 0 00.312.312h2.91a.115.115 0 01.13.13v1.169a2.519 2.519 0 01-.806 1.988 3.128 3.128 0 01-2.156.715 3.206 3.206 0 01-2.313-.871 3 3 0 01-.91-2.274v-6.029a3.126 3.126 0 01.845-2.273 3.362 3.362 0 014.457-.052 2.715 2.715 0 01.831 2.013v.078a.311.311 0 00.312.312h3.04a.311.311 0 00.312-.312v-.181a5.472 5.472 0 00-.844-2.976 5.932 5.932 0 00-2.365-2.118 8.257 8.257 0 00-7.03.013 5.725 5.725 0 00-2.377 2.248 6.547 6.547 0 00-.845 3.352v5.819a6.48 6.48 0 00.845 3.34 5.824 5.824 0 002.377 2.247 7.476 7.476 0 003.535.806m-19.854-6.107l2.287-7.718a.121.121 0 01.078-.091c.034-.008.06.022.078.091l2.339 7.718c.034.1 0 .156-.1.156h-4.574c-.087 0-.121-.052-.1-.156m6.834 5.9h3.3c.19 0 .286-.078.286-.234a.3.3 0 00-.026-.13l-5.613-17.567a.327.327 0 00-.338-.26h-4.08a.326.326 0 00-.338.26l-5.613 17.567a.283.283 0 00.026.273.29.29 0 00.234.091h3.3a.326.326 0 00.338-.26l.753-2.546c.035-.069.078-.1.13-.1h6.393c.052 0 .095.035.13.1l.78 2.546a.325.325 0 00.337.26M138.2 122.041h3.4a2.459 2.459 0 011.78.663 2.257 2.257 0 01.689 1.7 2.217 2.217 0 01-.689 1.689 2.488 2.488 0 01-1.78.649h-3.4a.115.115 0 01-.13-.13v-4.443a.115.115 0 01.13-.13m6.184 15.046h3.2c.19 0 .286-.069.286-.208a.418.418 0 00-.052-.156l-3.534-7.354a.124.124 0 01.077-.182 4.7 4.7 0 002.469-1.78 5.138 5.138 0 00.884-3.027 5.874 5.874 0 00-.689-2.885 4.745 4.745 0 00-1.949-1.923 6.1 6.1 0 00-2.923-.676h-7.433a.311.311 0 00-.311.312v17.567a.311.311 0 00.311.312h3.041a.311.311 0 00.312-.312v-7.094a.115.115 0 01.13-.13h2.416a.168.168 0 01.156.1l3.249 7.2a.367.367 0 00.363.234m-13.824-15.358v-2.521a.311.311 0 00-.312-.312h-12.014a.311.311 0 00-.312.312v17.567a.311.311 0 00.312.312h12.006a.311.311 0 00.312-.312v-2.52a.311.311 0 00-.312-.312h-8.524a.115.115 0 01-.13-.13V129.6a.115.115 0 01.13-.13h5.587a.311.311 0 00.312-.312v-2.518a.311.311 0 00-.312-.311h-5.587a.115.115 0 01-.13-.13v-4.028a.115.115 0 01.13-.13h8.524a.311.311 0 00.312-.312m-25.1 15.358h3.274a.326.326 0 00.338-.26l5.433-17.567a.271.271 0 00-.026-.26.275.275 0 00-.234-.1h-3.2a.342.342 0 00-.364.26l-3.4 12.682q-.027.078-.078.078t-.078-.078l-3.457-12.682a.341.341 0 00-.363-.26h-3.28c-.19 0-.285.087-.285.26l.025.1 5.354 17.567a.325.325 0 00.338.26m-15.41-2.858a3.034 3.034 0 01-2.3-.91 3.346 3.346 0 01-.871-2.417v-5.717a3.4 3.4 0 01.871-2.43 3.017 3.017 0 012.3-.922 3.052 3.052 0 012.326.922 3.4 3.4 0 01.87 2.43v5.715a3.324 3.324 0 01-.883 2.417 3.08 3.08 0 01-2.313.91m0 3.144a7.58 7.58 0 003.6-.819 5.866 5.866 0 002.4-2.325 6.874 6.874 0 00.857-3.457v-5.561a6.675 6.675 0 00-.857-3.4 5.921 5.921 0 00-2.4-2.3 8.269 8.269 0 00-7.172 0 5.914 5.914 0 00-2.4 2.3 6.665 6.665 0 00-.858 3.4v5.561a6.792 6.792 0 00.858 3.444 5.974 5.974 0 002.4 2.325 7.419 7.419 0 003.573.832m-17.177-.078a7.821 7.821 0 003.521-.754 5.636 5.636 0 002.365-2.131 5.939 5.939 0 00.845-3.17.236.236 0 00-.091-.182.33.33 0 00-.221-.078l-3.041-.13c-.208 0-.312.1-.312.286a2.926 2.926 0 01-.844 2.183 3.028 3.028 0 01-2.222.832 3.062 3.062 0 01-2.248-.832 2.926 2.926 0 01-.844-2.183v-6.263a2.958 2.958 0 01.844-2.208 3.062 3.062 0 012.248-.832 3.028 3.028 0 012.222.832 2.958 2.958 0 01.844 2.208c0 .191.087.286.26.286h.052l3.041-.182c.208-.034.312-.13.312-.286a5.876 5.876 0 00-.845-3.157 5.592 5.592 0 00-2.365-2.105 7.941 7.941 0 00-3.521-.74 7.749 7.749 0 00-3.56.779 5.6 5.6 0 00-2.365 2.209 6.436 6.436 0 00-.832 3.3v6a6.438 6.438 0 00.832 3.3 5.679 5.679 0 002.365 2.221 7.64 7.64 0 003.56.793M336.752 93.222v6.99a.115.115 0 01-.13.13h-5.743a.115.115 0 01-.13-.13v-6.99a.311.311 0 00-.311-.312H327.4a.311.311 0 00-.312.312v17.567a.311.311 0 00.312.312h3.041a.311.311 0 00.311-.312v-7.172a.115.115 0 01.13-.13h5.743a.115.115 0 01.13.13v7.172a.311.311 0 00.312.312h3.041a.311.311 0 00.311-.312V93.222a.311.311 0 00-.311-.312h-3.041a.311.311 0 00-.312.312m-13.616-.312h-13.1a.311.311 0 00-.312.312v2.547a.3.3 0 00.091.221.3.3 0 00.221.091h4.522a.115.115 0 01.13.129v14.579a.311.311 0 00.312.312h3.04a.311.311 0 00.312-.312V96.21a.114.114 0 01.13-.129h4.652a.311.311 0 00.311-.312v-2.547a.311.311 0 00-.311-.312m-26.248 18.19h11.98a.311.311 0 00.312-.312v-2.521a.311.311 0 00-.312-.312h-8.5a.115.115 0 01-.13-.13v-14.6a.311.311 0 00-.311-.312h-3.041a.311.311 0 00-.312.312v17.567a.311.311 0 00.312.312m-14.318-5.9l2.287-7.718a.122.122 0 01.077-.091c.035-.009.061.022.078.091l2.339 7.718c.035.1 0 .156-.1.156h-4.573c-.087 0-.122-.052-.1-.156m6.834 5.9h3.3q.285 0 .285-.234a.3.3 0 00-.026-.13l-5.618-17.57a.327.327 0 00-.338-.26h-4.079a.326.326 0 00-.338.26l-5.613 17.567a.284.284 0 00.026.273.289.289 0 00.233.091h3.3a.327.327 0 00.338-.26l.753-2.547c.035-.069.078-.1.13-.1h6.393c.052 0 .095.035.13.1l.779 2.547a.327.327 0 00.338.26M274 95.743v-2.521a.311.311 0 00-.312-.312h-12.011a.311.311 0 00-.311.312v17.567a.311.311 0 00.311.312h12.006a.311.311 0 00.312-.312v-2.521a.311.311 0 00-.312-.312h-8.523a.115.115 0 01-.13-.13v-4.209a.115.115 0 01.13-.13h5.587a.311.311 0 00.312-.312v-2.521a.311.311 0 00-.312-.312h-5.587a.115.115 0 01-.13-.13v-4.028a.114.114 0 01.13-.129h8.523a.311.311 0 00.312-.312m-20.581-2.521v6.99a.115.115 0 01-.13.13h-5.743a.115.115 0 01-.13-.13v-6.99a.311.311 0 00-.312-.312h-3.04a.311.311 0 00-.312.312v17.567a.311.311 0 00.312.312h3.04a.311.311 0 00.312-.312v-7.172a.115.115 0 01.13-.13h5.743a.115.115 0 01.13.13v7.172a.311.311 0 00.312.312h3.04a.311.311 0 00.312-.312V93.222a.311.311 0 00-.312-.312h-3.04a.311.311 0 00-.312.312" fill="#3d5d6f"/><path d="M233.4 95.743v-2.521a.311.311 0 00-.312-.312h-12.002a.311.311 0 00-.311.312v17.567a.311.311 0 00.311.312h12.006a.311.311 0 00.312-.312v-2.521a.311.311 0 00-.312-.311h-8.523a.115.115 0 01-.13-.13v-4.21a.115.115 0 01.13-.13h5.587a.311.311 0 00.312-.312v-2.521a.309.309 0 00-.312-.311h-5.587a.115.115 0 01-.13-.13v-4.028a.115.115 0 01.13-.13h8.523a.311.311 0 00.312-.312M204.923 111.1H216.9a.311.311 0 00.312-.312v-2.521a.311.311 0 00-.312-.311h-8.5a.115.115 0 01-.13-.13V93.222a.311.311 0 00-.312-.312h-3.04a.311.311 0 00-.312.312v17.567a.311.311 0 00.312.312m-10.68-3.17h-3.249a.115.115 0 01-.13-.13v-4.314a.115.115 0 01.13-.13h3.223a2.731 2.731 0 011.9.611 2.418 2.418 0 010 3.352 2.692 2.692 0 01-1.871.611m-3.249-11.876h3.041a2.814 2.814 0 011.9.584 2.006 2.006 0 01.675 1.6 1.936 1.936 0 01-.675 1.559 2.854 2.854 0 01-1.9.572h-3.041a.115.115 0 01-.13-.13v-4.055a.115.115 0 01.13-.13m6.991 5.561a3.851 3.851 0 002.209-3.716q0-4.989-6.159-4.99h-6.523a.311.311 0 00-.312.312v17.567a.311.311 0 00.312.312h6.731a7.305 7.305 0 004.5-1.286 4.459 4.459 0 001.715-3.807 4.4 4.4 0 00-2.468-4.236q-.156-.078 0-.156m-24.794 3.584l2.287-7.718a.121.121 0 01.078-.091c.034-.008.06.022.077.091l2.339 7.718c.035.1 0 .156-.1.156H173.3c-.087 0-.122-.052-.1-.156m6.834 5.9h3.3q.285 0 .285-.234a.3.3 0 00-.026-.13l-5.618-17.566a.327.327 0 00-.338-.26h-4.079a.326.326 0 00-.338.26l-5.613 17.567a.283.283 0 00.026.273.289.289 0 00.233.091h3.3a.326.326 0 00.338-.26l.753-2.547c.035-.069.078-.1.13-.1h6.393c.052 0 .095.035.13.1l.779 2.547a.326.326 0 00.338.26m-24.271-3.274V96.185a.115.115 0 01.13-.13h3.118a2.572 2.572 0 011.988.8 3.065 3.065 0 01.741 2.157v5.977a3.159 3.159 0 01-.767 2.157 2.508 2.508 0 01-1.936.806h-3.144a.115.115 0 01-.13-.13M152.4 111.1h6.5a7.956 7.956 0 003.417-.689 5.308 5.308 0 002.274-1.936 5.2 5.2 0 00.806-2.884V98.42a5.2 5.2 0 00-.806-2.885 5.315 5.315 0 00-2.274-1.936 7.971 7.971 0 00-3.417-.689h-6.5a.311.311 0 00-.311.312v17.567a.311.311 0 00.311.312m-13.768-15.046h3.4a2.464 2.464 0 011.78.662 2.261 2.261 0 01.689 1.7 2.217 2.217 0 01-.689 1.689 2.49 2.49 0 01-1.78.649h-3.4a.115.115 0 01-.13-.13v-4.44a.115.115 0 01.13-.13m6.184 15.046h3.2c.19 0 .286-.069.286-.208a.418.418 0 00-.052-.156l-3.535-7.354a.123.123 0 01.078-.182 4.7 4.7 0 002.469-1.78 5.138 5.138 0 00.884-3.027 5.874 5.874 0 00-.689-2.885 4.739 4.739 0 00-1.949-1.923 6.1 6.1 0 00-2.923-.676h-7.433a.311.311 0 00-.312.312v17.567a.311.311 0 00.312.312h3.041a.311.311 0 00.312-.312V103.7a.115.115 0 01.13-.13h2.416a.168.168 0 01.156.1l3.249 7.2a.367.367 0 00.363.234m-20.945-2.859a3.033 3.033 0 01-2.3-.909 3.346 3.346 0 01-.871-2.417V99.2a3.4 3.4 0 01.871-2.43 3.017 3.017 0 012.3-.922 3.049 3.049 0 012.326.922 3.4 3.4 0 01.871 2.43v5.717a3.321 3.321 0 01-.884 2.417 3.077 3.077 0 01-2.313.909m0 3.145a7.582 7.582 0 003.6-.819 5.86 5.86 0 002.4-2.326 6.858 6.858 0 00.858-3.456v-5.562a6.665 6.665 0 00-.858-3.4 5.912 5.912 0 00-2.4-2.3 8.262 8.262 0 00-7.173 0 5.906 5.906 0 00-2.4 2.3 6.665 6.665 0 00-.858 3.4v5.561a6.788 6.788 0 00.858 3.443 5.961 5.961 0 002.4 2.326 7.422 7.422 0 003.573.832m-9.693-15.644v-2.521a.311.311 0 00-.312-.312h-11.982a.311.311 0 00-.312.312v17.567a.311.311 0 00.312.312h3.04a.311.311 0 00.312-.312v-7.172a.115.115 0 01.13-.13h5.587a.311.311 0 00.312-.312v-2.521a.309.309 0 00-.312-.311h-5.587a.115.115 0 01-.13-.13v-4.028a.115.115 0 01.13-.13h8.5a.311.311 0 00.312-.312m-15.851 0v-2.521a.311.311 0 00-.312-.312H86.035a.311.311 0 00-.312.312v17.567a.311.311 0 00.312.312h3.04a.311.311 0 00.312-.312v-7.172a.115.115 0 01.13-.13H95.1a.311.311 0 00.312-.312v-2.521a.309.309 0 00-.312-.311h-5.583a.115.115 0 01-.13-.13v-4.028a.115.115 0 01.13-.13h8.5a.311.311 0 00.312-.312M71.717 105.2L74 97.484a.121.121 0 01.078-.091c.035-.008.061.022.078.091L76.5 105.2c.035.1 0 .156-.1.156h-4.58c-.086 0-.121-.052-.1-.156m6.834 5.9h3.3c.191 0 .286-.078.286-.234a.3.3 0 00-.026-.13L76.5 93.17a.327.327 0 00-.338-.26H72.08a.325.325 0 00-.337.26l-5.614 17.567a.283.283 0 00.026.273.29.29 0 00.234.091h3.3a.325.325 0 00.337-.26l.754-2.547c.035-.069.078-.1.13-.1h6.39c.052 0 .095.035.13.1l.779 2.547a.326.326 0 00.338.26" fill="#4a7ea6"/></g></svg>