<svg width="20" height="20" viewBox="0 0 26 26" fill="none" xmlns="http://www.w3.org/2000/svg">
<path d="M15.71 2.48812L24.8626 20.8003C25.8702 22.8163 24.4045 25.1875 22.1526 25.1875H3.84741C1.59545 25.1875 0.12975 22.8163 1.13739 20.8003L10.29 2.48811C11.4066 0.253961 14.5934 0.253962 15.71 2.48812Z" fill="#FFD600" stroke="#323130" stroke-width="1.625"/>
<path d="M14.0932 17.1399H11.9248L11.4716 8.45761H14.5464L14.0932 17.1399ZM11.436 20.1792C11.436 19.6815 11.5693 19.3053 11.8359 19.0506C12.1025 18.7958 12.4906 18.6685 13.0001 18.6685C13.4918 18.6685 13.871 18.7988 14.1376 19.0595C14.4101 19.3201 14.5464 19.6934 14.5464 20.1792C14.5464 20.6472 14.4101 21.0175 14.1376 21.29C13.8651 21.5566 13.4859 21.6899 13.0001 21.6899C12.5024 21.6899 12.1174 21.5596 11.8448 21.2989C11.5723 21.0323 11.436 20.6591 11.436 20.1792Z" fill="#323130"/>
</svg>
