<svg xmlns="http://www.w3.org/2000/svg" width="647.9" height="200.9" viewBox="0 0 485.9 150.7">
  <defs>
    <clipPath id="a">
      <path fill="none" d="M0 0h485.9v150.7H0z"/>
    </clipPath>
  </defs>
  <g clip-path="url(#a)">
    <path
      d="M334.1 11V1.2a1.2 1.2 0 0 0-.3-.8 1.2 1.2 0 0 0-.9-.4h-46.5a1.2 1.2 0 0 0-.8.4 1.2 1.2 0 0 0-.4.8v68a1.2 1.2 0 0 0 1.2 1.2H333a1.2 1.2 0 0 0 1.2-1.2v-9.7a1.2 1.2 0 0 0-1.2-1.2h-33a.4.4 0 0 1-.5-.5V41.5a.4.4 0 0 1 .5-.5h21.6a1.2 1.2 0 0 0 1.2-1.2V30a1.2 1.2 0 0 0-1.2-1.2H300a.4.4 0 0 1-.5-.5V12.7a.4.4 0 0 1 .5-.5h33A1.2 1.2 0 0 0 334 11M261.6.8l-15.2 23.4q-.3.7-.6 0L230.7.9a1.6 1.6 0 0 0-1.4-.8h-11.8a1.2 1.2 0 0 0-.9.4 1.2 1.2 0 0 0-.3.8v68a1.2 1.2 0 0 0 1.2 1.2h11.8a1.2 1.2 0 0 0 1.2-1.2V25c0-.3 0-.5.2-.5s.2 0 .4.3l10.6 16.7a1.6 1.6 0 0 0 1.4.8h6a1.6 1.6 0 0 0 1.4-.8l10.7-16.7q.2-.3.4-.3s.2 0 .2.4v44.3a1.2 1.2 0 0 0 1.2 1.2h11.7a1.2 1.2 0 0 0 1.2-1.2v-68a1.2 1.2 0 0 0-.3-.8 1.2 1.2 0 0 0-.9-.4H263a1.6 1.6 0 0 0-1.4.8"
      fill="#708e41"/>
    <path
      d="M462.4 70.4h7.2a1.2 1.2 0 0 0 1.3-1l14.9-58.7a1 1 0 0 0 0-1 1.1 1.1 0 0 0-1-.3l-7-.1a1.2 1.2 0 0 0-1.3 1l-10.3 45.9c0 .2-.1.3-.2.3l-.3-.3-10.4-45.8a1.2 1.2 0 0 0-1.3-1.1h-7c-.7 0-1 .3-1 .8v.5l15 58.7a1.2 1.2 0 0 0 1.3 1.1M422 63.8a9.7 9.7 0 0 1-7.5-3.2 11.8 11.8 0 0 1-2.9-8.3V27.4a12 12 0 0 1 2.9-8.4 9.6 9.6 0 0 1 7.5-3.2 9.8 9.8 0 0 1 7.5 3.2 11.9 11.9 0 0 1 3 8.4v25a11.7 11.7 0 0 1-3 8.2 10 10 0 0 1-7.5 3.2m0 7.6q8.7 0 13.9-5t5.2-13.5V27a18.2 18.2 0 0 0-5.2-13.4q-5.2-5.2-14-5.2-8.5 0-13.7 5.2T403 27v26q0 8.4 5.1 13.4t13.9 5.1m-47.5-8.1a9.6 9.6 0 0 1-7.5-3.2 11.9 11.9 0 0 1-2.9-8.3V27.4a12 12 0 0 1 3-8.4 9.6 9.6 0 0 1 7.4-3.2 9.3 9.3 0 0 1 7.3 3.2 12.2 12.2 0 0 1 2.8 8.4v24.4a12 12 0 0 1-2.8 8.3 9.3 9.3 0 0 1-7.3 3.2m10.1-52.8v3.7l-.1.5c-.2 0-.3 0-.5-.3a13 13 0 0 0-5.2-4.6 15.8 15.8 0 0 0-6.8-1.5q-7.7 0-12 5t-4.5 13.5v25.5q0 8.4 4.4 13.4t12 5.1a15.3 15.3 0 0 0 6.9-1.6 13.4 13.4 0 0 0 5.2-4.6c.2-.1.3-.2.5 0a.4.4 0 0 1 .1.3v3.6q0 9.7-3.8 14.3t-13.6 4.4a1 1 0 0 0-1.2 1.2v5.2a1.2 1.2 0 0 0 1.2 1.4q14 .6 20-6.1t6-19.7V10.5a1 1 0 0 0-1.2-1.2H386a1 1 0 0 0-1.3 1.2m-40.5 59.7a5.6 5.6 0 0 0 4-9.4 5.6 5.6 0 0 0-8 7.9 5.3 5.3 0 0 0 4 1.5"
      fill="#4a7ea6"/>
  </g>
  <g clip-path="url(#a)">
    <path
      d="M202.9 8.7q-8 0-11.5 9.2a.7.7 0 0 1-.4.2c-.1 0-.2-.1-.2-.4v-7.2a1 1 0 0 0-1.2-1.2h-6.2a1 1 0 0 0-1.2 1.2v58.7a1 1 0 0 0 1.2 1.2h6.2a1 1 0 0 0 1.2-1.2V33a18.8 18.8 0 0 1 2.8-10.5q2.8-4.3 7.1-4.5a6.5 6.5 0 0 1 1.5-.1 8 8 0 0 1 3.6.7q1.3.4 1.4-.7l1.5-6.3a1.3 1.3 0 0 0-.6-1.6 9.8 9.8 0 0 0-5.2-1.3M153 15.8a9.8 9.8 0 0 1 7.7 3.2 12 12 0 0 1 2.9 8.4v8.1a.4.4 0 0 1-.5.5h-19.9a.4.4 0 0 1-.4-.5v-8a12.2 12.2 0 0 1 2.8-8.5 9.5 9.5 0 0 1 7.4-3.2m19 26.1V27q0-8.3-5.1-13.4T153 8.3q-8.5 0-13.7 5.2t-5.1 13.3V53q0 8.3 5.1 13.4t13.7 5.1q7.9 0 12.8-4.2a17.3 17.3 0 0 0 5.8-11.3 1 1 0 0 0-.2-1 1.2 1.2 0 0 0-.8-.3l-6-.2a1.4 1.4 0 0 0-1.4 1 11 11 0 0 1-3.6 6.1 9.7 9.7 0 0 1-6.6 2.4 9.5 9.5 0 0 1-7.4-3.2 12 12 0 0 1-2.8-8.3v-8.8a.4.4 0 0 1 .4-.5H171a1 1 0 0 0 1.2-1.2m-67 28.5h7.3a1.2 1.2 0 0 0 1.4-1l14.8-58.7a1 1 0 0 0 0-1 1.1 1.1 0 0 0-1-.3l-7-.1a1.2 1.2 0 0 0-1.3 1l-10.2 45.9-.3.3-.2-.3-10.4-45.8a1.2 1.2 0 0 0-1.3-1.1h-7q-1.1 0-1.1.8v.5l15 58.7a1.2 1.2 0 0 0 1.4 1.1M65 63.8a9.7 9.7 0 0 1-7.5-3.2 11.8 11.8 0 0 1-3-8.3V27.4a12 12 0 0 1 3-8.4 9.6 9.6 0 0 1 7.5-3.2 9.8 9.8 0 0 1 7.5 3.2 11.9 11.9 0 0 1 3 8.4v25a11.7 11.7 0 0 1-3 8.2 10 10 0 0 1-7.5 3.2m0 7.6q8.7 0 13.9-5T84 52.8V27a18.2 18.2 0 0 0-5.2-13.4q-5.2-5.2-14-5.2-8.5 0-13.7 5.2T46 27v26q0 8.4 5.1 13.4T65 71.4m-46.1 0q8.5 0 13.8-4.8a15.6 15.6 0 0 0 5.2-12v-1.3a1 1 0 0 0-1.2-1.2l-6.1-.2a1 1 0 0 0-1.2 1.3v.8a9.5 9.5 0 0 1-3 7 10.2 10.2 0 0 1-7.5 3 9.5 9.5 0 0 1-7.5-3.3 12.2 12.2 0 0 1-2.8-8.4V27.4a12.2 12.2 0 0 1 2.8-8.4 9.5 9.5 0 0 1 7.5-3.2 10.2 10.2 0 0 1 7.5 3 9.5 9.5 0 0 1 3 7v.8a1 1 0 0 0 1.2 1.2l6.1-.3a1 1 0 0 0 1.2-1.2v-1.2a15.6 15.6 0 0 0-2.3-8.4 17 17 0 0 0-6.7-6 21.2 21.2 0 0 0-10-2.4q-8.5 0-13.7 5.2T0 26.8V53q0 8.3 5.1 13.4T19 71.4"
      fill="#4a7ea6"/>
    <path
      d="M50.1 127c-.6 0-1 .5-1.3 1a1.4 1.4 0 0 1-1.1.7.5.5 0 0 1-.6-.2 1 1 0 0 0-.2-.3.6.6 0 0 0-1 .3v.5c0 .1-.1.4-.3.4-.2 0-.3-.2-.3-.3a1 1 0 0 1-.1-.3.8.8 0 0 1-1 .2c-.2-.1-.3 0-.3.3v.4a.4.4 0 0 1-.3.5l-1.6.4a.3.3 0 0 1-.2-.1.8.8 0 0 1 0-.3c-.1-.2-.1-.5-.5-.4a.8.8 0 0 0-.8.7 6.4 6.4 0 0 1 0 1c-.1.4-.3.4-.6.1l-.3-.3a1.3 1.3 0 0 0-.4-.2 1.3 1.3 0 0 0 0 .4v.6a6 6 0 0 1-.7 1l-.2-.1a3.1 3.1 0 0 0-.1-.5 1.3 1.3 0 0 0-.2-.5c-.2-.2-.3-.3-.2-.5 0-.2 0-.3-.2-.3a.8.8 0 0 1-.8-.4c0-.2-.2-.3-.3 0-.4.4-.5.4-.9 0a1.7 1.7 0 0 1-.8 1c-.4.2-.6.1-.9-.2-.2-.3-.2-.3-.6 0l-.4.3a.9.9 0 0 0-.1 1.4 1.4 1.4 0 0 1 .3.4c0 .3-.1.4-.4.3a4.7 4.7 0 0 0-.4-.2 1 1 0 0 0-.5 0h-.3a1.2 1.2 0 0 0-1.1-.7 1.8 1.8 0 0 1-.6 0 .5.5 0 0 1-.2-.4l.2-.3.2-.2c0-.4.2-.5.6-.4h.2c0-.3-.2-.4-.5-.3l-.6.2.1-.5a4.9 4.9 0 0 0 .2-.9 1.8 1.8 0 0 0-.1-.5h-.2a1.9 1.9 0 0 0-.1.4 1 1 0 0 1-1 1c-.8.2-.8.2-.5 1a1 1 0 0 1 0 .8l-1 1.9a.6.6 0 0 1 0 .1 1.1 1.1 0 0 0-.2 1.3c.2.2 0 .4-.1.6a81.3 81.3 0 0 0-1.4 1.5.3.3 0 0 1-.5 0 .8.8 0 0 1 0-.4c0-.4 0-.5-.4-.3l-.5.1c-.2.1-.3 0-.3-.1a1.5 1.5 0 0 0 0-.4l-.3-.2a.3.3 0 0 0-.2.2c-.2.3-.2.6-.3 1l-.4 1.2a.4.4 0 0 1-.3.2l-.2-.3a4.7 4.7 0 0 0-.3-.5c-.2-.2-.3-.1-.4 0a.6.6 0 0 0 0 .2c-.1.7-.6.7-1 .4a2 2 0 0 0-.4-.2.4.4 0 0 0-.3 0 2.4 2.4 0 0 0-.6.7 1.7 1.7 0 0 0 0 .7 4.7 4.7 0 0 1 0 .7l-.3.3-.3-.2a1.8 1.8 0 0 1-.5-1.4.5.5 0 0 0 0-.4h-.4a.4.4 0 0 1-.6 0 .4.4 0 0 0-.3 0A3.9 3.9 0 0 0 14 142a.5.5 0 0 0 .1.4l.5.5a.5.5 0 0 1-.3.8 4.6 4.6 0 0 1-.5.1.9.9 0 0 0-.8 1.1 1.6 1.6 0 0 1-1 1.8 1.4 1.4 0 0 0-.8.8l-.7 2a7.7 7.7 0 0 1-.2.8.5.5 0 0 1-.7.3 5.2 5.2 0 0 1-.8-.3 1 1 0 0 1-.6-1 2.2 2.2 0 0 0-.9-1.8 2.9 2.9 0 0 1-1.1-2.2c-.1-4.6-.8-9.1-1.2-13.7l-1.2-13.4a1.2 1.2 0 0 1 1-1.5.5.5 0 0 1 .7.3l.2.6c.1.2.2.4.4.3.2 0 .2-.2.3-.4v-1.2c.1-.6.4-.7 1-.5l.4.2h.4a.6.6 0 0 0 0-.5l-.3-.3-.3-.5a.8.8 0 0 1 0-1.1l.8-.8a2.3 2.3 0 0 1 1.2-.8 1.3 1.3 0 0 0 1-1.5 1.3 1.3 0 0 1 .7-1.3 1 1 0 0 0 .6-1 .8.8 0 0 0-.1-.4 1.6 1.6 0 0 1-.1-1.7l.2-.5a.7.7 0 0 0-.2-.9.5.5 0 0 1-.1-.5 6 6 0 0 1 1.6-2.8 2.6 2.6 0 0 0 .8-1.8c0-.7.2-1.4.3-2a3.5 3.5 0 0 1 .6-1.6l6.4-9.6a1.2 1.2 0 0 1 1.6-.6 1.2 1.2 0 0 1 1 1.3v1a1.3 1.3 0 0 0 .4 1 4.5 4.5 0 0 0 .9.6.8.8 0 0 0 .6 0 6.9 6.9 0 0 1 2.5-.6.7.7 0 0 0 .4-.3 1.3 1.3 0 0 1 1.1-.4l.3.1c.6 0 .6 0 .8-.4a.6.6 0 0 1 .6-.5 3.1 3.1 0 0 1 2.5 1l2.7 2.7 1 .9a1.8 1.8 0 0 1 .5 1.3l.7 6.5.9 9v.1a5.5 5.5 0 0 0 0 1.4 3.9 3.9 0 0 1-.1 1.4 2.5 2.5 0 0 0 0 .6.8.8 0 0 0 .8.7.5.5 0 0 1 .6.3 1.8 1.8 0 0 0 1.5.9l1.1.1c.3 0 .5.2.5.5l.1.5a.6.6 0 0 1-.3.6c-.2.1-.2.3 0 .5 0 .3.2.6.4.8a2 2 0 0 1 0 1.4 1.4 1.4 0 0 0 0 .7 4.4 4.4 0 0 0 .6 1 .8.8 0 0 0 1.3.3 1 1 0 0 1 1.4 0 9 9 0 0 1 1 1.3.7.7 0 0 1 0 .5.8.8 0 0 0 .2.8 1.5 1.5 0 0 1 .4.9c0 .4-.2.6-.7.5-.2 0-.4-.2-.5.2-.1.3 0 .6.4.6h.3c.9.1 1.2.4 1.4 1.3"
      fill="#708e41"/>
    <path
      d="M345.2 121.7v-2.5a.3.3 0 0 0-.3-.3h-12a.3.3 0 0 0-.3.3v17.6a.3.3 0 0 0 .3.3h12a.3.3 0 0 0 .3-.3v-2.5a.3.3 0 0 0-.3-.4h-8.5a.1.1 0 0 1-.1 0v-4.3a.1.1 0 0 1 0-.1h5.7a.3.3 0 0 0 .3-.3v-2.6a.3.3 0 0 0-.3-.3h-5.6a.1.1 0 0 1-.1-.1v-4a.1.1 0 0 1 0-.2h8.6a.3.3 0 0 0 .3-.3m-20.6-2.5v11h-.1l-6.7-11.1a.4.4 0 0 0-.4-.2h-3a.3.3 0 0 0-.2.3v17.6a.3.3 0 0 0 .3.3h3a.3.3 0 0 0 .3-.3v-11.1h.1l6.8 11.2a.4.4 0 0 0 .3.2h3a.3.3 0 0 0 .3-.3v-17.6a.3.3 0 0 0-.3-.3h-3a.3.3 0 0 0-.4.3m-18.2 17.9h3a.3.3 0 0 0 .3-.3v-17.6a.3.3 0 0 0-.3-.3h-3a.3.3 0 0 0-.4.3v17.6a.3.3 0 0 0 .4.3m-14.4-6 2.3-7.6a.1.1 0 0 1 .1-.1l2.4 7.8v.1H292v-.1m6.8 5.9h3.3c.2 0 .3 0 .3-.2a.3.3 0 0 0 0-.2l-5.7-17.5a.3.3 0 0 0-.3-.3h-4.1a.3.3 0 0 0-.3.3l-5.7 17.5a.3.3 0 0 0 0 .3.3.3 0 0 0 .3 0h3.3a.3.3 0 0 0 .3-.2l.8-2.5.1-.1H297.8l.7 2.6a.3.3 0 0 0 .4.3M279 119l-4 6c0 .2 0 .2 0 0l-4-6a.4.4 0 0 0-.3-.2h-3a.3.3 0 0 0-.4.3v17.6a.3.3 0 0 0 .3.3h3a.3.3 0 0 0 .4-.3v-11.5h.1l2.8 4.3a.4.4 0 0 0 .4.2h1.5a.4.4 0 0 0 .4-.2l2.7-4.3h.1c.1 0 0 0 0 0v11.5a.3.3 0 0 0 .4.3h3a.3.3 0 0 0 .3-.3v-17.6a.3.3 0 0 0-.3-.3h-3a.4.4 0 0 0-.4.2m-31.6 3h3.4a2.5 2.5 0 0 1 1.7.6 2.3 2.3 0 0 1 .7 1.7 2.2 2.2 0 0 1-.7 1.7 2.5 2.5 0 0 1-1.7.6h-3.4a.1.1 0 0 1-.2 0v-4.5a.1.1 0 0 1 .2-.2m6.2 15h3.2l.2-.1a.4.4 0 0 0 0-.2l-3.5-7.3a.1.1 0 0 1 0-.2 4.7 4.7 0 0 0 2.5-1.8 5.1 5.1 0 0 0 .9-3 5.9 5.9 0 0 0-.7-3 4.7 4.7 0 0 0-2-1.8 6.1 6.1 0 0 0-2.9-.7H244a.3.3 0 0 0-.3.3v17.6a.3.3 0 0 0 .3.3h3a.3.3 0 0 0 .3-.3v-7.1a.1.1 0 0 1 .2-.2h2.4a.2.2 0 0 1 .1.1l3.3 7.2a.4.4 0 0 0 .4.3m-21-2.9a3 3 0 0 1-2.3-.9 3.3 3.3 0 0 1-.9-2.4v-5.7a3.4 3.4 0 0 1 1-2.4 3 3 0 0 1 2.2-1 3 3 0 0 1 2.3 1 3.4 3.4 0 0 1 1 2.4v5.7a3.3 3.3 0 0 1-1 2.4 3 3 0 0 1-2.3 1m0 3a7.6 7.6 0 0 0 3.6-.7 5.9 5.9 0 0 0 2.4-2.4 6.9 6.9 0 0 0 .9-3.4v-5.6a6.7 6.7 0 0 0-.9-3.4 6 6 0 0 0-2.4-2.3 8.3 8.3 0 0 0-7.2 0 6 6 0 0 0-2.4 2.3 6.7 6.7 0 0 0-.8 3.4v5.6a6.8 6.8 0 0 0 .8 3.4 6 6 0 0 0 2.4 2.3 7.4 7.4 0 0 0 3.6.9m-9.7-15.7v-2.5a.3.3 0 0 0-.3-.3h-12a.3.3 0 0 0-.3.3v17.6a.3.3 0 0 0 .3.3h3a.3.3 0 0 0 .4-.3v-7.2a.1.1 0 0 1 .1-.1h5.6a.3.3 0 0 0 .3-.3v-2.6a.3.3 0 0 0-.3-.3h-5.6a.1.1 0 0 1-.1-.1v-4a.1.1 0 0 1 .1-.2h8.5a.3.3 0 0 0 .3-.3m-23 0v-2.5a.3.3 0 0 0-.2-.3h-12a.3.3 0 0 0-.4.3v17.6a.3.3 0 0 0 .4.3h12a.3.3 0 0 0 .3-.3v-2.5a.3.3 0 0 0-.3-.4h-8.6a.1.1 0 0 1-.1 0v-4.3a.1.1 0 0 1 .1-.1h5.6a.3.3 0 0 0 .3-.3v-2.6a.3.3 0 0 0-.3-.3h-5.6a.1.1 0 0 1-.1-.1v-4a.1.1 0 0 1 .1-.2h8.6a.3.3 0 0 0 .3-.3m-23.5 15.6a7.7 7.7 0 0 0 3.6-.8 5.5 5.5 0 0 0 2.3-2.2 6.8 6.8 0 0 0 .8-3.4v-3.5a.3.3 0 0 0-.3-.3h-6.3a.3.3 0 0 0-.3.3v2.4a.3.3 0 0 0 .3.3h2.9a.1.1 0 0 1 .1.2v1.1a2.5 2.5 0 0 1-.8 2 3.1 3.1 0 0 1-2.1.8 3.2 3.2 0 0 1-2.4-1 3 3 0 0 1-.9-2.2v-6a3.1 3.1 0 0 1 .9-2.3 3.4 3.4 0 0 1 4.4 0 2.7 2.7 0 0 1 .9 2 .3.3 0 0 0 .3.4h3a.3.3 0 0 0 .3-.4v-.1a5.5 5.5 0 0 0-.8-3 6 6 0 0 0-2.4-2.1 8.3 8.3 0 0 0-7 0 5.7 5.7 0 0 0-2.4 2.2 6.5 6.5 0 0 0-.8 3.4v5.8a6.5 6.5 0 0 0 .8 3.3 5.8 5.8 0 0 0 2.4 2.3 7.5 7.5 0 0 0 3.5.8m-19.8-6.1 2.3-7.7a.1.1 0 0 1 0-.1h.1l2.4 7.8-.1.1h-4.6l-.1-.1m6.8 5.9h3.3c.2 0 .3 0 .3-.2a.3.3 0 0 0 0-.2l-5.6-17.5a.3.3 0 0 0-.4-.3h-4a.3.3 0 0 0-.4.3l-5.6 17.5a.3.3 0 0 0 0 .3.3.3 0 0 0 .3 0h3.3a.3.3 0 0 0 .3-.2l.7-2.5.2-.1h6.5l.8 2.6a.3.3 0 0 0 .3.3m-25.4-15h3.4a2.5 2.5 0 0 1 1.8.6 2.3 2.3 0 0 1 .7 1.7 2.2 2.2 0 0 1-.7 1.7 2.5 2.5 0 0 1-1.8.6h-3.4a.1.1 0 0 1-.1 0v-4.5a.1.1 0 0 1 .1-.2m6.2 15h3.2l.3-.1a.4.4 0 0 0 0-.2l-3.6-7.3a.1.1 0 0 1 0-.2 4.7 4.7 0 0 0 2.5-1.8 5.1 5.1 0 0 0 1-3 5.9 5.9 0 0 0-.8-3 4.7 4.7 0 0 0-2-1.8 6.1 6.1 0 0 0-2.8-.7h-7.5a.3.3 0 0 0-.3.3v17.6a.3.3 0 0 0 .3.3h3a.3.3 0 0 0 .4-.3v-7.1a.1.1 0 0 1 .1-.2h2.4a.2.2 0 0 1 .2.1l3.2 7.2a.4.4 0 0 0 .4.3m-13.8-15.4v-2.5a.3.3 0 0 0-.3-.3h-12a.3.3 0 0 0-.4.3v17.6a.3.3 0 0 0 .3.3h12a.3.3 0 0 0 .4-.3v-2.5a.3.3 0 0 0-.4-.4h-8.5a.1.1 0 0 1-.1 0v-4.3a.1.1 0 0 1 .1-.1h5.6a.3.3 0 0 0 .3-.3v-2.6a.3.3 0 0 0-.3-.3h-5.6a.1.1 0 0 1-.1-.1v-4a.1.1 0 0 1 .1-.2h8.5a.3.3 0 0 0 .4-.3m-25.1 15.4h3.2a.3.3 0 0 0 .4-.3l5.4-17.5a.3.3 0 0 0 0-.3.3.3 0 0 0-.3-.1H111a.3.3 0 0 0-.3.3l-3.4 12.6-.1.1q-.1 0 0 0l-3.5-12.7a.3.3 0 0 0-.4-.3H100c-.2 0-.3 0-.3.3l5.4 17.6a.3.3 0 0 0 .4.3M90 134.2a3 3 0 0 1-2.3-.9 3.3 3.3 0 0 1-.8-2.4v-5.7a3.4 3.4 0 0 1 .8-2.4 3 3 0 0 1 2.3-1 3 3 0 0 1 2.4 1 3.4 3.4 0 0 1 .8 2.4v5.7a3.3 3.3 0 0 1-.8 2.4 3 3 0 0 1-2.4 1m0 3a7.6 7.6 0 0 0 3.6-.7 5.9 5.9 0 0 0 2.4-2.4 6.9 6.9 0 0 0 .9-3.4v-5.6a6.7 6.7 0 0 0-.9-3.4 6 6 0 0 0-2.4-2.3 8.3 8.3 0 0 0-7.1 0 6 6 0 0 0-2.4 2.3 6.7 6.7 0 0 0-.9 3.4v5.6a6.8 6.8 0 0 0 .9 3.4 6 6 0 0 0 2.4 2.3 7.4 7.4 0 0 0 3.5.9m-17.1-.1a7.8 7.8 0 0 0 3.5-.8 5.6 5.6 0 0 0 2.4-2 6 6 0 0 0 .8-3.3.2.2 0 0 0 0-.1.3.3 0 0 0-.3-.1l-3-.2c-.3 0-.4.1-.4.3a3 3 0 0 1-.8 2.2 3 3 0 0 1-2.2.8 3 3 0 0 1-2.3-.8 3 3 0 0 1-.8-2.2V125a3 3 0 0 1 .8-2.2 3 3 0 0 1 2.3-.9 3 3 0 0 1 2.2.9 3 3 0 0 1 .8 2.2c0 .2.1.3.3.3l3-.2c.3 0 .4-.2.4-.3a5.9 5.9 0 0 0-.8-3.2 5.6 5.6 0 0 0-2.4-2 8 8 0 0 0-3.5-.8 7.7 7.7 0 0 0-3.6.8 5.6 5.6 0 0 0-2.4 2.2 6.4 6.4 0 0 0-.8 3.3v6a6.4 6.4 0 0 0 .8 3.3 5.7 5.7 0 0 0 2.4 2.2 7.6 7.6 0 0 0 3.6.8m263.9-44v7a.1.1 0 0 1-.2 0H331a.1.1 0 0 1-.2 0v-7a.3.3 0 0 0-.3-.4h-3a.3.3 0 0 0-.3.3v17.6a.3.3 0 0 0 .3.3h3a.3.3 0 0 0 .4-.3v-7.2a.1.1 0 0 1 0-.1h5.8a.1.1 0 0 1 .2.1v7.2a.3.3 0 0 0 .3.3h3a.3.3 0 0 0 .3-.3V93.2a.3.3 0 0 0-.3-.3h-3a.3.3 0 0 0-.3.3M323 93h-13a.3.3 0 0 0-.4.3v2.6a.3.3 0 0 0 .1.2.3.3 0 0 0 .2 0h4.6a.1.1 0 0 1 0 .2v14.6a.3.3 0 0 0 .4.3h3a.3.3 0 0 0 .4-.3V96.2a.1.1 0 0 1 0-.1h4.7a.3.3 0 0 0 .3-.3v-2.6a.3.3 0 0 0-.3-.3M297 111.1h12a.3.3 0 0 0 .3-.3v-2.5a.3.3 0 0 0-.3-.3h-8.5a.1.1 0 0 1-.2-.2V93.2a.3.3 0 0 0-.3-.3h-3a.3.3 0 0 0-.3.3v17.6a.3.3 0 0 0 .3.3m-14.3-5.9 2.3-7.7a.1.1 0 0 1 0-.1h.1l2.3 7.8v.2h-4.6l-.1-.2m6.8 5.9h3.3q.3 0 .3-.2a.3.3 0 0 0 0-.2l-5.6-17.5a.3.3 0 0 0-.4-.3h-4a.3.3 0 0 0-.4.3l-5.6 17.5a.3.3 0 0 0 0 .3.3.3 0 0 0 .2.1h3.3a.3.3 0 0 0 .4-.3l.7-2.5.2-.1h6.4l.9 2.6a.3.3 0 0 0 .3.3M274 95.7v-2.5a.3.3 0 0 0-.3-.3h-12a.3.3 0 0 0-.3.3v17.6a.3.3 0 0 0 .3.3h12a.3.3 0 0 0 .3-.3v-2.5a.3.3 0 0 0-.3-.3h-8.5a.1.1 0 0 1-.2-.2v-4.2a.1.1 0 0 1 .2-.1h5.5a.3.3 0 0 0 .4-.3v-2.5a.3.3 0 0 0-.4-.4h-5.5a.1.1 0 0 1-.2 0v-4.1a.1.1 0 0 1 .2-.1h8.5a.3.3 0 0 0 .3-.4m-20.6-2.5v7a.1.1 0 0 1-.1.1h-5.8v-7a.3.3 0 0 0-.4-.4h-3a.3.3 0 0 0-.4.3v17.6a.3.3 0 0 0 .4.3h3a.3.3 0 0 0 .3-.3v-7.2a.1.1 0 0 1 .1-.1h5.8a.1.1 0 0 1 .1.1v7.2a.3.3 0 0 0 .3.3h3a.3.3 0 0 0 .4-.3V93.2a.3.3 0 0 0-.3-.3h-3a.3.3 0 0 0-.4.3"
      fill="#3d5d6f"/>
    <path
      d="M233.4 95.7v-2.5a.3.3 0 0 0-.3-.3h-12a.3.3 0 0 0-.3.3v17.6a.3.3 0 0 0 .3.3h12a.3.3 0 0 0 .3-.3v-2.5a.3.3 0 0 0-.3-.3h-8.5a.1.1 0 0 1-.2-.2v-4.2a.1.1 0 0 1 .2-.1h5.6a.3.3 0 0 0 .3-.3v-2.5a.3.3 0 0 0-.3-.4h-5.6a.1.1 0 0 1-.2 0v-4.1a.1.1 0 0 1 .2-.1h8.5a.3.3 0 0 0 .3-.4m-28.5 15.4h12a.3.3 0 0 0 .3-.3v-2.5a.3.3 0 0 0-.3-.3h-8.5a.1.1 0 0 1-.1-.2V93.2a.3.3 0 0 0-.3-.3h-3a.3.3 0 0 0-.4.3v17.6a.3.3 0 0 0 .3.3m-10.7-3.2H191a.1.1 0 0 1-.1-.1v-4.3a.1.1 0 0 1 0-.1h3.3a2.7 2.7 0 0 1 2 .6 2.4 2.4 0 0 1 0 3.3 2.7 2.7 0 0 1-2 .6M191 96.1h3a2.8 2.8 0 0 1 2 .5 2 2 0 0 1 .6 1.6 2 2 0 0 1-.7 1.6 2.9 2.9 0 0 1-1.9.6h-3a.1.1 0 0 1-.1-.2v-4a.1.1 0 0 1 0-.1m7 5.5a3.9 3.9 0 0 0 2.3-3.7q0-5-6.2-5h-6.5a.3.3 0 0 0-.3.3v17.6a.3.3 0 0 0 .3.3h6.7a7.3 7.3 0 0 0 4.5-1.3 4.5 4.5 0 0 0 1.8-3.8 4.4 4.4 0 0 0-2.5-4.2q-.2-.1 0-.2m-24.8 3.6 2.3-7.7a.1.1 0 0 1 0-.1h.1l2.4 7.8-.1.2h-4.6l-.1-.2m6.8 5.9h3.3q.3 0 .3-.2a.3.3 0 0 0 0-.2L178 93.2a.3.3 0 0 0-.4-.3h-4a.3.3 0 0 0-.4.3l-5.6 17.5a.3.3 0 0 0 0 .3.3.3 0 0 0 .3.1h3.3a.3.3 0 0 0 .3-.3l.8-2.5v-.1h6.6l.8 2.6a.3.3 0 0 0 .3.3m-24.2-3.3V96.2a.1.1 0 0 1 0-.1h3.2a2.6 2.6 0 0 1 2 .8 3 3 0 0 1 .7 2.1v6a3.2 3.2 0 0 1-.7 2.1 2.5 2.5 0 0 1-2 .9H156a.1.1 0 0 1-.1-.2m-3.4 3.3h6.5a8 8 0 0 0 3.4-.7 5.3 5.3 0 0 0 2.3-2 5.2 5.2 0 0 0 .8-2.8v-7.2a5.2 5.2 0 0 0-.8-2.9 5.3 5.3 0 0 0-2.3-1.9 8 8 0 0 0-3.4-.7h-6.5a.3.3 0 0 0-.3.3v17.6a.3.3 0 0 0 .3.3m-13.8-15h3.4a2.5 2.5 0 0 1 1.8.6 2.3 2.3 0 0 1 .7 1.7 2.2 2.2 0 0 1-.7 1.7 2.5 2.5 0 0 1-1.8.7h-3.4a.1.1 0 0 1-.1-.2v-4.4a.1.1 0 0 1 .1-.1m6.2 15h3.2c.2 0 .3 0 .3-.2a.4.4 0 0 0 0-.2l-3.6-7.3a.1.1 0 0 1 0-.2 4.7 4.7 0 0 0 2.6-1.8 5.1 5.1 0 0 0 .8-3 5.9 5.9 0 0 0-.6-2.9 4.7 4.7 0 0 0-2-2 6.1 6.1 0 0 0-3-.6h-7.3a.3.3 0 0 0-.4.3v17.6a.3.3 0 0 0 .4.3h3a.3.3 0 0 0 .3-.3v-7.1a.1.1 0 0 1 .1-.1h2.5a.2.2 0 0 1 .1 0l3.3 7.3a.4.4 0 0 0 .3.2m-21-2.9a3 3 0 0 1-2.2-.9 3.3 3.3 0 0 1-.9-2.4v-5.7a3.4 3.4 0 0 1 .9-2.4 3 3 0 0 1 2.3-1 3 3 0 0 1 2.3 1 3.4 3.4 0 0 1 .9 2.4v5.7a3.3 3.3 0 0 1-1 2.4 3 3 0 0 1-2.2 1m0 3a7.6 7.6 0 0 0 3.6-.7 5.9 5.9 0 0 0 2.4-2.4 6.9 6.9 0 0 0 .8-3.4v-5.6a6.7 6.7 0 0 0-.8-3.4 6 6 0 0 0-2.4-2.3 8.3 8.3 0 0 0-7.2 0 6 6 0 0 0-2.4 2.3 6.7 6.7 0 0 0-.9 3.4v5.6a6.8 6.8 0 0 0 .9 3.4 6 6 0 0 0 2.4 2.4 7.4 7.4 0 0 0 3.6.8m-9.7-15.7v-2.5a.3.3 0 0 0-.3-.3h-12a.3.3 0 0 0-.3.3v17.6a.3.3 0 0 0 .3.3h3a.3.3 0 0 0 .3-.3v-7.2a.1.1 0 0 1 .2-.1h5.6a.3.3 0 0 0 .3-.3v-2.5a.3.3 0 0 0-.3-.4h-5.6a.1.1 0 0 1-.2 0v-4.1a.1.1 0 0 1 .2-.1h8.5a.3.3 0 0 0 .3-.4m-15.9 0v-2.5a.3.3 0 0 0-.3-.3H86a.3.3 0 0 0-.3.3v17.6a.3.3 0 0 0 .3.3h3a.3.3 0 0 0 .4-.3v-7.2a.1.1 0 0 1 .1-.1h5.6a.3.3 0 0 0 .3-.3v-2.5a.3.3 0 0 0-.3-.4h-5.6a.1.1 0 0 1-.1 0v-4.1a.1.1 0 0 1 .1-.1H98a.3.3 0 0 0 .3-.4m-26.6 9.5 2.3-7.7a.1.1 0 0 1 0-.1h.2l2.3 7.8-.1.2h-4.6s-.1-.1 0-.2m6.8 5.9h3.3c.1 0 .2 0 .2-.2a.3.3 0 0 0 0-.2l-5.6-17.5a.3.3 0 0 0-.3-.3H72a.3.3 0 0 0-.4.3l-5.6 17.5a.3.3 0 0 0 0 .3.3.3 0 0 0 .3.1h3.3a.3.3 0 0 0 .3-.3l.8-2.5.1-.1h6.5l.8 2.6a.3.3 0 0 0 .3.3"
      fill="#4a7ea6"/>
  </g>
</svg>
