<svg width="163" height="40" viewBox="0 0 163 40" fill="none" xmlns="http://www.w3.org/2000/svg">
  <path
    d="M0.850006 0.84314V39.1727C0.850006 39.1727 10.2975 39.1727 13.3333 39.1727C24.0382 39.1727 33.293 30.9681 33.293 20.0591C33.3044 8.94541 23.9589 0.84314 13.3333 0.84314C10.2975 0.84314 0.850006 0.84314 0.850006 0.84314Z"
    stroke="#007BC4"
    stroke-width="1.64223"
    stroke-miterlimit="10"/>
  <path
    d="M12.3365 12.2409V27.9227C12.3365 27.9227 13.8091 27.9227 14.115 27.9227C14.8513 27.9227 21.6594 26.8431 21.6594 19.8091C21.6594 14.5704 16.6524 12.2409 14.115 12.2409C13.5939 12.2409 12.3365 12.2409 12.3365 12.2409Z"
    stroke="#007BC4"
    stroke-width="1.64223"
    stroke-miterlimit="10"/>
  <path
    d="M38.9344 20.0249C38.9344 24.3658 42.5253 27.8772 46.9659 27.8772H51.9614V39.1727H46.728C36.0345 39.1727 27.3573 30.6272 27.3573 20.0818C27.3573 9.5363 36.0231 0.990845 46.728 0.990845H51.9614V12.1727H46.9659C42.5367 12.1727 38.9344 15.684 38.9344 20.0249Z"
    stroke="#E72B2D"
    stroke-width="1.64223"
    stroke-miterlimit="10"/>
  <path
    d="M13.3334 39.1726C24.0382 39.1726 33.2931 30.968 33.2931 20.059"
    stroke="#007BC4"
    stroke-width="1.64223"
    stroke-miterlimit="10"/>
  <path
    d="M64.3088 0.649902H58.8714V18.3772H64.3088L64.3088 12.0135H71.2188V18.3772H76.6561V0.649902H71.2188V6.8999H64.3088L64.3088 0.649902Z"
    fill="#007BC4"/>
  <path
    d="M93.1949 0.649902H78.6952V18.3772H93.1949V13.8317H84.2798V11.559H92.4019V7.35445H84.2798V5.30899H93.1949V0.649902Z"
    fill="#007BC4"/>
  <path
    fill-rule="evenodd"
    clip-rule="evenodd"
    d="M108.941 18.3772L108.104 16.3317H100.445L99.765 18.3772H94.3163L101.691 0.649902H107.241L114.491 18.3772H108.941ZM104.245 6.89631L102.184 12.0135H106.338L104.245 6.89631Z"
    fill="#007BC4"/>
  <path
    d="M120.835 13.8317H129.444V18.3772H115.397V0.649902H120.835V13.8317Z"
    fill="#007BC4"/>
  <path
    d="M125.717 0.649902V5.30899H131.71V18.3772H137.034V5.30899H142.924V0.649902H125.717Z"
    fill="#007BC4"/>
  <path
    d="M150.276 6.8999H157.413V0.649902H162.85V18.3772H157.413V11.8999H150.276V18.3772H145.065V0.649902H150.276V6.8999Z"
    fill="#007BC4"/>
  <path
    d="M64.3088 34.8545L72.9179 34.8544V39.3999H58.8714V21.6726H64.3088V34.8545Z"
    fill="#007BC4"/>
  <path
    d="M74.6058 21.6726H80.0432V39.3999H74.6058V21.6726Z"
    fill="#007BC4"/>
  <path
    d="M81.9689 21.6726V39.3999H87.1797V29.5249L87.8707 30.4113L94.6675 39.3999H99.765V21.6726H94.6675V30.4567L87.8707 21.6726H81.9689Z"
    fill="#007BC4"/>
  <path
    d="M102.031 21.6726H107.241V28.7294L112.905 21.6726H118.569L112.73 28.6789L119.589 39.3999H113.472L109.28 32.8203L109.342 32.7434L107.241 35.2635V39.3999H102.031V21.6726Z"
    fill="#007BC4"/>
</svg>
