<svg width="130" height="24" viewBox="0 0 130 24" fill="none" xmlns="http://www.w3.org/2000/svg">
  <path d="M0 1C0 0.447715 0.447715 0 1 0H15C15.5523 0 16 0.447715 16 1V4C16 4.55228 15.5523 5 15 5H1C0.447715 5 0 4.55228 0 4V1Z" fill="#0050B3"/>
  <path d="M0 10.5C0 9.94772 0.447715 9.5 1 9.5H11C11.5523 9.5 12 9.94772 12 10.5V13.5C12 14.0523 11.5523 14.5 11 14.5H1C0.447715 14.5 0 14.0523 0 13.5V10.5Z" fill="#00224D"/>
  <path d="M0 20C0 19.4477 0.447715 19 1 19H15C15.5523 19 16 19.4477 16 20V23C16 23.5523 15.5523 24 15 24H1C0.447715 24 0 23.5523 0 23V20Z" fill="#0050B3"/>
  <path fill-rule="evenodd" clip-rule="evenodd" d="M32 10.6667L36.7567 23.3512C36.903 23.7415 37.2762 24 37.693 24H41.557C42.2552 24 42.7385 23.3027 42.4933 22.6489L35 2.66673L32 10.6667ZM33.1016 2.40796C33.0879 2.43652 33.0752 2.46617 33.0637 2.49691L31.1317 7.64881C31.1208 7.67786 31.1113 7.70729 31.1032 7.737L33.1016 2.40796Z" fill="#0050B3"/>
  <path d="M27.7567 0.648877C27.903 0.258573 28.2762 0 28.693 0H32.557C33.2552 0 33.7385 0.697373 33.4933 1.35112L25.2433 23.3511C25.097 23.7414 24.7238 24 24.307 24H20.443C19.7448 24 19.2615 23.3026 19.5067 22.6489L27.7567 0.648877Z" fill="#00224D"/>
  <path d="M56.5781 16.1562H50V4.73438H56.5781V6.71875H52.4219V9.22656H56.2891V11.2109H52.4219V14.1562H56.5781V16.1562Z" fill="#00224D"/>
  <path d="M63.7422 7.25781C64.6745 7.25781 65.4245 7.51302 65.9922 8.02344C66.5599 8.52865 66.8438 9.34115 66.8438 10.4609V16.1562H64.4609V11.0547C64.4609 10.4297 64.3464 9.95833 64.1172 9.64062C63.8932 9.32292 63.5391 9.16406 63.0547 9.16406C62.3255 9.16406 61.8281 9.41146 61.5625 9.90625C61.2969 10.401 61.1641 11.1146 61.1641 12.0469V16.1562H58.7812V7.42188H60.6016L60.9219 8.53906H61.0547C61.2422 8.23698 61.474 7.99219 61.75 7.80469C62.0312 7.61719 62.3411 7.47917 62.6797 7.39062C63.0234 7.30208 63.3776 7.25781 63.7422 7.25781Z" fill="#00224D"/>
  <path d="M74.1719 7.25781C74.2917 7.25781 74.4297 7.26562 74.5859 7.28125C74.7474 7.29167 74.8776 7.30729 74.9766 7.32812L74.7969 9.5625C74.7188 9.53646 74.6068 9.51823 74.4609 9.50781C74.3203 9.49219 74.1979 9.48438 74.0938 9.48438C73.7865 9.48438 73.487 9.52344 73.1953 9.60156C72.9089 9.67969 72.651 9.80729 72.4219 9.98438C72.1927 10.1562 72.0104 10.3854 71.875 10.6719C71.7448 10.9531 71.6797 11.2995 71.6797 11.7109V16.1562H69.2969V7.42188H71.1016L71.4531 8.89062H71.5703C71.7422 8.59375 71.9557 8.32292 72.2109 8.07812C72.4714 7.82812 72.7656 7.63021 73.0938 7.48438C73.4271 7.33333 73.7865 7.25781 74.1719 7.25781Z" fill="#00224D"/>
  <path d="M84.5 11.7734C84.5 12.5026 84.401 13.1484 84.2031 13.7109C84.0104 14.2734 83.7266 14.75 83.3516 15.1406C82.9818 15.526 82.5339 15.8177 82.0078 16.0156C81.487 16.2135 80.8984 16.3125 80.2422 16.3125C79.6276 16.3125 79.0625 16.2135 78.5469 16.0156C78.0365 15.8177 77.5911 15.526 77.2109 15.1406C76.8359 14.75 76.5443 14.2734 76.3359 13.7109C76.1328 13.1484 76.0312 12.5026 76.0312 11.7734C76.0312 10.8047 76.2031 9.98438 76.5469 9.3125C76.8906 8.64062 77.3802 8.13021 78.0156 7.78125C78.651 7.43229 79.4089 7.25781 80.2891 7.25781C81.1068 7.25781 81.8307 7.43229 82.4609 7.78125C83.0964 8.13021 83.5938 8.64062 83.9531 9.3125C84.3177 9.98438 84.5 10.8047 84.5 11.7734ZM78.4609 11.7734C78.4609 12.3464 78.5234 12.8281 78.6484 13.2188C78.7734 13.6094 78.9688 13.9036 79.2344 14.1016C79.5 14.2995 79.8464 14.3984 80.2734 14.3984C80.6953 14.3984 81.0365 14.2995 81.2969 14.1016C81.5625 13.9036 81.7552 13.6094 81.875 13.2188C82 12.8281 82.0625 12.3464 82.0625 11.7734C82.0625 11.1953 82 10.7161 81.875 10.3359C81.7552 9.95052 81.5625 9.66146 81.2969 9.46875C81.0312 9.27604 80.6849 9.17969 80.2578 9.17969C79.6276 9.17969 79.1693 9.39583 78.8828 9.82812C78.6016 10.2604 78.4609 10.9089 78.4609 11.7734Z" fill="#00224D"/>
  <path d="M88.8516 16.1562H86.4688V4H88.8516V16.1562Z" fill="#00224D"/>
  <path d="M93.7422 16.1562H91.3594V4H93.7422V16.1562Z" fill="#00224D"/>
  <path d="M107.586 16.1562L106.758 13.4375H102.594L101.766 16.1562H99.1562L103.188 4.6875H106.148L110.195 16.1562H107.586ZM106.18 11.4062L105.352 8.75C105.299 8.57292 105.229 8.34635 105.141 8.07031C105.057 7.78906 104.971 7.50521 104.883 7.21875C104.799 6.92708 104.732 6.67448 104.68 6.46094C104.628 6.67448 104.555 6.9401 104.461 7.25781C104.372 7.57031 104.286 7.86719 104.203 8.14844C104.12 8.42969 104.06 8.63021 104.023 8.75L103.203 11.4062H106.18Z" fill="#00224D"/>
  <path d="M116.312 7.25781C117.297 7.25781 118.091 7.64062 118.695 8.40625C119.305 9.17188 119.609 10.2943 119.609 11.7734C119.609 12.763 119.466 13.5964 119.18 14.2734C118.893 14.9453 118.497 15.4531 117.992 15.7969C117.487 16.1406 116.906 16.3125 116.25 16.3125C115.828 16.3125 115.466 16.2604 115.164 16.1562C114.862 16.0469 114.604 15.9089 114.391 15.7422C114.177 15.5703 113.992 15.388 113.836 15.1953H113.711C113.753 15.4036 113.784 15.6172 113.805 15.8359C113.826 16.0547 113.836 16.2682 113.836 16.4766V20H111.453V7.42188H113.391L113.727 8.55469H113.836C113.992 8.32031 114.182 8.10417 114.406 7.90625C114.63 7.70833 114.898 7.55208 115.211 7.4375C115.529 7.31771 115.896 7.25781 116.312 7.25781ZM115.547 9.16406C115.13 9.16406 114.799 9.25 114.555 9.42188C114.31 9.59375 114.13 9.85156 114.016 10.1953C113.906 10.5391 113.846 10.974 113.836 11.5V11.7578C113.836 12.3203 113.888 12.7969 113.992 13.1875C114.102 13.5781 114.281 13.875 114.531 14.0781C114.786 14.2812 115.135 14.3828 115.578 14.3828C115.943 14.3828 116.242 14.2812 116.477 14.0781C116.711 13.875 116.885 13.5781 117 13.1875C117.12 12.7917 117.18 12.3099 117.18 11.7422C117.18 10.888 117.047 10.2448 116.781 9.8125C116.516 9.38021 116.104 9.16406 115.547 9.16406Z" fill="#00224D"/>
  <path d="M126.438 7.25781C127.422 7.25781 128.216 7.64062 128.82 8.40625C129.43 9.17188 129.734 10.2943 129.734 11.7734C129.734 12.763 129.591 13.5964 129.305 14.2734C129.018 14.9453 128.622 15.4531 128.117 15.7969C127.612 16.1406 127.031 16.3125 126.375 16.3125C125.953 16.3125 125.591 16.2604 125.289 16.1562C124.987 16.0469 124.729 15.9089 124.516 15.7422C124.302 15.5703 124.117 15.388 123.961 15.1953H123.836C123.878 15.4036 123.909 15.6172 123.93 15.8359C123.951 16.0547 123.961 16.2682 123.961 16.4766V20H121.578V7.42188H123.516L123.852 8.55469H123.961C124.117 8.32031 124.307 8.10417 124.531 7.90625C124.755 7.70833 125.023 7.55208 125.336 7.4375C125.654 7.31771 126.021 7.25781 126.438 7.25781ZM125.672 9.16406C125.255 9.16406 124.924 9.25 124.68 9.42188C124.435 9.59375 124.255 9.85156 124.141 10.1953C124.031 10.5391 123.971 10.974 123.961 11.5V11.7578C123.961 12.3203 124.013 12.7969 124.117 13.1875C124.227 13.5781 124.406 13.875 124.656 14.0781C124.911 14.2812 125.26 14.3828 125.703 14.3828C126.068 14.3828 126.367 14.2812 126.602 14.0781C126.836 13.875 127.01 13.5781 127.125 13.1875C127.245 12.7917 127.305 12.3099 127.305 11.7422C127.305 10.888 127.172 10.2448 126.906 9.8125C126.641 9.38021 126.229 9.16406 125.672 9.16406Z" fill="#00224D"/>
</svg>

