<svg width="132" height="24" viewBox="0 0 132 24" fill="none" xmlns="http://www.w3.org/2000/svg">
<path d="M0 1C0 0.447715 0.447715 0 1 0H15C15.5523 0 16 0.447715 16 1V4C16 4.55228 15.5523 5 15 5H1C0.447715 5 0 4.55228 0 4V1Z" fill="white"/>
<path d="M0 10.5C0 9.94772 0.447715 9.5 1 9.5H11C11.5523 9.5 12 9.94772 12 10.5V13.5C12 14.0523 11.5523 14.5 11 14.5H1C0.447715 14.5 0 14.0523 0 13.5V10.5Z" fill="white"/>
<path d="M0 20C0 19.4477 0.447715 19 1 19H15C15.5523 19 16 19.4477 16 20V23C16 23.5523 15.5523 24 15 24H1C0.447715 24 0 23.5523 0 23V20Z" fill="white"/>
<path d="M32 10.6666L36.7567 23.3511C36.903 23.7414 37.2762 24 37.693 24H41.557C42.2552 24 42.7385 23.3026 42.4933 22.6489L35 2.66669L32 10.6666Z" fill="white"/>
<path d="M33.1016 2.40791C33.0879 2.43647 33.0752 2.46612 33.0637 2.49686L31.1317 7.64876C31.1208 7.67781 31.1113 7.70724 31.1032 7.73696L33.1016 2.40791Z" fill="white"/>
<path d="M27.7567 0.648877C27.903 0.258573 28.2762 0 28.693 0H32.557C33.2552 0 33.7385 0.697373 33.4933 1.35112L25.2433 23.3511C25.097 23.7414 24.7238 24 24.307 24H20.443C19.7448 24 19.2615 23.3026 19.5067 22.6489L27.7567 0.648877Z" fill="white"/>
<path d="M58.0156 18H51.4375V6.57812H58.0156V8.5625H53.8594V11.0703H57.7266V13.0547H53.8594V16H58.0156V18Z" fill="white"/>
<path d="M68.2812 18H65.8984V12.8984C65.8984 12.2682 65.7865 11.7969 65.5625 11.4844C65.3385 11.1667 64.9818 11.0078 64.4922 11.0078C63.8255 11.0078 63.3438 11.2318 63.0469 11.6797C62.75 12.1224 62.6016 12.8594 62.6016 13.8906V18H60.2188V9.26562H62.0391L62.3594 10.3828H62.4922C62.7578 9.96094 63.1224 9.64323 63.5859 9.42969C64.0547 9.21094 64.5859 9.10156 65.1797 9.10156C66.1953 9.10156 66.9661 9.3776 67.4922 9.92969C68.0182 10.4766 68.2812 11.2682 68.2812 12.3047V18Z" fill="white"/>
<path d="M75.6094 9.10156C75.9323 9.10156 76.2005 9.125 76.4141 9.17188L76.2344 11.4062C76.0417 11.3542 75.8073 11.3281 75.5312 11.3281C74.7708 11.3281 74.1771 11.5234 73.75 11.9141C73.3281 12.3047 73.1172 12.8516 73.1172 13.5547V18H70.7344V9.26562H72.5391L72.8906 10.7344H73.0078C73.2786 10.2448 73.6432 9.85156 74.1016 9.55469C74.5651 9.2526 75.0677 9.10156 75.6094 9.10156Z" fill="white"/>
<path d="M79.8984 13.6172C79.8984 14.4818 80.0391 15.1354 80.3203 15.5781C80.6068 16.0208 81.0703 16.2422 81.7109 16.2422C82.3464 16.2422 82.8021 16.0234 83.0781 15.5859C83.3594 15.1432 83.5 14.487 83.5 13.6172C83.5 12.7526 83.3594 12.1042 83.0781 11.6719C82.7969 11.2396 82.3359 11.0234 81.6953 11.0234C81.0599 11.0234 80.6016 11.2396 80.3203 11.6719C80.0391 12.099 79.8984 12.7474 79.8984 13.6172ZM85.9375 13.6172C85.9375 15.0391 85.5625 16.151 84.8125 16.9531C84.0625 17.7552 83.0182 18.1562 81.6797 18.1562C80.8411 18.1562 80.1016 17.974 79.4609 17.6094C78.8203 17.2396 78.3281 16.7109 77.9844 16.0234C77.6406 15.3359 77.4688 14.5339 77.4688 13.6172C77.4688 12.1901 77.8411 11.0807 78.5859 10.2891C79.3307 9.4974 80.3776 9.10156 81.7266 9.10156C82.5651 9.10156 83.3047 9.28385 83.9453 9.64844C84.5859 10.013 85.0781 10.5365 85.4219 11.2188C85.7656 11.901 85.9375 12.7005 85.9375 13.6172Z" fill="white"/>
<path d="M90.2891 18H87.9062V5.84375H90.2891V18Z" fill="white"/>
<path d="M95.1797 18H92.7969V5.84375H95.1797V18Z" fill="white"/>
<path d="M109.023 18L108.195 15.2812H104.031L103.203 18H100.594L104.625 6.53125H107.586L111.633 18H109.023ZM107.617 13.25C106.852 10.7865 106.419 9.39323 106.32 9.07031C106.227 8.7474 106.159 8.49219 106.117 8.30469C105.945 8.97135 105.453 10.6198 104.641 13.25H107.617Z" fill="white"/>
<path d="M117.688 18.1562C116.661 18.1562 115.857 17.7839 115.273 17.0391H115.148C115.232 17.7682 115.273 18.1901 115.273 18.3047V21.8438H112.891V9.26562H114.828L115.164 10.3984H115.273C115.831 9.53385 116.656 9.10156 117.75 9.10156C118.781 9.10156 119.589 9.5 120.172 10.2969C120.755 11.0938 121.047 12.2005 121.047 13.6172C121.047 14.5495 120.909 15.3594 120.633 16.0469C120.362 16.7344 119.974 17.2578 119.469 17.6172C118.964 17.9766 118.37 18.1562 117.688 18.1562ZM116.984 11.0078C116.396 11.0078 115.966 11.1901 115.695 11.5547C115.424 11.9141 115.284 12.5104 115.273 13.3438V13.6016C115.273 14.5391 115.411 15.2109 115.688 15.6172C115.969 16.0234 116.411 16.2266 117.016 16.2266C118.083 16.2266 118.617 15.3464 118.617 13.5859C118.617 12.7266 118.484 12.0833 118.219 11.6562C117.958 11.224 117.547 11.0078 116.984 11.0078Z" fill="white"/>
<path d="M127.812 18.1562C126.786 18.1562 125.982 17.7839 125.398 17.0391H125.273C125.357 17.7682 125.398 18.1901 125.398 18.3047V21.8438H123.016V9.26562H124.953L125.289 10.3984H125.398C125.956 9.53385 126.781 9.10156 127.875 9.10156C128.906 9.10156 129.714 9.5 130.297 10.2969C130.88 11.0938 131.172 12.2005 131.172 13.6172C131.172 14.5495 131.034 15.3594 130.758 16.0469C130.487 16.7344 130.099 17.2578 129.594 17.6172C129.089 17.9766 128.495 18.1562 127.812 18.1562ZM127.109 11.0078C126.521 11.0078 126.091 11.1901 125.82 11.5547C125.549 11.9141 125.409 12.5104 125.398 13.3438V13.6016C125.398 14.5391 125.536 15.2109 125.812 15.6172C126.094 16.0234 126.536 16.2266 127.141 16.2266C128.208 16.2266 128.742 15.3464 128.742 13.5859C128.742 12.7266 128.609 12.0833 128.344 11.6562C128.083 11.224 127.672 11.0078 127.109 11.0078Z" fill="white"/>
</svg>
