<svg width="202" height="39" viewBox="0 0 202 39" fill="none" xmlns="http://www.w3.org/2000/svg">
<path d="M26.8587 24.5321C26.4603 24.5748 26.2651 24.8658 26.0699 25.1515C26.0059 25.2708 25.9136 25.3725 25.8011 25.4478C25.6887 25.5231 25.5595 25.5696 25.4248 25.5834C25.3599 25.5959 25.2926 25.5868 25.2333 25.5573C25.1741 25.5279 25.1261 25.4799 25.0968 25.4206C25.0627 25.3543 25.0158 25.2954 24.9588 25.2474C24.9152 25.2006 24.8589 25.1675 24.7968 25.1521C24.7346 25.1367 24.6694 25.1397 24.609 25.1608C24.5486 25.1818 24.4956 25.22 24.4565 25.2707C24.4174 25.3213 24.3939 25.3822 24.3888 25.446C24.3692 25.5458 24.3807 25.6521 24.3651 25.7531C24.3495 25.8541 24.338 25.9765 24.2063 25.9511C24.1387 25.9378 24.0804 25.8432 24.0331 25.775C24.0109 25.7176 23.9981 25.657 23.9949 25.5955C23.9306 25.6811 23.8377 25.7408 23.7331 25.7637C23.6285 25.7865 23.5191 25.7711 23.4249 25.7202C23.3002 25.6723 23.2517 25.7716 23.2569 25.8871C23.2627 25.9783 23.2852 26.0689 23.291 26.1601C23.2965 26.1915 23.2955 26.2237 23.2882 26.2547C23.2809 26.2858 23.2673 26.315 23.2484 26.3406C23.2294 26.3663 23.2054 26.3878 23.1779 26.4039C23.1504 26.42 23.1199 26.4304 23.0883 26.4343C22.7799 26.499 22.4727 26.5666 22.1643 26.6266C22.1432 26.6254 22.1226 26.6196 22.1039 26.6096C22.0853 26.5996 22.069 26.5857 22.0563 26.5689C22.0319 26.5302 22.0138 26.4879 22.0026 26.4436C21.9541 26.3224 21.9575 26.1497 21.7542 26.1763C21.6413 26.1766 21.5325 26.219 21.449 26.295C21.3656 26.3711 21.3134 26.4755 21.3026 26.5879C21.3014 26.7769 21.2856 26.9654 21.2553 27.152C21.2108 27.3777 21.1005 27.4048 20.9382 27.2455C20.8736 27.182 20.8303 27.0948 20.7615 27.0365C20.7009 26.9972 20.6349 26.9667 20.5658 26.9459C20.5376 27.0126 20.5192 27.0829 20.5109 27.1548C20.5109 27.2703 20.59 27.4094 20.5479 27.4943C20.434 27.7056 20.2985 27.9045 20.1436 28.0878C20.0859 28.1611 20.0073 28.134 19.9958 28.022C19.9909 27.9249 19.9782 27.8283 19.9577 27.7333C19.9369 27.6329 19.8954 27.5379 19.8358 27.4545C19.7561 27.3598 19.6747 27.2917 19.7394 27.1479C19.7729 27.0729 19.7243 27.0001 19.6239 27.0076C19.5315 27.0141 19.4393 26.9922 19.3598 26.9447C19.2803 26.8972 19.2172 26.8265 19.1792 26.7421C19.1128 26.6295 19.0337 26.6231 18.9522 26.734C18.768 26.9845 18.7166 26.9903 18.4683 26.7802C18.3829 27.0072 18.2162 27.1945 18.0005 27.3055C17.7747 27.4418 17.6806 27.4291 17.4981 27.2253C17.341 27.0492 17.3404 27.0486 17.1556 27.201C17.0627 27.2778 16.9674 27.3523 16.879 27.432C16.8212 27.4754 16.7736 27.5309 16.7393 27.5945C16.7051 27.6582 16.6851 27.7286 16.6808 27.8007C16.6765 27.8729 16.6879 27.9451 16.7142 28.0124C16.7406 28.0797 16.7812 28.1405 16.8334 28.1906C16.9039 28.2713 16.9575 28.3653 16.9911 28.4671C17.0257 28.5981 16.9431 28.6628 16.8126 28.6241C16.7228 28.5868 16.631 28.5545 16.5377 28.5271C16.4464 28.507 16.3514 28.5112 16.2623 28.5393C16.1785 28.5722 16.1277 28.5722 16.0954 28.4942C16.0378 28.3742 15.9458 28.2741 15.8312 28.2066C15.7165 28.139 15.5843 28.1071 15.4515 28.1149C15.3426 28.109 15.2354 28.0858 15.1338 28.0462C15.1004 28.0281 15.0711 28.0034 15.0474 27.9736C15.0238 27.9439 15.0065 27.9097 14.9964 27.873C14.9871 27.8309 15.0616 27.7685 15.1015 27.7177C15.1413 27.6669 15.1922 27.6427 15.2054 27.5965C15.2799 27.3361 15.3342 27.2986 15.5935 27.3552L15.6617 27.369C15.6414 27.1658 15.5762 27.1156 15.3891 27.167C15.2903 27.1941 15.1945 27.2322 15.0524 27.2824L15.1257 26.988C15.1771 26.8301 15.2144 26.668 15.2372 26.5036C15.2252 26.388 15.1944 26.2751 15.146 26.1694L15.072 26.163C15.0275 26.2476 14.9943 26.3377 14.9733 26.4309C14.9785 26.5059 14.9685 26.5812 14.9438 26.6523C14.9192 26.7233 14.8803 26.7886 14.8297 26.8443C14.7791 26.8999 14.7177 26.9447 14.6493 26.9759C14.5809 27.0072 14.5068 27.0243 14.4316 27.0261C13.9696 27.0925 13.9557 27.111 14.1192 27.5555C14.1468 27.6313 14.1585 27.7121 14.1535 27.7926C14.1486 27.8732 14.127 27.9518 14.0903 28.0237C13.9199 28.3932 13.7438 28.761 13.574 29.1299C13.5668 29.1516 13.5573 29.1725 13.5457 29.1922C13.4539 29.2912 13.3961 29.417 13.3806 29.5511C13.3651 29.6852 13.3928 29.8208 13.4597 29.9381C13.5313 30.0726 13.451 30.1991 13.3499 30.3087C13.09 30.5908 12.8336 30.876 12.5807 31.1643C12.5643 31.1873 12.5422 31.2055 12.5166 31.2173C12.491 31.2291 12.4627 31.234 12.4346 31.2316C12.4065 31.2291 12.3795 31.2194 12.3564 31.2034C12.3332 31.1873 12.3146 31.1655 12.3024 31.1401C12.2707 31.0675 12.2591 30.9877 12.2689 30.9092C12.2897 30.6742 12.2527 30.6413 12.024 30.7238C11.938 30.755 11.8548 30.796 11.7716 30.8341C11.6561 30.8849 11.5984 30.848 11.5753 30.729C11.5703 30.6605 11.5569 30.5928 11.5354 30.5275C11.5152 30.4814 11.4592 30.4202 11.4199 30.4213C11.3902 30.424 11.3616 30.4337 11.3364 30.4497C11.3112 30.4657 11.2901 30.4874 11.275 30.5131C11.2097 30.6961 11.1653 30.8861 11.1116 31.0725C11.0434 31.3075 10.9822 31.5454 10.8985 31.7746C10.8794 31.8065 10.8531 31.8336 10.8217 31.8536C10.7904 31.8737 10.7547 31.8861 10.7177 31.89C10.6796 31.89 10.6294 31.8005 10.5953 31.7445C10.5418 31.6343 10.4808 31.5278 10.4128 31.4259C10.3354 31.3335 10.2603 31.3814 10.2205 31.4836C10.2125 31.5053 10.2069 31.5277 10.2037 31.5506C10.1408 31.983 9.85435 31.9547 9.57542 31.7878C9.51861 31.7401 9.4573 31.6979 9.39236 31.662C9.36234 31.6506 9.33022 31.6459 9.29821 31.6482C9.26619 31.6505 9.23507 31.6597 9.20698 31.6753C9.07933 31.7815 8.97159 31.9095 8.88878 32.0534C8.85033 32.1865 8.84107 32.3263 8.86164 32.4633C8.88202 32.6017 8.89168 32.7414 8.89051 32.8813C8.88127 32.95 8.78194 33.0325 8.70687 33.0545C8.6624 33.0683 8.57404 32.9904 8.52496 32.939C8.4265 32.8298 8.35216 32.7011 8.30678 32.5612C8.26141 32.4213 8.24602 32.2735 8.26162 32.1273C8.26449 32.0892 8.25951 32.0508 8.247 32.0147C8.23448 31.9786 8.2147 31.9454 8.18885 31.9172C8.15594 31.89 8.0491 31.927 7.99019 31.961C7.94222 31.9989 7.88118 32.0162 7.82045 32.0092C7.75972 32.0022 7.70426 31.9713 7.66622 31.9235C7.64446 31.9034 7.61856 31.8882 7.59032 31.8791C7.56209 31.8701 7.53221 31.8673 7.50279 31.871C7.15509 31.9559 6.83279 32.1228 6.56283 32.3577C6.29287 32.5926 6.08309 32.8888 5.95105 33.2213C5.94338 33.262 5.94403 33.3037 5.95296 33.3441C5.9619 33.3845 5.97893 33.4227 6.00303 33.4563C6.07002 33.5614 6.17108 33.6439 6.24731 33.7449C6.2826 33.7833 6.30684 33.8305 6.31746 33.8815C6.32808 33.9326 6.32469 33.9855 6.30763 34.0348C6.29058 34.084 6.2605 34.1277 6.2206 34.1613C6.1807 34.1948 6.13245 34.2169 6.08099 34.2253C5.99137 34.2452 5.90078 34.2604 5.80957 34.2709C5.72956 34.2689 5.65027 34.2864 5.57854 34.3218C5.50681 34.3573 5.44479 34.4097 5.39783 34.4745C5.35088 34.5393 5.3204 34.6145 5.30903 34.6937C5.29765 34.7729 5.30573 34.8537 5.33256 34.929C5.36782 35.1346 5.33245 35.3461 5.23221 35.529C5.13196 35.7119 4.97275 35.8555 4.78047 35.9365C4.66627 35.9761 4.56262 36.0412 4.47745 36.127C4.39228 36.2127 4.32783 36.3168 4.28902 36.4312C4.15908 36.8047 4.04763 37.1846 3.92808 37.5616C3.88485 37.7281 3.83202 37.8919 3.76985 38.0523C3.75921 38.0905 3.7403 38.1259 3.71446 38.1559C3.68863 38.186 3.6565 38.21 3.62035 38.2262C3.5842 38.2425 3.54491 38.2506 3.50528 38.25C3.46565 38.2494 3.42664 38.24 3.39101 38.2227C3.23218 38.1739 3.07765 38.1121 2.92901 38.0379C2.82337 37.9895 2.73493 37.9101 2.67543 37.8103C2.61592 37.7105 2.58815 37.595 2.5958 37.4791C2.60088 37.2738 2.55684 37.0703 2.46733 36.8856C2.37783 36.7008 2.24546 36.5401 2.08125 36.4168C1.88078 36.2652 1.71743 36.0699 1.60358 35.8459C1.48972 35.6219 1.42833 35.3749 1.42406 35.1236C1.35072 32.4812 0.949356 29.87 0.734527 27.2374C0.523741 24.6522 0.259825 22.0721 0.0190085 19.4892C-0.00451839 19.3894 -0.00622673 19.2856 0.0140001 19.1851C0.034227 19.0846 0.075913 18.9896 0.136213 18.9066C0.196514 18.8236 0.274009 18.7546 0.363411 18.7043C0.452813 18.654 0.552018 18.6236 0.654255 18.6151C0.728116 18.599 0.805319 18.6103 0.8715 18.6468C0.937681 18.6833 0.988334 18.7427 1.01404 18.8137C1.06081 18.9292 1.11105 19.0447 1.15494 19.1642C1.19306 19.2663 1.23348 19.3599 1.37093 19.3374C1.49855 19.3148 1.50664 19.2184 1.51472 19.1162C1.53205 18.8767 1.54533 18.6359 1.57594 18.3975C1.61694 18.0713 1.78153 17.9755 2.09569 18.0857C2.18173 18.1157 2.25912 18.1735 2.34632 18.1966C2.41331 18.2139 2.53401 18.2225 2.55306 18.1896C2.59137 18.1143 2.59983 18.0273 2.57674 17.946C2.55249 17.8692 2.47337 17.8109 2.42255 17.7416C2.35825 17.6535 2.29646 17.5634 2.23717 17.4715C2.19434 17.4276 2.16129 17.3752 2.14018 17.3177C2.11907 17.2601 2.11038 17.1988 2.11469 17.1376C2.119 17.0765 2.13621 17.017 2.16518 16.963C2.19416 16.909 2.23424 16.8617 2.2828 16.8243C2.41504 16.673 2.54729 16.5223 2.67838 16.3699C2.86283 16.1394 3.11887 15.9769 3.40603 15.9081C3.58558 15.8564 3.73989 15.7406 3.83964 15.5826C3.9394 15.4247 3.97765 15.2356 3.94714 15.0513C3.92295 14.8913 3.95294 14.7278 4.03236 14.5868C4.11178 14.4458 4.23606 14.3354 4.38546 14.2731C4.48986 14.2295 4.57801 14.1544 4.63755 14.0582C4.6971 13.962 4.72506 13.8496 4.71752 13.7368C4.7168 13.6451 4.68974 13.5555 4.63956 13.4787C4.53553 13.3363 4.4756 13.1666 4.46718 12.9905C4.45876 12.8144 4.50223 12.6397 4.5922 12.488C4.62512 12.4026 4.67479 12.3235 4.71232 12.2398C4.76046 12.1533 4.77603 12.0524 4.75622 11.9554C4.73641 11.8584 4.68253 11.7717 4.60433 11.711C4.55496 11.6759 4.51936 11.6247 4.50365 11.5662C4.48795 11.5077 4.49312 11.4456 4.51828 11.3905C4.68141 10.7828 5.00726 10.2311 5.46076 9.79483C5.74302 9.51834 5.90522 9.14199 5.91236 8.74699C5.96665 8.34864 6.02786 7.95087 6.08099 7.55252C6.12734 7.24476 6.24436 6.95191 6.42287 6.69693C7.66218 4.84027 8.89956 2.98245 10.135 1.12348C10.2173 0.96507 10.3576 0.844527 10.5266 0.786984C10.6956 0.729441 10.8804 0.739342 11.0423 0.814618C11.2121 0.845064 11.3639 0.939263 11.4665 1.07793C11.5692 1.2166 11.6149 1.38924 11.5944 1.56052C11.5944 1.74353 11.5978 1.92653 11.6047 2.10954C11.6072 2.21984 11.6331 2.32835 11.6807 2.42788C11.7283 2.52742 11.7965 2.61569 11.8808 2.68686C12.033 2.82607 12.2013 2.94663 12.3821 3.04596C12.4383 3.07026 12.4988 3.08313 12.5601 3.08383C12.6214 3.08452 12.6822 3.07302 12.739 3.05C13.1861 2.83719 13.6691 2.70991 14.1631 2.67474C14.2578 2.66025 14.3445 2.61332 14.4085 2.54196C14.4917 2.44997 14.5972 2.3809 14.7148 2.34137C14.8324 2.30184 14.9582 2.29318 15.0801 2.31623C15.1379 2.32373 15.1956 2.34047 15.2493 2.34913C15.5508 2.39647 15.5883 2.37742 15.6986 2.09569C15.7247 2.02182 15.774 1.95839 15.8392 1.91488C15.9044 1.87138 15.9819 1.85015 16.0601 1.85437C16.316 1.83344 16.5734 1.86777 16.8148 1.95503C17.0562 2.04229 17.2761 2.18044 17.4594 2.36011L19.0654 3.96852C19.2358 4.14171 19.394 4.32415 19.5754 4.48175C19.6812 4.57455 19.7673 4.68769 19.8285 4.81445C19.8898 4.9412 19.9248 5.07898 19.9317 5.21957C20.0472 6.48198 20.1681 7.74419 20.2943 9.00621C20.4645 10.7478 20.6364 12.4896 20.81 14.2315V14.2489C20.7664 14.517 20.7573 14.7896 20.7829 15.06C20.82 15.326 20.8087 15.5965 20.7494 15.8584C20.7303 15.9711 20.7247 16.0856 20.7327 16.1996C20.7319 16.265 20.7456 16.3297 20.773 16.389C20.8004 16.4483 20.8407 16.5008 20.8909 16.5426C20.9411 16.5845 21.0001 16.6145 21.0634 16.6307C21.1267 16.6469 21.1929 16.6487 21.257 16.6361C21.3231 16.6199 21.3928 16.6276 21.4538 16.6579C21.5147 16.6881 21.5631 16.7388 21.5902 16.8012C21.6782 16.9436 21.7999 17.0623 21.9445 17.1467C22.0891 17.2312 22.2522 17.2789 22.4195 17.2856C22.6413 17.3185 22.8636 17.3485 23.0854 17.3791C23.2505 17.4016 23.366 17.4663 23.3741 17.6585C23.3741 17.7549 23.4134 17.8496 23.4244 17.9472C23.4393 18.0153 23.432 18.0864 23.4034 18.1501C23.3748 18.2137 23.3264 18.2664 23.2656 18.3005C23.1501 18.3657 23.1431 18.4396 23.2078 18.5528C23.3042 18.7156 23.3811 18.8899 23.4642 19.0602C23.5756 19.3024 23.5991 19.5757 23.5306 19.8333C23.4929 19.9692 23.4905 20.1124 23.5237 20.2495C23.5972 20.4664 23.6995 20.6725 23.828 20.8621C23.8637 20.9236 23.9127 20.9762 23.9715 21.0162C24.0302 21.0561 24.0973 21.0823 24.1676 21.0928C24.2379 21.1033 24.3097 21.0978 24.3776 21.0768C24.4454 21.0557 24.5077 21.0196 24.5597 20.9712C24.6838 20.879 24.8376 20.8356 24.9916 20.8495C25.1456 20.8633 25.2891 20.9334 25.3948 21.0462C25.6007 21.2608 25.7879 21.4926 25.9544 21.739C25.9781 21.7877 25.9918 21.8406 25.9947 21.8946C25.9976 21.9487 25.9896 22.0028 25.9711 22.0536C25.947 22.1304 25.9436 22.2122 25.9614 22.2907C25.9791 22.3692 26.0174 22.4416 26.0722 22.5005C26.2053 22.6366 26.2889 22.8135 26.3095 23.0028C26.3095 23.2701 26.194 23.3769 25.9342 23.3157C25.799 23.2839 25.6535 23.2129 25.6056 23.4225C25.56 23.6199 25.6558 23.7423 25.8735 23.7798C25.9186 23.7873 25.9642 23.7954 26.0098 23.7995C26.5226 23.8474 26.7028 23.9969 26.8582 24.5361" fill="#647F3A"/>
<path d="M150.935 10.6939V7.40661C150.936 7.35308 150.926 7.29995 150.906 7.25044C150.885 7.20094 150.855 7.1561 150.817 7.11866C150.78 7.0804 150.735 7.05016 150.686 7.02978C150.637 7.0094 150.584 6.9993 150.531 7.00012H134.936C134.882 6.99917 134.829 7.0092 134.78 7.02959C134.731 7.04998 134.686 7.08029 134.649 7.11866C134.61 7.15605 134.58 7.20088 134.56 7.2504C134.54 7.29991 134.53 7.35307 134.531 7.40661V30.315C134.53 30.3686 134.54 30.4216 134.561 30.4711C134.581 30.5207 134.611 30.5656 134.648 30.6035C134.686 30.6413 134.731 30.6713 134.78 30.6916C134.83 30.7119 134.882 30.7222 134.936 30.7219H150.531C150.584 30.7222 150.637 30.7119 150.686 30.6915C150.735 30.6712 150.78 30.6412 150.818 30.6034C150.855 30.5655 150.885 30.5206 150.905 30.4711C150.926 30.4216 150.936 30.3685 150.935 30.315V27.0281C150.936 26.9746 150.926 26.9215 150.905 26.872C150.885 26.8225 150.855 26.7776 150.818 26.7397C150.78 26.7019 150.735 26.6719 150.686 26.6516C150.637 26.6312 150.584 26.6209 150.531 26.6212H139.461C139.438 26.6243 139.415 26.6221 139.393 26.6148C139.371 26.6074 139.351 26.5951 139.335 26.5788C139.319 26.5625 139.307 26.5426 139.299 26.5208C139.292 26.4989 139.29 26.4757 139.293 26.4528V20.9633C139.29 20.9405 139.292 20.9172 139.299 20.8954C139.307 20.8735 139.319 20.8537 139.335 20.8374C139.351 20.8211 139.371 20.8087 139.393 20.8014C139.415 20.794 139.438 20.7918 139.461 20.7949H146.718C146.771 20.7953 146.824 20.785 146.873 20.7647C146.923 20.7444 146.967 20.7144 147.005 20.6766C147.043 20.6387 147.073 20.5937 147.093 20.5442C147.113 20.4947 147.123 20.4416 147.123 20.3881V17.1011C147.123 17.0476 147.113 16.9946 147.093 16.945C147.073 16.8955 147.043 16.8505 147.005 16.8127C146.967 16.7748 146.923 16.7449 146.873 16.7246C146.824 16.7042 146.771 16.694 146.718 16.6943H139.459C139.436 16.6974 139.413 16.6952 139.391 16.6879C139.369 16.6805 139.349 16.6682 139.333 16.6519C139.317 16.6356 139.305 16.6157 139.297 16.5939C139.29 16.572 139.288 16.5488 139.291 16.5259V11.2722C139.288 11.2493 139.29 11.2261 139.298 11.2043C139.305 11.1825 139.317 11.1626 139.333 11.1464C139.35 11.1301 139.369 11.1177 139.391 11.1104C139.413 11.103 139.436 11.1007 139.459 11.1038H150.529C150.582 11.1041 150.635 11.0938 150.684 11.0735C150.733 11.0532 150.778 11.0232 150.816 10.9854C150.853 10.9476 150.883 10.9027 150.903 10.8532C150.924 10.8038 150.934 10.7508 150.933 10.6973L150.935 10.6939ZM126.598 7.27122L121.502 15.167C121.435 15.3017 121.367 15.3017 121.3 15.167L116.236 7.27122C116.189 7.18766 116.12 7.11849 116.037 7.07106C115.953 7.02362 115.859 6.99969 115.763 7.0018H111.814C111.761 7.00086 111.708 7.01089 111.658 7.03127C111.609 7.05166 111.564 7.08197 111.527 7.12035C111.489 7.15774 111.459 7.20256 111.438 7.25208C111.418 7.30159 111.408 7.35475 111.409 7.40829V30.315C111.409 30.3686 111.419 30.4216 111.439 30.4711C111.459 30.5207 111.489 30.5656 111.527 30.6035C111.564 30.6413 111.609 30.6713 111.659 30.6916C111.708 30.7119 111.761 30.7222 111.814 30.7219H115.763C115.817 30.7222 115.869 30.7119 115.919 30.6915C115.968 30.6712 116.013 30.6412 116.05 30.6034C116.088 30.5655 116.118 30.5206 116.138 30.4711C116.158 30.4216 116.169 30.3685 116.168 30.315V15.4044C116.168 15.3142 116.19 15.2633 116.235 15.2519C116.28 15.2404 116.325 15.2687 116.37 15.3364L119.947 20.9606C119.995 21.0443 120.063 21.1136 120.147 21.1611C120.23 21.2086 120.324 21.2324 120.42 21.2301H122.412C122.507 21.2323 122.602 21.2084 122.685 21.161C122.768 21.1135 122.837 21.0443 122.884 20.9606L126.462 15.3364C126.507 15.2691 126.552 15.2354 126.596 15.2354C126.641 15.2354 126.664 15.2809 126.664 15.3701V30.315C126.663 30.3686 126.673 30.4216 126.694 30.4711C126.714 30.5207 126.744 30.5656 126.781 30.6035C126.819 30.6413 126.864 30.6713 126.913 30.6916C126.963 30.7119 127.015 30.7222 127.069 30.7219H131.018C131.071 30.7222 131.124 30.7119 131.173 30.6915C131.223 30.6712 131.267 30.6412 131.305 30.6034C131.343 30.5655 131.373 30.5206 131.393 30.4711C131.413 30.4216 131.423 30.3685 131.423 30.315V7.40661C131.424 7.35308 131.414 7.29995 131.393 7.25044C131.373 7.20094 131.343 7.1561 131.305 7.11866C131.268 7.08065 131.224 7.05055 131.175 7.03018C131.126 7.0098 131.073 6.99958 131.02 7.00012H127.071C126.975 6.9981 126.881 7.02225 126.797 7.07C126.714 7.11775 126.645 7.1873 126.598 7.27122" fill="#5A7334"/>
<path d="M193.955 30.7218H196.387C196.441 30.7301 196.495 30.7269 196.548 30.7126C196.6 30.6982 196.649 30.6729 196.691 30.6383C196.733 30.6038 196.768 30.5607 196.792 30.512C196.816 30.4632 196.83 30.4099 196.833 30.3554L201.821 10.6171C201.849 10.5665 201.862 10.509 201.858 10.4513C201.855 10.3937 201.835 10.3382 201.801 10.2914C201.763 10.2492 201.716 10.2162 201.663 10.195C201.61 10.1739 201.554 10.165 201.497 10.1692L199.146 10.1284C199.039 10.1202 198.933 10.1537 198.85 10.2219C198.767 10.2902 198.713 10.3879 198.7 10.4948L195.254 25.9193C195.227 26.0008 195.2 26.0416 195.173 26.0416C195.147 26.0416 195.119 26.0008 195.092 25.9193L191.606 10.4948C191.593 10.3879 191.539 10.2902 191.456 10.222C191.373 10.1538 191.267 10.1203 191.16 10.1284H188.806C188.563 10.1284 188.441 10.2241 188.441 10.4133L188.481 10.5764L193.508 30.3554C193.521 30.4623 193.575 30.5601 193.658 30.6284C193.741 30.6966 193.847 30.7301 193.954 30.7218H193.955ZM180.416 28.4833C179.946 28.4992 179.478 28.4129 179.044 28.2303C178.61 28.0476 178.221 27.773 177.903 27.4251C177.229 26.6507 176.88 25.6442 176.93 24.617V16.2332C176.883 15.2002 177.231 14.1881 177.903 13.4043C178.218 13.0515 178.606 12.7723 179.04 12.5861C179.474 12.3999 179.944 12.3114 180.416 12.3266C180.89 12.3127 181.362 12.4018 181.8 12.5878C182.237 12.7738 182.629 13.0523 182.949 13.4043C183.633 14.1824 183.989 15.1967 183.943 16.2332V24.617C183.992 25.6477 183.635 26.6564 182.949 27.4251C182.626 27.7722 182.233 28.0461 181.796 28.2286C181.359 28.411 180.889 28.4979 180.416 28.4833V28.4833ZM180.416 31.0472C182.361 31.0472 183.916 30.4774 185.079 29.338C186.241 28.1986 186.823 26.6927 186.823 24.8204V16.0706C186.854 15.238 186.715 14.4078 186.415 13.631C186.115 12.8541 185.66 12.147 185.079 11.553C183.916 10.3866 182.361 9.80288 180.416 9.80176C178.497 9.80176 176.956 10.3855 175.795 11.553C174.633 12.7205 174.052 14.2264 174.05 16.0706V24.8204C174.05 26.6925 174.624 28.1983 175.773 29.338C176.922 30.4777 178.469 31.047 180.416 31.0461V31.0472ZM164.485 28.3182C164.013 28.3337 163.543 28.2453 163.109 28.0591C162.675 27.8729 162.287 27.5935 161.972 27.2405C161.304 26.4704 160.956 25.4729 160.999 24.453V16.2332C160.952 15.2002 161.3 14.1881 161.972 13.4043C162.287 13.0515 162.675 12.7722 163.109 12.586C163.543 12.3999 164.013 12.3113 164.485 12.3266C164.948 12.313 165.407 12.4026 165.832 12.589C166.256 12.7753 166.633 13.0538 166.937 13.4043C167.597 14.1939 167.937 15.2037 167.89 16.2332V24.4544C167.933 25.4707 167.593 26.466 166.937 27.2419C166.633 27.5925 166.256 27.8711 165.832 28.0575C165.408 28.2438 164.948 28.3334 164.485 28.3196V28.3182ZM167.89 10.5363V11.7978C167.89 11.8794 167.87 11.9268 167.829 11.9403C167.789 11.9545 167.741 11.9201 167.687 11.8393C167.248 11.1794 166.639 10.6518 165.924 10.313C165.208 9.97408 164.425 9.80032 163.633 9.80445C161.931 9.80445 160.586 10.3674 159.6 11.4934C158.613 12.6194 158.12 14.132 158.121 16.0312V24.619C158.121 26.4911 158.614 27.9969 159.6 29.1366C160.586 30.2763 161.931 30.8454 163.633 30.8441C164.427 30.8481 165.211 30.667 165.924 30.315C166.637 29.9647 167.246 29.4312 167.687 28.7685C167.741 28.7146 167.788 28.7011 167.829 28.7278C167.849 28.741 167.865 28.7593 167.876 28.7808C167.886 28.8022 167.891 28.8261 167.89 28.85V30.0695C167.89 32.2399 167.458 33.8475 166.593 34.8922C165.728 35.9369 164.215 36.432 162.052 36.3777C161.997 36.3698 161.941 36.3748 161.888 36.3924C161.836 36.4101 161.788 36.4398 161.748 36.4793C161.709 36.5188 161.679 36.5669 161.662 36.6199C161.644 36.6729 161.639 36.7293 161.647 36.7845V38.5358C161.641 38.5926 161.647 38.6501 161.665 38.7045C161.682 38.7588 161.711 38.8088 161.75 38.8511C161.788 38.8934 161.835 38.9271 161.887 38.9499C161.939 38.9727 161.996 38.9841 162.052 38.9834C165.187 39.1181 167.423 38.4333 168.761 36.929C170.099 35.4247 170.768 33.2203 170.768 30.3157V10.5363C170.776 10.481 170.771 10.4247 170.753 10.3718C170.736 10.3188 170.706 10.2707 170.667 10.2313C170.627 10.1918 170.579 10.162 170.527 10.1443C170.474 10.1266 170.418 10.1214 170.363 10.1291H168.295C168.24 10.1213 168.184 10.1264 168.131 10.1441C168.079 10.1618 168.031 10.1916 167.991 10.2311C167.952 10.2706 167.922 10.3187 167.905 10.3717C167.887 10.4247 167.882 10.481 167.89 10.5363V10.5363ZM154.288 30.6558C154.652 30.6499 155.007 30.5372 155.308 30.3316C155.609 30.1261 155.844 29.8365 155.983 29.4987C156.123 29.1609 156.161 28.7895 156.093 28.4302C156.025 28.0709 155.854 27.7395 155.6 27.4766C155.247 27.1422 154.777 26.9594 154.291 26.9667C153.805 26.9741 153.341 27.1711 152.998 27.516C152.654 27.861 152.458 28.3267 152.451 28.8144C152.443 29.3021 152.626 29.7736 152.959 30.1288C153.131 30.3047 153.339 30.4425 153.568 30.5333C153.797 30.6241 154.042 30.6658 154.288 30.6558Z" fill="#3B6B90"/>
<path d="M106.918 9.92505C105.134 9.92505 103.851 10.956 103.067 13.018C103.032 13.0623 102.981 13.0915 102.925 13.0995C102.885 13.0995 102.864 13.0588 102.864 12.9773V10.5363C102.872 10.4811 102.867 10.4248 102.85 10.3719C102.832 10.319 102.803 10.2708 102.764 10.2313C102.725 10.1917 102.677 10.1619 102.624 10.144C102.571 10.1262 102.515 10.1209 102.46 10.1285H100.393C100.338 10.1205 100.282 10.1256 100.229 10.1432C100.176 10.1608 100.128 10.1906 100.089 10.2301C100.05 10.2695 100.02 10.3177 100.002 10.3707C99.9847 10.4236 99.9796 10.48 99.9875 10.5353V30.3147C99.9796 30.37 99.9847 30.4263 100.002 30.4793C100.02 30.5323 100.05 30.5804 100.089 30.6199C100.128 30.6594 100.176 30.6891 100.229 30.7068C100.282 30.7244 100.338 30.7294 100.393 30.7215H102.46C102.515 30.7294 102.572 30.7243 102.624 30.7066C102.677 30.689 102.725 30.6592 102.764 30.6198C102.804 30.5803 102.833 30.5322 102.851 30.4792C102.868 30.4263 102.873 30.3699 102.866 30.3147V18.1054C102.826 16.8655 103.151 15.6413 103.798 14.5847C104.419 13.6222 105.217 13.1136 106.19 13.0588C106.35 13.027 106.513 13.0133 106.676 13.018C107.095 13.0039 107.511 13.0875 107.892 13.2622C108.189 13.3437 108.352 13.2623 108.379 13.018L108.865 10.9017C108.9 10.8039 108.898 10.697 108.861 10.6001C108.824 10.5032 108.754 10.4226 108.664 10.3726C108.135 10.0632 107.531 9.90815 106.92 9.92505H106.918ZM90.2292 12.3263C90.7074 12.3082 91.1837 12.3953 91.6248 12.5815C92.066 12.7676 92.4613 13.0483 92.783 13.404C93.4548 14.1879 93.8028 15.1999 93.7558 16.2329V18.9608C93.7589 18.9829 93.7569 19.0055 93.7498 19.0267C93.7428 19.0478 93.731 19.0671 93.7153 19.0829C93.6996 19.0987 93.6804 19.1106 93.6593 19.1177C93.6382 19.1248 93.6158 19.1269 93.5938 19.1238H86.9441C86.9221 19.127 86.8996 19.125 86.8785 19.1179C86.8574 19.1108 86.8382 19.0989 86.8224 19.0831C86.8067 19.0672 86.7949 19.048 86.7879 19.0267C86.7809 19.0055 86.7789 18.983 86.7821 18.9608V16.2329C86.7347 15.2033 87.0747 14.1935 87.7348 13.404C88.0451 13.0504 88.4296 12.7703 88.8607 12.584C89.2918 12.3976 89.7588 12.3096 90.2278 12.3263H90.2292ZM96.592 21.1162V16.0295C96.592 14.1851 96.0177 12.6861 94.8692 11.5325C93.7206 10.3789 92.1735 9.80235 90.2278 9.8028C88.3084 9.8028 86.7747 10.3794 85.6268 11.5325C84.4789 12.6856 83.9046 14.1846 83.9039 16.0295V24.8195C83.9039 26.6915 84.4782 28.1974 85.6268 29.337C86.7754 30.4767 88.3091 31.0464 90.2278 31.0462C91.9843 31.0462 93.4098 30.5782 94.5045 29.6421C95.6178 28.6706 96.3208 27.3098 96.4706 25.8365C96.4863 25.7798 96.4871 25.72 96.4729 25.6629C96.4586 25.6058 96.4299 25.5534 96.3894 25.5109C96.3529 25.4722 96.3089 25.4414 96.2601 25.4204C96.2113 25.3995 96.1587 25.3888 96.1056 25.389L94.0788 25.3075C93.9737 25.3072 93.8718 25.3435 93.7905 25.4104C93.7091 25.4772 93.6535 25.5704 93.633 25.6739C93.4687 26.4714 93.0486 27.193 92.4371 27.7282C91.8244 28.2591 91.0369 28.542 90.2278 28.522C89.7587 28.5388 89.2918 28.4509 88.8606 28.2645C88.4295 28.0781 88.045 27.798 87.7348 27.4443C87.079 26.6686 86.7388 25.673 86.7821 24.6565V21.6867C86.779 21.6646 86.781 21.6421 86.788 21.6209C86.7951 21.5997 86.8069 21.5805 86.8226 21.5647C86.8383 21.5489 86.8575 21.5369 86.8786 21.5298C86.8996 21.5227 86.9221 21.5206 86.9441 21.5237H96.1875C96.2425 21.5316 96.2986 21.5265 96.3514 21.5089C96.4041 21.4912 96.452 21.4615 96.4914 21.422C96.5307 21.3825 96.5603 21.3344 96.5779 21.2814C96.5955 21.2285 96.6005 21.1722 96.5927 21.1169L96.592 21.1162ZM74.1449 30.7215H76.577C76.6307 30.7298 76.6855 30.7267 76.7379 30.7124C76.7904 30.6981 76.8392 30.6728 76.8813 30.6383C76.9234 30.6038 76.9577 30.5607 76.9822 30.512C77.0066 30.4633 77.0206 30.4099 77.0231 30.3554L82.0093 10.6168C82.0368 10.5661 82.0495 10.5086 82.0459 10.451C82.0423 10.3934 82.0225 10.3379 81.9888 10.2911C81.9507 10.249 81.9035 10.2161 81.8508 10.195C81.7982 10.1739 81.7414 10.1651 81.6849 10.1692L79.3337 10.1285C79.2267 10.1201 79.1206 10.1536 79.0375 10.2218C78.9545 10.2901 78.9009 10.3879 78.8879 10.4949L75.4421 25.9194C75.415 26.0005 75.3875 26.0413 75.361 26.0413C75.3345 26.0413 75.3066 26.0005 75.2798 25.9194L71.7938 10.4949C71.7806 10.388 71.727 10.2903 71.6439 10.222C71.5609 10.1538 71.4549 10.1203 71.3479 10.1285H68.9968C68.7534 10.1285 68.6318 10.2234 68.6318 10.4134L68.6724 10.576L73.6991 30.3554C73.7122 30.4623 73.7658 30.5601 73.8489 30.6283C73.9319 30.6965 74.038 30.7299 74.1449 30.7215V30.7215ZM60.6568 28.4833C60.1866 28.4993 59.7186 28.413 59.2848 28.2303C58.851 28.0477 58.4617 27.773 58.1436 27.4251C57.4696 26.6507 57.1209 25.6442 57.1707 24.6171V16.2333C57.1236 15.2002 57.4716 14.1881 58.1436 13.4043C58.4588 13.0515 58.8471 12.7721 59.2812 12.586C59.7154 12.3998 60.1849 12.3113 60.6568 12.3266C61.1314 12.3127 61.6035 12.4017 62.0408 12.5877C62.4781 12.7737 62.8702 13.0522 63.1904 13.4043C63.8741 14.1825 64.2302 15.1967 64.1837 16.2333V24.6171C64.2328 25.6477 63.876 26.6564 63.1904 27.4251C62.8673 27.7722 62.4742 28.0461 62.0373 28.2286C61.6004 28.411 61.1297 28.4979 60.6568 28.4833ZM60.6568 31.0472C62.6024 31.0472 64.1566 30.4775 65.3195 29.338C66.4824 28.1986 67.0639 26.6927 67.0639 24.8205V16.0703C67.095 15.2377 66.9563 14.4076 66.6563 13.6308C66.3563 12.854 65.9014 12.147 65.3195 11.553C64.1566 10.3867 62.6024 9.80291 60.6568 9.80179C58.7378 9.80179 57.1974 10.3855 56.0356 11.553C54.8738 12.7205 54.2923 14.2263 54.2912 16.0703V24.8205C54.2912 26.6925 54.8654 28.1984 56.0138 29.338C57.1621 30.4777 58.7098 31.0471 60.6568 31.0462V31.0472ZM45.1827 31.0462C47.1013 31.0462 48.6485 30.5104 49.8243 29.4387C50.3945 28.9336 50.8477 28.3094 51.1522 27.6099C51.4568 26.9104 51.6053 26.1525 51.5875 25.3893V24.9414C51.5953 24.8861 51.5901 24.8298 51.5725 24.7769C51.5549 24.724 51.5253 24.6759 51.486 24.6364C51.4467 24.597 51.3988 24.5673 51.3461 24.5496C51.2934 24.5319 51.2373 24.5267 51.1823 24.5345L49.1149 24.4938C49.0598 24.4859 49.0036 24.491 48.9508 24.5087C48.8981 24.5264 48.8501 24.5561 48.8108 24.5956C48.7714 24.6351 48.7418 24.6833 48.7242 24.7363C48.7065 24.7893 48.7015 24.8457 48.7093 24.901V25.1862C48.7117 25.6237 48.6248 26.057 48.4541 26.4595C48.2833 26.862 48.0322 27.2251 47.7164 27.5265C47.3841 27.8574 46.988 28.1166 46.5522 28.2881C46.1165 28.4596 45.6504 28.5398 45.1827 28.5237C44.7136 28.5405 44.2466 28.4526 43.8155 28.2662C43.3844 28.0798 42.9998 27.7997 42.6896 27.446C42.0293 26.6567 41.6892 25.6467 41.7369 24.6171V16.2333C41.6895 15.2037 42.0296 14.1938 42.6896 13.4043C42.9999 13.0507 43.3845 12.7707 43.8156 12.5843C44.2467 12.398 44.7136 12.3099 45.1827 12.3266C45.6504 12.3107 46.1164 12.3909 46.5521 12.5623C46.9878 12.7337 47.384 12.9927 47.7164 13.3235C48.0322 13.6249 48.2832 13.988 48.454 14.3905C48.6248 14.793 48.7116 15.2263 48.7093 15.6638V15.9487C48.7015 16.004 48.7065 16.0603 48.7241 16.1133C48.7417 16.1663 48.7714 16.2144 48.8108 16.2539C48.8501 16.2934 48.8981 16.3231 48.9509 16.3408C49.0036 16.3584 49.0598 16.3634 49.1149 16.3555L51.1823 16.2744C51.2373 16.2822 51.2934 16.277 51.3462 16.2593C51.3989 16.2416 51.4468 16.2118 51.4861 16.1723C51.5254 16.1329 51.5551 16.0847 51.5726 16.0318C51.5902 15.9788 51.5953 15.9225 51.5875 15.8672V15.46C51.5965 14.4609 51.3224 13.4798 50.7972 12.6311C50.2459 11.7547 49.4684 11.0448 48.5473 10.5767C47.5062 10.0449 46.3506 9.77888 45.1827 9.80212C43.2908 9.80212 41.7639 10.3787 40.6021 11.5318C39.4403 12.685 38.8592 14.1842 38.8588 16.0295V24.8195C38.8588 26.6915 39.4331 28.1974 40.5816 29.337C41.7302 30.4767 43.2639 31.0464 45.1827 31.0462" fill="#3B6B90"/>
</svg>
