<svg width="163" height="39" viewBox="0 0 163 39" fill="none" xmlns="http://www.w3.org/2000/svg">
<path d="M112.076 10.6939V7.40661C112.077 7.35308 112.067 7.29995 112.047 7.25044C112.027 7.20094 111.996 7.1561 111.958 7.11866C111.921 7.0804 111.876 7.05016 111.827 7.02978C111.778 7.0094 111.725 6.9993 111.672 7.00012H96.077C96.0236 6.99917 95.9706 7.0092 95.9212 7.02959C95.8719 7.04998 95.8271 7.08029 95.7899 7.11866C95.7517 7.15605 95.7215 7.20088 95.7012 7.2504C95.6809 7.29991 95.6709 7.35307 95.6718 7.40661V30.315C95.6714 30.3686 95.6817 30.4216 95.7019 30.4711C95.7221 30.5207 95.752 30.5656 95.7897 30.6035C95.8274 30.6413 95.8722 30.6713 95.9215 30.6916C95.9708 30.7119 96.0237 30.7222 96.077 30.7219H111.672C111.725 30.7222 111.778 30.7119 111.827 30.6915C111.877 30.6712 111.921 30.6412 111.959 30.6034C111.997 30.5655 112.026 30.5206 112.047 30.4711C112.067 30.4216 112.077 30.3685 112.077 30.315V27.0281C112.077 26.9746 112.067 26.9215 112.047 26.872C112.026 26.8225 111.997 26.7776 111.959 26.7397C111.921 26.7019 111.877 26.6719 111.827 26.6516C111.778 26.6312 111.725 26.6209 111.672 26.6212H100.602C100.579 26.6243 100.556 26.6221 100.534 26.6148C100.512 26.6074 100.493 26.5951 100.476 26.5788C100.46 26.5625 100.448 26.5426 100.441 26.5208C100.433 26.4989 100.431 26.4757 100.434 26.4528V20.9633C100.431 20.9405 100.433 20.9172 100.441 20.8954C100.448 20.8735 100.46 20.8537 100.476 20.8374C100.493 20.8211 100.512 20.8087 100.534 20.8014C100.556 20.794 100.579 20.7918 100.602 20.7949H107.859C107.912 20.7953 107.965 20.785 108.015 20.7647C108.064 20.7444 108.109 20.7144 108.146 20.6766C108.184 20.6387 108.214 20.5937 108.234 20.5442C108.254 20.4947 108.265 20.4416 108.264 20.3881V17.1011C108.265 17.0476 108.254 16.9946 108.234 16.945C108.214 16.8955 108.184 16.8505 108.146 16.8127C108.109 16.7748 108.064 16.7449 108.015 16.7246C107.965 16.7042 107.912 16.694 107.859 16.6943H100.6C100.577 16.6974 100.554 16.6952 100.532 16.6879C100.51 16.6805 100.491 16.6682 100.474 16.6519C100.458 16.6356 100.446 16.6157 100.439 16.5939C100.431 16.572 100.429 16.5488 100.432 16.5259V11.2722C100.429 11.2493 100.431 11.2261 100.439 11.2043C100.446 11.1825 100.458 11.1626 100.475 11.1464C100.491 11.1301 100.511 11.1177 100.532 11.1104C100.554 11.103 100.577 11.1007 100.6 11.1038H111.67C111.723 11.1041 111.776 11.0938 111.825 11.0735C111.874 11.0532 111.919 11.0232 111.957 10.9854C111.994 10.9476 112.024 10.9027 112.045 10.8532C112.065 10.8038 112.075 10.7508 112.075 10.6973L112.076 10.6939ZM87.7397 7.27122L82.6428 15.167C82.5758 15.3017 82.5087 15.3017 82.4416 15.167L77.3773 7.27122C77.33 7.18766 77.2612 7.11849 77.1779 7.07106C77.0947 7.02362 77.0003 6.99969 76.9046 7.0018H72.9553C72.9019 7.00086 72.8489 7.01089 72.7995 7.03127C72.7502 7.05166 72.7055 7.08197 72.6682 7.12035C72.63 7.15774 72.5998 7.20256 72.5795 7.25208C72.5592 7.30159 72.5492 7.35475 72.5501 7.40829V30.315C72.5497 30.3686 72.56 30.4216 72.5802 30.4711C72.6005 30.5207 72.6303 30.5656 72.668 30.6035C72.7057 30.6413 72.7505 30.6713 72.7998 30.6916C72.8492 30.7119 72.902 30.7222 72.9553 30.7219H76.9046C76.9579 30.7222 77.0107 30.7119 77.06 30.6915C77.1093 30.6712 77.1541 30.6412 77.1917 30.6034C77.2294 30.5655 77.2592 30.5206 77.2794 30.4711C77.2996 30.4216 77.3099 30.3685 77.3095 30.315V15.4044C77.3095 15.3142 77.3316 15.2633 77.3766 15.2519C77.4215 15.2404 77.4661 15.2687 77.5108 15.3364L81.0887 20.9606C81.1357 21.0443 81.2046 21.1136 81.2878 21.1611C81.3711 21.2086 81.4656 21.2324 81.5613 21.2301H83.5529C83.6486 21.2323 83.743 21.2084 83.8262 21.161C83.9094 21.1135 83.9782 21.0443 84.0252 20.9606L87.6035 15.3364C87.6482 15.2691 87.693 15.2354 87.7377 15.2354C87.7826 15.2354 87.8048 15.2809 87.8048 15.3701V30.315C87.8044 30.3686 87.8147 30.4216 87.8349 30.4711C87.8551 30.5207 87.885 30.5656 87.9227 30.6035C87.9604 30.6413 88.0052 30.6713 88.0545 30.6916C88.1038 30.7119 88.1567 30.7222 88.21 30.7219H92.1593C92.2126 30.7222 92.2654 30.7119 92.3147 30.6915C92.3639 30.6712 92.4087 30.6412 92.4464 30.6034C92.4841 30.5655 92.5139 30.5206 92.5341 30.4711C92.5543 30.4216 92.5645 30.3685 92.5642 30.315V7.40661C92.565 7.35308 92.5549 7.29995 92.5346 7.25044C92.5143 7.20094 92.4842 7.1561 92.4461 7.11866C92.4091 7.08065 92.3648 7.05055 92.3159 7.03018C92.267 7.0098 92.2146 6.99958 92.1616 7.00012H88.2123C88.1165 6.9981 88.0219 7.02225 87.9386 7.07C87.8554 7.11775 87.7866 7.1873 87.7397 7.27122" fill="#647F3A"/>
<path d="M155.096 30.7219H157.528C157.582 30.7301 157.637 30.727 157.689 30.7126C157.742 30.6982 157.79 30.6729 157.832 30.6384C157.874 30.6038 157.909 30.5608 157.933 30.512C157.958 30.4633 157.971 30.4099 157.974 30.3554L162.962 10.6171C162.99 10.5665 163.003 10.509 162.999 10.4514C162.996 10.3937 162.976 10.3383 162.942 10.2915C162.904 10.2492 162.857 10.2163 162.804 10.1951C162.752 10.1739 162.695 10.165 162.638 10.1692L160.287 10.1285C160.18 10.1202 160.074 10.1537 159.991 10.2219C159.908 10.2902 159.854 10.3879 159.841 10.4949L156.395 25.9194C156.368 26.0009 156.341 26.0416 156.314 26.0416C156.288 26.0416 156.26 26.0009 156.233 25.9194L152.747 10.4949C152.734 10.388 152.68 10.2903 152.597 10.222C152.514 10.1538 152.408 10.1203 152.301 10.1285H149.947C149.704 10.1285 149.582 10.2241 149.582 10.4134L149.623 10.5764L154.649 30.3554C154.662 30.4624 154.716 30.5601 154.799 30.6284C154.882 30.6966 154.988 30.7301 155.095 30.7219H155.096ZM141.557 28.4833C141.087 28.4992 140.619 28.4129 140.185 28.2303C139.751 28.0477 139.362 27.773 139.044 27.4251C138.37 26.6507 138.021 25.6442 138.071 24.6171V16.2333C138.024 15.2002 138.372 14.1881 139.044 13.4043C139.359 13.0515 139.747 12.7723 140.181 12.5861C140.616 12.4 141.085 12.3114 141.557 12.3266C142.032 12.3127 142.504 12.4018 142.941 12.5878C143.378 12.7738 143.77 13.0523 144.091 13.4043C144.774 14.1825 145.13 15.1967 145.084 16.2333V24.6171C145.133 25.6477 144.776 26.6564 144.091 27.4251C143.768 27.7722 143.374 28.0461 142.937 28.2286C142.501 28.4111 142.03 28.4979 141.557 28.4833V28.4833ZM141.557 31.0472C143.503 31.0472 145.057 30.4775 146.22 29.338C147.383 28.1986 147.964 26.6927 147.964 24.8205V16.0706C147.995 15.238 147.856 14.4078 147.557 13.631C147.257 12.8542 146.802 12.1471 146.22 11.553C145.057 10.3867 143.503 9.80291 141.557 9.80179C139.638 9.80179 138.097 10.3855 136.936 11.553C135.774 12.7205 135.193 14.2264 135.191 16.0706V24.8205C135.191 26.6925 135.766 28.1984 136.914 29.338C138.063 30.4777 139.61 31.0471 141.557 31.0462V31.0472ZM125.626 28.3183C125.154 28.3338 124.685 28.2453 124.25 28.0591C123.816 27.8729 123.428 27.5935 123.113 27.2406C122.445 26.4705 122.097 25.4729 122.14 24.453V16.2333C122.093 15.2002 122.441 14.1881 123.113 13.4043C123.428 13.0515 123.816 12.7722 124.251 12.5861C124.685 12.3999 125.154 12.3113 125.626 12.3266C126.089 12.3131 126.549 12.4027 126.973 12.589C127.397 12.7754 127.774 13.0538 128.078 13.4043C128.738 14.194 129.078 15.2037 129.031 16.2333V24.4544C129.074 25.4708 128.734 26.466 128.078 27.2419C127.775 27.5926 127.397 27.8711 126.973 28.0575C126.549 28.2439 126.089 28.3334 125.626 28.3196V28.3183ZM129.031 10.5363V11.7979C129.031 11.8794 129.011 11.9269 128.97 11.9403C128.93 11.9545 128.882 11.9201 128.829 11.8393C128.389 11.1794 127.78 10.6518 127.065 10.313C126.349 9.97411 125.566 9.80035 124.775 9.80448C123.072 9.80448 121.728 10.3675 120.741 11.4934C119.755 12.6194 119.262 14.132 119.262 16.0312V24.6191C119.262 26.4911 119.755 27.997 120.741 29.1366C121.727 30.2763 123.072 30.8455 124.775 30.8441C125.569 30.8481 126.353 30.667 127.065 30.315C127.779 29.9648 128.387 29.4312 128.829 28.7685C128.882 28.7147 128.929 28.7012 128.97 28.7278C128.99 28.7411 129.006 28.7594 129.017 28.7808C129.028 28.8022 129.033 28.8261 129.031 28.85V30.0695C129.031 32.2399 128.599 33.8475 127.734 34.8922C126.869 35.9369 125.356 36.4321 123.194 36.3777C123.139 36.3698 123.082 36.3748 123.03 36.3925C122.977 36.4101 122.929 36.4398 122.89 36.4793C122.85 36.5188 122.821 36.567 122.803 36.6199C122.786 36.6729 122.781 36.7293 122.788 36.7846V38.5358C122.782 38.5926 122.788 38.6501 122.806 38.7045C122.824 38.7588 122.852 38.8088 122.891 38.8511C122.929 38.8934 122.976 38.9271 123.028 38.9499C123.08 38.9727 123.137 38.9841 123.194 38.9834C126.328 39.1181 128.565 38.4333 129.903 36.929C131.241 35.4248 131.91 33.2203 131.909 30.3157V10.5363C131.917 10.481 131.912 10.4247 131.894 10.3718C131.877 10.3189 131.847 10.2708 131.808 10.2313C131.769 10.1918 131.721 10.1621 131.668 10.1443C131.615 10.1266 131.559 10.1214 131.504 10.1291H129.436C129.381 10.1213 129.325 10.1265 129.272 10.1442C129.22 10.1619 129.172 10.1917 129.133 10.2311C129.093 10.2706 129.064 10.3188 129.046 10.3717C129.028 10.4247 129.023 10.481 129.031 10.5363V10.5363ZM115.429 30.6558C115.793 30.6499 116.148 30.5373 116.449 30.3317C116.75 30.1261 116.985 29.8366 117.125 29.4987C117.264 29.1609 117.302 28.7895 117.234 28.4302C117.166 28.071 116.995 27.7395 116.742 27.4766C116.388 27.1423 115.918 26.9594 115.432 26.9667C114.947 26.9741 114.483 27.1711 114.139 27.5161C113.796 27.861 113.599 28.3267 113.592 28.8144C113.585 29.3022 113.767 29.7736 114.1 30.1288C114.273 30.3048 114.48 30.4426 114.709 30.5333C114.938 30.6241 115.183 30.6658 115.429 30.6558Z" fill="#4A7EA6"/>
<path d="M68.0595 9.92506C66.2756 9.92506 64.9918 10.9561 64.2082 13.018C64.1729 13.0624 64.1222 13.0915 64.0663 13.0995C64.026 13.0995 64.0055 13.0588 64.0055 12.9773V10.5363C64.0134 10.4811 64.0085 10.4248 63.991 10.3719C63.9735 10.319 63.9441 10.2708 63.9049 10.2313C63.8657 10.1918 63.818 10.1619 63.7653 10.144C63.7127 10.1262 63.6567 10.1209 63.6017 10.1285H61.5343C61.4792 10.1205 61.4231 10.1256 61.3703 10.1432C61.3175 10.1609 61.2695 10.1906 61.2302 10.2301C61.1908 10.2696 61.1611 10.3177 61.1435 10.3707C61.1259 10.4236 61.1209 10.48 61.1287 10.5353V30.3147C61.1209 30.37 61.1259 30.4264 61.1435 30.4793C61.1611 30.5323 61.1908 30.5805 61.2302 30.6199C61.2695 30.6594 61.3175 30.6891 61.3703 30.7068C61.4231 30.7244 61.4792 30.7295 61.5343 30.7215H63.6017C63.6567 30.7294 63.7128 30.7243 63.7656 30.7067C63.8183 30.689 63.8662 30.6593 63.9055 30.6198C63.9449 30.5803 63.9745 30.5322 63.9921 30.4792C64.0097 30.4263 64.0147 30.37 64.0069 30.3147V18.1054C63.9676 16.8655 64.2919 15.6413 64.9394 14.5847C65.5607 13.6222 66.3578 13.1136 67.3309 13.0588C67.4911 13.027 67.6544 13.0134 67.8176 13.018C68.2363 13.0039 68.6526 13.0875 69.0336 13.2622C69.3306 13.3437 69.4928 13.2623 69.52 13.018L70.0064 10.9017C70.0408 10.8039 70.0394 10.697 70.0025 10.6001C69.9656 10.5032 69.8957 10.4226 69.8052 10.3726C69.2766 10.0632 68.6725 9.90817 68.0608 9.92506H68.0595ZM51.3704 12.3263C51.8486 12.3082 52.3249 12.3953 52.7661 12.5815C53.2072 12.7676 53.6025 13.0484 53.9242 13.404C54.596 14.1879 54.944 15.1999 54.897 16.2329V18.9609C54.9001 18.983 54.8981 19.0055 54.8911 19.0267C54.884 19.0479 54.8722 19.0671 54.8565 19.0829C54.8408 19.0987 54.8216 19.1107 54.8006 19.1178C54.7795 19.1249 54.757 19.1269 54.735 19.1239H48.0853C48.0633 19.127 48.0408 19.125 48.0197 19.1179C47.9986 19.1108 47.9794 19.0989 47.9637 19.0831C47.948 19.0673 47.9361 19.048 47.9291 19.0268C47.9221 19.0055 47.9201 18.983 47.9233 18.9609V16.2329C47.8759 15.2033 48.216 14.1935 48.876 13.404C49.1863 13.0504 49.5708 12.7704 50.002 12.584C50.4331 12.3976 50.9 12.3096 51.3691 12.3263H51.3704ZM57.7333 21.1162V16.0295C57.7333 14.1851 57.159 12.6861 56.0104 11.5325C54.8618 10.3789 53.3147 9.80236 51.3691 9.80281C49.4496 9.80281 47.9159 10.3794 46.768 11.5325C45.6201 12.6856 45.0458 14.1847 45.0451 16.0295V24.8195C45.0451 26.6915 45.6194 28.1974 46.768 29.337C47.9166 30.4767 49.4503 31.0464 51.3691 31.0462C53.1255 31.0462 54.5511 30.5782 55.6458 29.6422C56.7591 28.6706 57.4621 27.3098 57.6118 25.8365C57.6276 25.7799 57.6283 25.72 57.6141 25.6629C57.5999 25.6059 57.5711 25.5535 57.5307 25.5109C57.4941 25.4722 57.4501 25.4414 57.4013 25.4205C57.3525 25.3995 57.3 25.3888 57.2469 25.389L55.2201 25.3075C55.115 25.3072 55.013 25.3436 54.9317 25.4104C54.8504 25.4772 54.7947 25.5704 54.7743 25.6739C54.6099 26.4715 54.1899 27.193 53.5784 27.7282C52.9657 28.2591 52.1781 28.542 51.3691 28.522C50.9 28.5388 50.433 28.4509 50.0019 28.2645C49.5707 28.0782 49.1862 27.798 48.876 27.4443C48.2202 26.6686 47.88 25.673 47.9233 24.6565V21.6867C47.9202 21.6646 47.9222 21.6421 47.9293 21.6209C47.9363 21.5997 47.9481 21.5805 47.9638 21.5647C47.9796 21.5489 47.9987 21.537 48.0198 21.5299C48.0409 21.5227 48.0633 21.5207 48.0853 21.5237H57.3287C57.3838 21.5316 57.4399 21.5265 57.4926 21.5089C57.5454 21.4912 57.5933 21.4615 57.6326 21.422C57.6719 21.3825 57.7015 21.3344 57.7191 21.2815C57.7367 21.2285 57.7418 21.1722 57.7339 21.1169L57.7333 21.1162ZM35.2862 30.7215H37.7182C37.7719 30.7299 37.8268 30.7268 37.8792 30.7124C37.9316 30.6981 37.9804 30.6728 38.0225 30.6383C38.0646 30.6038 38.099 30.5607 38.1234 30.512C38.1478 30.4633 38.1618 30.4099 38.1644 30.3555L43.1505 10.6168C43.1781 10.5661 43.1908 10.5086 43.1872 10.451C43.1835 10.3934 43.1637 10.3379 43.13 10.2911C43.0919 10.249 43.0447 10.2162 42.9921 10.195C42.9394 10.1739 42.8827 10.1651 42.8261 10.1692L40.4749 10.1285C40.3679 10.1201 40.2618 10.1536 40.1788 10.2218C40.0957 10.2901 40.0421 10.3879 40.0291 10.4949L36.5834 25.9194C36.5562 26.0006 36.5287 26.0413 36.5022 26.0413C36.4757 26.0413 36.4478 26.0006 36.421 25.9194L32.935 10.4949C32.9218 10.388 32.8682 10.2903 32.7852 10.222C32.7022 10.1538 32.5962 10.1203 32.4892 10.1285H30.138C29.8947 10.1285 29.773 10.2234 29.773 10.4134L29.8136 10.5761L34.8404 30.3555C34.8534 30.4624 34.9071 30.5601 34.9901 30.6283C35.0732 30.6965 35.1792 30.7299 35.2862 30.7215V30.7215ZM21.798 28.4833C21.3279 28.4993 20.8598 28.413 20.426 28.2303C19.9922 28.0477 19.6029 27.773 19.2848 27.4251C18.6108 26.6507 18.2621 25.6442 18.312 24.6171V16.2333C18.2648 15.2002 18.6129 14.1882 19.2848 13.4043C19.6 13.0515 19.9883 12.7722 20.4225 12.586C20.8566 12.3998 21.3261 12.3113 21.798 12.3266C22.2727 12.3127 22.7448 12.4017 23.182 12.5877C23.6193 12.7737 24.0114 13.0523 24.3317 13.4043C25.0154 14.1825 25.3715 15.1967 25.3249 16.2333V24.6171C25.374 25.6477 25.0173 26.6564 24.3317 27.4251C24.0085 27.7722 23.6154 28.0461 23.1785 28.2286C22.7416 28.4111 22.271 28.4979 21.798 28.4833ZM21.798 31.0472C23.7436 31.0472 25.2979 30.4775 26.4608 29.338C27.6237 28.1986 28.2051 26.6928 28.2051 24.8205V16.0703C28.2362 15.2377 28.0975 14.4076 27.7975 13.6308C27.4976 12.8541 27.0427 12.147 26.4608 11.5531C25.2979 10.3867 23.7436 9.80292 21.798 9.8018C19.879 9.8018 18.3386 10.3856 17.1768 11.5531C16.015 12.7206 15.4336 14.2263 15.4325 16.0703V24.8205C15.4325 26.6925 16.0066 28.1984 17.155 29.338C18.3034 30.4777 19.851 31.0471 21.798 31.0462V31.0472ZM6.32394 31.0462C8.2425 31.0462 9.78971 30.5104 10.9656 29.4387C11.5357 28.9336 11.9889 28.3094 12.2935 27.6099C12.598 26.9104 12.7466 26.1525 12.7287 25.3893V24.9414C12.7365 24.8861 12.7314 24.8298 12.7138 24.7769C12.6961 24.724 12.6665 24.6759 12.6272 24.6365C12.5879 24.597 12.54 24.5673 12.4873 24.5496C12.4346 24.5319 12.3785 24.5268 12.3235 24.5346L10.2561 24.4938C10.201 24.4859 10.1449 24.491 10.0921 24.5087C10.0393 24.5264 9.99134 24.5562 9.95199 24.5957C9.91265 24.6352 9.883 24.6833 9.86539 24.7363C9.84778 24.7893 9.8427 24.8457 9.85054 24.901V25.1862C9.85294 25.6237 9.76608 26.057 9.59531 26.4595C9.42454 26.862 9.17348 27.2251 8.85761 27.5265C8.52536 27.8574 8.12919 28.1166 7.69346 28.2881C7.25774 28.4596 6.79167 28.5398 6.32394 28.5237C5.85484 28.5405 5.38787 28.4526 4.95674 28.2662C4.5256 28.0798 4.14106 27.7997 3.83086 27.446C3.17054 26.6567 2.83042 25.6467 2.87818 24.6171V16.2333C2.83075 15.2037 3.17083 14.1938 3.83086 13.4043C4.14115 13.0508 4.52571 12.7707 4.95682 12.5843C5.38793 12.398 5.85486 12.31 6.32394 12.3266C6.79163 12.3107 7.25764 12.3909 7.69335 12.5623C8.12905 12.7337 8.52525 12.9928 8.85761 13.3235C9.17344 13.6249 9.42446 13.988 9.59523 14.3905C9.76599 14.793 9.85288 15.2263 9.85054 15.6638V15.9487C9.84269 16.004 9.84776 16.0604 9.86537 16.1133C9.88298 16.1663 9.91264 16.2145 9.95199 16.2539C9.99134 16.2934 10.0393 16.3231 10.0921 16.3408C10.1449 16.3584 10.201 16.3635 10.2561 16.3555L12.3235 16.2744C12.3786 16.2822 12.4347 16.277 12.4874 16.2593C12.5401 16.2416 12.5881 16.2119 12.6274 16.1724C12.6667 16.1329 12.6963 16.0847 12.7139 16.0318C12.7315 15.9788 12.7365 15.9225 12.7287 15.8672V15.46C12.7378 14.4609 12.4637 13.4798 11.9384 12.6311C11.3872 11.7547 10.6096 11.0448 9.68852 10.5767C8.64741 10.0449 7.49182 9.77889 6.32394 9.80214C4.43199 9.80214 2.90512 10.3787 1.74334 11.5318C0.581562 12.685 0.000447269 14.1842 0 16.0295V24.8195C0 26.6915 0.574294 28.1974 1.72288 29.337C2.87147 30.4767 4.40515 31.0464 6.32394 31.0462" fill="#4A7EA6"/>
</svg>
