<svg width="29" height="29" viewBox="0 0 29 29" fill="none" xmlns="http://www.w3.org/2000/svg">
<path d="M2.66666 15.3334L15.0782 15.3346C13.5846 16.8917 12.6667 19.0053 12.6667 21.3334C12.6667 22.783 13.0226 24.1496 13.6519 25.3504C12.2517 25.8173 10.7075 26 9.33332 26C5.70381 26 0.88625 24.7253 0.673929 20.3062L0.666656 20V17.3334C0.666656 16.2943 1.46035 15.4395 2.47413 15.3425L2.66666 15.3334ZM9.33332 0.666687C12.6467 0.666687 15.3333 3.35335 15.3333 6.66669C15.3333 9.98002 12.6467 12.6667 9.33332 12.6667C6.01999 12.6667 3.33332 9.98002 3.33332 6.66669C3.33332 3.35335 6.01999 0.666687 9.33332 0.666687ZM17.0363 16.6338C17.456 18.0875 16.5835 19.5988 15.1147 19.9621L14.3358 20.1549C14.2759 20.5385 14.2448 20.932 14.2448 21.3331C14.2448 21.7527 14.2788 22.164 14.3442 22.5643L15.0635 22.7376C16.5469 23.0948 17.4286 24.6214 16.9968 26.0848L16.7484 26.9265C17.334 27.4407 18.0012 27.8583 18.7273 28.1553L19.385 27.4636C20.4364 26.358 22.1994 26.3583 23.2505 27.4643L23.9154 28.164C24.6402 27.8703 25.3068 27.4567 25.8925 26.9468L25.6285 26.0323C25.2088 24.5786 26.0813 23.0673 27.5501 22.704L28.3283 22.5114C28.3882 22.1278 28.4193 21.7342 28.4193 21.3331C28.4193 20.9134 28.3853 20.502 28.3199 20.1016L27.6012 19.9286C26.1179 19.5713 25.2361 18.0447 25.6679 16.5813L25.9162 15.7401C25.3306 15.2258 24.6633 14.8082 23.9372 14.5111L23.2798 15.2025C22.2283 16.3081 20.4653 16.3078 19.4143 15.2018L18.7492 14.502C18.0245 14.7956 17.3579 15.2091 16.7722 15.719L17.0363 16.6338ZM21.3321 23.3331C20.2646 23.3331 19.3992 22.4377 19.3992 21.3331C19.3992 20.2285 20.2646 19.3331 21.3321 19.3331C22.3996 19.3331 23.265 20.2285 23.265 21.3331C23.265 22.4377 22.3996 23.3331 21.3321 23.3331Z" fill="#3D5D6F"/>
</svg>
