<svg width="24" height="24" viewBox="0 0 24 24" fill="none" xmlns="http://www.w3.org/2000/svg">
<path d="M3 6C3 4.34315 4.34315 3 6 3H18C19.6569 3 21 4.34315 21 6V7H3V6Z" fill="#3D5D6F"/>
<path fill-rule="evenodd" clip-rule="evenodd" d="M21 8H3V18C3 19.6569 4.34315 21 6 21H18C19.6569 21 21 19.6569 21 18V8ZM7.25 11.25C6.55964 11.25 6 11.8096 6 12.5C6 13.1904 6.55964 13.75 7.25 13.75C7.94036 13.75 8.5 13.1904 8.5 12.5C8.5 11.8096 7.94036 11.25 7.25 11.25ZM6 16.5C6 15.8096 6.55964 15.25 7.25 15.25C7.94036 15.25 8.5 15.8096 8.5 16.5C8.5 17.1904 7.94036 17.75 7.25 17.75C6.55964 17.75 6 17.1904 6 16.5ZM12 11.25C11.3096 11.25 10.75 11.8096 10.75 12.5C10.75 13.1904 11.3096 13.75 12 13.75C12.6904 13.75 13.25 13.1904 13.25 12.5C13.25 11.8096 12.6904 11.25 12 11.25ZM10.75 16.5C10.75 15.8096 11.3096 15.25 12 15.25C12.6904 15.25 13.25 15.8096 13.25 16.5C13.25 17.1904 12.6904 17.75 12 17.75C11.3096 17.75 10.75 17.1904 10.75 16.5ZM16.75 11.25C16.0596 11.25 15.5 11.8096 15.5 12.5C15.5 13.1904 16.0596 13.75 16.75 13.75C17.4404 13.75 18 13.1904 18 12.5C18 11.8096 17.4404 11.25 16.75 11.25Z" fill="#3D5D6F"/>
</svg>
