<svg width="20" height="20" viewBox="0 0 20 20" fill="none" xmlns="http://www.w3.org/2000/svg">
<g clip-path="url(#clip0_751_61733)">
<path d="M19.5 4C19.5 4.51284 19.114 4.93551 18.6166 4.99327L18.5 5H17.6553L16.4239 17.5192C16.2854 18.9269 15.1016 20 13.6871 20H6.31293C4.8984 20 3.7146 18.9269 3.57614 17.5192L2.34474 5H1.5C0.947715 5 0.5 4.55228 0.5 4C0.5 3.44772 0.947715 3 1.5 3H6.5C6.5 1.067 8.067 -0.5 10 -0.5C11.933 -0.5 13.5 1.067 13.5 3H18.5C19.0523 3 19.5 3.44772 19.5 4ZM12.25 7.25C11.8703 7.25 11.5565 7.53215 11.5068 7.89823L11.5 8V15L11.5068 15.1018C11.5565 15.4678 11.8703 15.75 12.25 15.75C12.6297 15.75 12.9435 15.4678 12.9932 15.1018L13 15V8L12.9932 7.89823C12.9435 7.53215 12.6297 7.25 12.25 7.25ZM7.75 7.25C7.3703 7.25 7.05651 7.53215 7.00685 7.89823L7 8V15L7.00685 15.1018C7.05651 15.4678 7.3703 15.75 7.75 15.75C8.1297 15.75 8.44349 15.4678 8.49315 15.1018L8.5 15V8L8.49315 7.89823C8.44349 7.53215 8.1297 7.25 7.75 7.25ZM10 1.5C9.17157 1.5 8.5 2.17157 8.5 3H11.5C11.5 2.17157 10.8284 1.5 10 1.5Z" fill="white"/>
</g>
<defs>
<clipPath id="clip0_751_61733">
<rect width="20" height="20" fill="white"/>
</clipPath>
</defs>
</svg>
