<svg width="20" height="20" viewBox="0 0 20 20" fill="none" xmlns="http://www.w3.org/2000/svg">
<path d="M11.6768 4.3842L15.6128 8.3202L7.57485 16.3588C7.36976 16.5639 7.12302 16.7214 6.85215 16.8212L6.68687 16.8741L2.6319 17.98C2.28531 18.0745 1.96524 17.786 2.00279 17.4454L2.01796 17.3661L3.12386 13.3111C3.20017 13.0313 3.33624 12.7721 3.52191 12.551L3.63917 12.4231L11.6768 4.3842ZM13.245 2.8173C14.3318 1.7305 16.0939 1.7305 17.1807 2.8173C18.2222 3.85883 18.2656 5.52051 17.3109 6.61371L17.1807 6.75298L16.3198 7.6132L12.3838 3.6772L13.245 2.8173Z" fill="white"/>
</svg>
