<svg width="28" height="28" viewBox="0 0 28 28" fill="none" xmlns="http://www.w3.org/2000/svg">
<path d="M3.66516 16.6604L11.5004 16.6601C11.0348 17.2237 10.7344 17.9287 10.6734 18.7012L10.6619 18.9938V24.9938C10.6619 25.8804 10.9766 26.6935 11.5004 27.3276L11.3286 27.3286C6.76731 27.3286 3.40336 25.899 1.34715 23.0132C0.90453 22.392 0.666656 21.6483 0.666656 20.8855V19.6589C0.666656 18.0029 2.00913 16.6604 3.66516 16.6604ZM17.6619 13.3272H21.6619C22.5249 13.3272 23.2346 13.983 23.32 14.8234L23.3286 14.9938L23.328 16.66L24.9953 16.6605C26.2839 16.6605 27.3286 17.7052 27.3286 18.9938V24.9938C27.3286 26.2825 26.2839 27.3272 24.9953 27.3272H14.3286C13.0399 27.3272 11.9953 26.2825 11.9953 24.9938V18.9938C11.9953 17.7052 13.0399 16.6605 14.3286 16.6605L15.9947 16.66L15.9953 14.9938C15.9953 14.1309 16.6511 13.4211 17.4915 13.3358L17.6619 13.3272H21.6619H17.6619ZM21.3286 15.3272H17.9953L17.9947 16.66H21.328L21.3286 15.3272ZM11.3286 0.666656C15.0105 0.666656 17.9953 3.65142 17.9953 7.33332C17.9953 11.0152 15.0105 14 11.3286 14C7.6467 14 4.66193 11.0152 4.66193 7.33332C4.66193 3.65142 7.6467 0.666656 11.3286 0.666656Z" fill="#3D5D6F"/>
</svg>
