<svg width="24" height="24" viewBox="0 0 24 24" fill="none" xmlns="http://www.w3.org/2000/svg">
<path d="M5.25909 13.6021C5.94254 10.3269 8.79437 8 12 8C15.2057 8 18.0574 10.3269 18.7409 13.6021C18.7974 13.8725 19.0622 14.0459 19.3325 13.9895C19.6029 13.933 19.7763 13.6682 19.7199 13.3979C18.9425 9.67312 15.6934 7 12 7C8.3066 7 5.05742 9.67311 4.28017 13.3979C4.22377 13.6682 4.39718 13.933 4.6675 13.9895C4.93782 14.0459 5.20268 13.8725 5.25909 13.6021ZM12 10C10.067 10 8.5 11.567 8.5 13.5C8.5 15.433 10.067 17 12 17C13.933 17 15.5 15.433 15.5 13.5C15.5 11.567 13.933 10 12 10ZM9.5 13.5C9.5 12.1193 10.6193 11 12 11C13.3807 11 14.5 12.1193 14.5 13.5C14.5 14.8807 13.3807 16 12 16C10.6193 16 9.5 14.8807 9.5 13.5Z" fill="#323130"/>
</svg>
