<svg width="24" height="24" viewBox="0 0 24 24" fill="none" xmlns="http://www.w3.org/2000/svg">
<path d="M5.25905 13.6021C5.94249 10.3269 8.79433 8 12 8C15.2056 8 18.0574 10.3269 18.7409 13.6021C18.7973 13.8725 19.0622 14.0459 19.3325 13.9895C19.6028 13.933 19.7762 13.6682 19.7198 13.3979C18.9425 9.67312 15.6934 7 12 7C8.30656 7 5.05738 9.67311 4.28013 13.3979C4.22373 13.6682 4.39714 13.933 4.66745 13.9895C4.93777 14.0459 5.20264 13.8725 5.25905 13.6021ZM11.9895 10C13.9225 10 15.4895 11.567 15.4895 13.5C15.4895 15.433 13.9225 17 11.9895 17C10.0565 17 8.48949 15.433 8.48949 13.5C8.48949 11.567 10.0565 10 11.9895 10Z" fill="#323130"/>
</svg>
