<svg width="20" height="20" viewBox="0 0 20 20" fill="none" xmlns="http://www.w3.org/2000/svg">
<g clip-path="url(#clip0_751_61715)">
<path d="M11.1908 0.338965C10.462 -0.115592 9.53801 -0.115593 8.80924 0.338964L1.05924 5.1729C0.400391 5.58384 0 6.30547 0 7.08198V14.7497C0 16.5446 1.45507 17.9997 3.25 17.9997H16.75C18.5449 17.9997 20 16.5446 20 14.7497V7.08198C20 6.30547 19.5996 5.58384 18.9408 5.1729L11.1908 0.338965ZM9.60308 1.61169C9.846 1.46017 10.154 1.46017 10.3969 1.61169L17.6389 6.12876L10 10.1492L2.36109 6.12876L9.60308 1.61169ZM1.5 7.37063L9.65069 11.6605C9.86935 11.7755 10.1307 11.7755 10.3493 11.6605L18.5 7.37063V14.7497C18.5 15.7162 17.7165 16.4997 16.75 16.4997H3.25C2.2835 16.4997 1.5 15.7162 1.5 14.7497V7.37063Z" fill="#3D5D6F"/>
</g>
<defs>
<clipPath id="clip0_751_61715">
<rect width="20" height="20" fill="white"/>
</clipPath>
</defs>
</svg>
