<svg width="16" height="16" viewBox="0 0 16 16" fill="none" xmlns="http://www.w3.org/2000/svg">
<path d="M6.75607 7.02268L7.82876 6.03875C8.42965 5.48757 8.63578 4.6268 8.34972 3.86323L7.89134 2.6397C7.53622 1.6918 6.50498 1.18372 5.537 1.47976C3.8208 2.00463 2.50181 3.5994 2.90788 5.494C3.17493 6.73994 3.68549 8.30384 4.6539 9.96859C5.62397 11.6362 6.73182 12.869 7.68148 13.7336C9.11591 15.0395 11.1661 14.7129 12.4851 13.4831C13.2189 12.799 13.2939 11.662 12.6562 10.8875L11.8156 9.8664C11.2974 9.23688 10.4489 8.985 9.67111 9.2298L8.28266 9.66681C8.22926 9.61193 8.16741 9.54631 8.09994 9.47109C7.87181 9.21673 7.58645 8.86025 7.34646 8.44457C7.10647 8.02889 6.94042 7.60352 6.83421 7.27878C6.8028 7.18274 6.7769 7.09636 6.75607 7.02268Z" fill="#3D5D6F"/>
</svg>
