<svg width="24" height="25" viewBox="0 0 24 25" fill="none" xmlns="http://www.w3.org/2000/svg">
<path d="M12 2.5C17.523 2.5 22 6.978 22 12.5C22 18.022 17.523 22.5 12 22.5C6.477 22.5 2 18.022 2 12.5C2 6.978 6.477 2.5 12 2.5ZM12 4.167C7.405 4.167 3.667 7.905 3.667 12.5C3.667 17.095 7.405 20.833 12 20.833C16.595 20.833 20.333 17.095 20.333 12.5C20.333 7.905 16.595 4.167 12 4.167ZM12 16C12.5523 16 13 16.4477 13 17C13 17.5523 12.5523 18 12 18C11.4477 18 11 17.5523 11 17C11 16.4477 11.4477 16 12 16ZM12 7.25C13.5188 7.25 14.75 8.48122 14.75 10C14.75 11.0108 14.4525 11.574 13.6989 12.3586L13.5303 12.5303C12.9084 13.1522 12.75 13.4163 12.75 14C12.75 14.4142 12.4142 14.75 12 14.75C11.5858 14.75 11.25 14.4142 11.25 14C11.25 12.9892 11.5475 12.426 12.3011 11.6414L12.4697 11.4697C13.0916 10.8478 13.25 10.5837 13.25 10C13.25 9.30964 12.6904 8.75 12 8.75C11.3528 8.75 10.8205 9.24187 10.7565 9.87219L10.75 10C10.75 10.4142 10.4142 10.75 10 10.75C9.58579 10.75 9.25 10.4142 9.25 10C9.25 8.48122 10.4812 7.25 12 7.25Z" fill="#3D5D6F"/>
</svg>
