<svg width="24" height="24" viewBox="0 0 24 24" fill="none" xmlns="http://www.w3.org/2000/svg">
<path d="M9.34865 1.28592C9.73693 1.66714 9.73693 2.28522 9.34865 2.66645L8.3554 3.6412C14.315 4.11805 19 9.01781 19 14.9919C19 18.4339 17.434 21.6266 14.7833 23.7764C14.3599 24.1198 13.7332 24.0611 13.3835 23.6455C13.0338 23.2298 13.0935 22.6145 13.5169 22.2712C15.7151 20.4884 17.0115 17.8452 17.0115 14.9919C17.0115 10.1297 13.266 6.1264 8.45334 5.6115L9.34865 6.49222C9.73693 6.87344 9.73693 7.49152 9.34865 7.87275C8.96037 8.25397 8.33084 8.25397 7.94256 7.87275L5.29121 5.2696C4.90293 4.88838 4.90293 4.27029 5.29121 3.88907L7.94256 1.28592C8.33084 0.904695 8.96037 0.904695 9.34865 1.28592Z" fill="#323130"/>
</svg>
