<svg width="24" height="25" viewBox="0 0 24 25" fill="none" xmlns="http://www.w3.org/2000/svg">
<path d="M9.35631 4.13451C10.4456 1.95516 13.5544 1.95516 14.6437 4.13451L21.6841 18.2208C22.6668 20.1868 21.2377 22.5 19.0405 22.5H4.95955C2.76231 22.5 1.33322 20.1868 2.31586 18.2208L9.35631 4.13451Z" fill="#E5A900"/>
<path d="M12.8408 15.6846H11.1729L10.8242 9.00586H13.1895L12.8408 15.6846ZM10.7969 18.0225C10.7969 17.6396 10.8994 17.3503 11.1045 17.1543C11.3096 16.9583 11.6081 16.8604 12 16.8604C12.3783 16.8604 12.6699 16.9606 12.875 17.1611C13.0846 17.3617 13.1895 17.6488 13.1895 18.0225C13.1895 18.3825 13.0846 18.6673 12.875 18.877C12.6654 19.082 12.3737 19.1846 12 19.1846C11.6172 19.1846 11.321 19.0843 11.1113 18.8838C10.9017 18.6787 10.7969 18.3916 10.7969 18.0225Z" fill="#201F1E"/>
</svg>
