<svg width="20" height="20" viewBox="0 0 20 20" fill="none" xmlns="http://www.w3.org/2000/svg">
<path d="M7.48506 2.90771C8.35646 1.16423 10.8435 1.16423 11.715 2.90771L17.3473 14.1767C18.1334 15.7495 16.9902 17.6001 15.2324 17.6001H3.96764C2.20985 17.6001 1.06658 15.7495 1.85269 14.1767L7.48506 2.90771Z" fill="white"/>
<path d="M10.2727 12.1477H8.93828L8.65937 6.80469H10.5516L10.2727 12.1477ZM8.6375 14.018C8.6375 13.7117 8.71953 13.4802 8.88359 13.3234C9.04765 13.1667 9.28646 13.0883 9.6 13.0883C9.9026 13.0883 10.1359 13.1685 10.3 13.3289C10.4677 13.4893 10.5516 13.719 10.5516 14.018C10.5516 14.306 10.4677 14.5339 10.3 14.7016C10.1323 14.8656 9.89896 14.9477 9.6 14.9477C9.29375 14.9477 9.05677 14.8674 8.88906 14.707C8.72135 14.543 8.6375 14.3133 8.6375 14.018Z" fill="#A21E1F"/>
</svg>
