<svg width="16" height="16" viewBox="0 0 16 16" fill="none" xmlns="http://www.w3.org/2000/svg">
<path d="M5.88505 1.30761C6.75646 -0.435871 9.24354 -0.435869 10.1149 1.30761L15.7473 12.5766C16.5334 14.1494 15.3902 16 13.6324 16H2.36764C0.609847 16 -0.533421 14.1494 0.252687 12.5766L5.88505 1.30761Z" fill="#A21E1F"/>
<path d="M8.67266 10.5476H7.33829L7.05938 5.20459H8.95157L8.67266 10.5476ZM7.03751 12.4179C7.03751 12.1116 7.11954 11.8801 7.2836 11.7233C7.44766 11.5666 7.68646 11.4882 8.00001 11.4882C8.30261 11.4882 8.53594 11.5684 8.70001 11.7288C8.86771 11.8892 8.95157 12.1189 8.95157 12.4179C8.95157 12.7059 8.86771 12.9338 8.70001 13.1015C8.5323 13.2655 8.29896 13.3476 8.00001 13.3476C7.69376 13.3476 7.45678 13.2674 7.28907 13.1069C7.12136 12.9429 7.03751 12.7132 7.03751 12.4179Z" fill="white"/>
</svg>
